<svg width="960" height="76" viewBox="0 0 960 76" fill="none" xmlns="http://www.w3.org/2000/svg">
<path d="M1.96216 74.9936H667.905C667.905 74.9936 624.609 35.8879 564.033 37.6916C503.456 39.4953 507.417 64.5794 432.955 59.6779C358.492 54.7764 346.037 11.4491 292.286 14.6278C238.536 17.8066 228.744 38.5548 182.887 46.3821C137.029 54.2095 109.028 39.027 66.7538 46.3821C24.4793 53.7373 1.96216 74.9936 1.96216 74.9936Z" fill="#F9FAFC"/>
<path opacity="0.05" d="M257.45 74.9942H960C960 74.9942 924.027 43.6966 870.267 39.2722C816.507 34.8479 810.188 67.2915 745.957 60.3344C681.726 53.3773 660.158 9.49053 599.468 10.4823C538.778 11.474 526.964 26.5834 474.599 45.963C422.235 65.3427 377.958 33.9782 324.336 42.0485C270.713 50.1188 257.45 74.9942 257.45 74.9942Z" fill="#003366"/>
<path d="M392.244 6.50201H351V61.21H392.244V6.50201Z" fill="#EFEFEF"/>
<path d="M394.561 4.944H353.317V59.652H394.561V4.944Z" fill="white" stroke="#EFEFEF"/>
<g opacity="0.237">
<path d="M384.297 18.885H368.291C367.72 18.885 367.258 19.3473 367.258 19.9175C367.258 20.4877 367.72 20.95 368.291 20.95H384.297C384.868 20.95 385.33 20.4877 385.33 19.9175C385.33 19.3473 384.868 18.885 384.297 18.885Z" fill="#003366"/>
<path d="M363.644 21.467C364.499 21.467 365.193 20.7735 365.193 19.918C365.193 19.0625 364.499 18.369 363.644 18.369C362.789 18.369 362.095 19.0625 362.095 19.918C362.095 20.7735 362.789 21.467 363.644 21.467Z" fill="#003366"/>
</g>
<g opacity="0.237">
<path d="M384.297 27.146H368.291C367.72 27.146 367.258 27.6083 367.258 28.1785C367.258 28.7487 367.72 29.211 368.291 29.211H384.297C384.868 29.211 385.33 28.7487 385.33 28.1785C385.33 27.6083 384.868 27.146 384.297 27.146Z" fill="#003366"/>
<path d="M363.644 29.728C364.499 29.728 365.193 29.0345 365.193 28.179C365.193 27.3235 364.499 26.63 363.644 26.63C362.789 26.63 362.095 27.3235 362.095 28.179C362.095 29.0345 362.789 29.728 363.644 29.728Z" fill="#003366"/>
</g>
<g opacity="0.237">
<path d="M383.781 35.408H368.291C367.72 35.408 367.258 35.8703 367.258 36.4405C367.258 37.0107 367.72 37.473 368.291 37.473H383.781C384.352 37.473 384.814 37.0107 384.814 36.4405C384.814 35.8703 384.352 35.408 383.781 35.408Z" fill="#003366"/>
<path d="M363.644 37.99C364.499 37.99 365.193 37.2965 365.193 36.441C365.193 35.5855 364.499 34.892 363.644 34.892C362.789 34.892 362.095 35.5855 362.095 36.441C362.095 37.2965 362.789 37.99 363.644 37.99Z" fill="#003366"/>
</g>
<g opacity="0.237">
<path d="M383.781 43.669H368.291C367.72 43.669 367.258 44.1313 367.258 44.7015C367.258 45.2717 367.72 45.734 368.291 45.734H383.781C384.352 45.734 384.814 45.2717 384.814 44.7015C384.814 44.1313 384.352 43.669 383.781 43.669Z" fill="#003366"/>
<path d="M363.644 46.251C364.499 46.251 365.193 45.5575 365.193 44.702C365.193 43.8465 364.499 43.153 363.644 43.153C362.789 43.153 362.095 43.8465 362.095 44.702C362.095 45.5575 362.789 46.251 363.644 46.251Z" fill="#003366"/>
</g>
<g opacity="0.597">
<path d="M459.671 62.598C459.671 62.598 456.112 55.884 461.444 53.327C461.444 53.327 465.202 52.069 467.861 52.838C467.861 52.838 462.598 58.385 463.691 59.301C464.784 60.217 469.109 52.701 469.109 52.701C469.109 52.701 476.799 53.664 478.958 55.373C478.958 55.373 471.34 59.19 472.624 59.809C473.908 60.428 482.024 56.823 482.024 56.823C482.024 56.823 488.76 59.591 487.424 63.78C486.088 67.969 483.379 68.745 482.344 68.393C481.309 68.041 475.637 64.276 475.306 65.115C474.975 65.954 478.071 69.635 480.657 70.356C480.657 70.356 474.494 74.691 471.566 72.381C468.638 70.071 468.918 67.516 467.082 66.122C465.246 64.728 463.499 64.337 464.13 65.48C464.761 66.623 468.255 68.38 468.959 70.715C469.663 73.05 470.399 74.68 467.118 73.405C463.837 72.13 458.877 68.405 459.275 65.505L459.671 62.598Z" fill="#97C6F6"/>
<path d="M483.955 63.1161C483.955 63.1161 465.096 58.103 459.671 62.598C458.392 64.4644 456.682 65.9955 454.687 67.062L453.968 68.177C453.968 68.177 458.047 65.443 459.274 65.498C459.274 65.498 458.945 58.3421 483.955 63.1161Z" fill="#97C6F6"/>
<path d="M454.687 67.0619C453.192 67.8081 451.865 68.8525 450.788 70.1308C449.712 71.4091 448.908 72.8943 448.427 74.4949L449.153 74.728C449.153 74.728 451.712 69.4419 454.561 67.7909C457.41 66.1399 454.687 67.0619 454.687 67.0619Z" fill="#97C6F6"/>
</g>
<path opacity="0.569" d="M436.24 50.487C436.24 50.487 425.701 44.987 430.304 36.969C430.304 36.969 434.03 32.016 438.139 30.649C438.139 30.649 436.278 42.463 438.497 42.673C440.716 42.883 439.622 29.36 439.622 29.36C439.622 29.36 450.384 23.783 454.681 24.07C454.681 24.07 448.25 35.743 450.454 35.401C452.658 35.059 459.912 23.223 459.912 23.223C459.912 23.223 471.045 20.816 473.039 27.397C475.033 33.978 472.23 37.381 470.584 37.845C468.938 38.309 458.292 38.488 458.609 39.862C458.926 41.236 466.179 43.233 470.15 41.87C470.15 41.87 466.05 52.92 460.232 52.54C454.414 52.16 452.506 48.62 448.905 48.451C445.304 48.282 442.705 49.327 444.532 50.241C446.359 51.155 452.419 50.323 455.396 52.704C458.373 55.085 460.766 56.535 455.41 57.804C450.054 59.073 440.357 58.667 438.299 54.579L436.24 50.487Z" fill="#97C6F6"/>
<g opacity="0.573">
<path d="M467.987 29.622C467.987 29.622 439.243 39.885 436.239 50.487C436.245 54.0262 435.4 57.515 433.775 60.659L433.837 62.732C433.837 62.732 436.668 55.593 438.297 54.576C438.297 54.576 431.53 45.648 467.987 29.622Z" fill="#70ADF1"/>
<path d="M433.775 60.658C432.51 62.9454 431.726 65.4677 431.472 68.0694C431.219 70.6711 431.5 73.2973 432.3 75.786L433.442 75.4419C433.442 75.4419 432.053 66.362 434.258 61.709C436.463 57.056 433.775 60.658 433.775 60.658Z" fill="#70ADF1"/>
</g>
<path d="M448.609 75.84H433.966C433.181 75.174 434.509 73.663 435.896 73.561C436.649 73.5503 437.401 73.639 438.131 73.8249C438.331 71.1489 439.483 59.118 443.819 59.601C448.695 60.142 443.819 64.9009 442.441 67.7159C441.465 69.8323 440.601 71.9983 439.851 74.205C440.251 74.291 440.656 74.375 441.075 74.452C441.721 72.468 444.126 65.793 447.184 66.182C450.774 66.637 449.331 69.314 446.784 70.902C444.917 72.07 442.624 73.731 441.534 74.533C442.48 74.6974 443.438 74.7741 444.398 74.762C445.886 74.5988 447.382 74.9819 448.609 75.84Z" fill="#8EEA9B"/>
<path d="M426.355 36.1779C426.282 37.0646 426.123 37.9422 425.88 38.798C425.393 39.5486 424.801 40.2254 424.122 40.8079C423.671 41.0689 424.397 39.0539 424.306 38.6609C424.215 38.2679 423.935 39.377 423.736 39.403C423.537 39.429 423.588 38.4309 423.581 38.0679C423.574 37.7049 424.548 36.8089 424.891 36.0359C425.234 35.2629 426.355 36.1779 426.355 36.1779Z" fill="#FFCFC9"/>
<path d="M399.286 15.857L398.78 14.902C398.8 14.2995 398.629 13.706 398.291 13.2067C397.953 12.7075 397.465 12.3281 396.898 12.123C396.688 12.0355 396.455 12.0193 396.235 12.0767C396.015 12.1342 395.82 12.2621 395.679 12.441C395.274 13.027 396.451 12.921 396.388 13.923C396.338 14.3154 396.415 14.7135 396.608 15.0585C396.802 15.4036 397.101 15.6772 397.462 15.8391L398.009 16.4731L399.286 15.857Z" fill="#FFCFC9"/>
<path d="M419.446 13.5739C418.678 16.4309 417.174 19.0363 415.083 21.1295C412.992 23.2227 410.389 24.7305 407.533 25.502C404.386 26.419 397.233 16.0589 397.233 16.0589C397.233 16.0589 397.484 15.104 399.059 15.323C399.059 15.323 406.02 19.931 406.896 20.432C407.674 20.876 412.787 14.722 415.119 13.732C416.49 13.1378 418.035 13.0813 419.446 13.5739Z" fill="#E36C6C"/>
<path d="M392.622 11.8048L392.336 13.666L401.697 15.1038L401.983 13.2426L392.622 11.8048Z" fill="#FB7369"/>
<path d="M390.302 12.401L392.336 13.666L392.622 11.805L390.302 12.401Z" fill="#FC9490"/>
<path d="M402.976 14.026L402.885 14.6139C402.872 14.7 402.842 14.7827 402.797 14.8572C402.752 14.9317 402.692 14.9966 402.622 15.0481C402.552 15.0997 402.472 15.1369 402.388 15.1576C402.303 15.1784 402.215 15.1822 402.129 15.169L401.696 15.102L401.982 13.241L402.453 13.313C402.534 13.3255 402.612 13.3537 402.682 13.3963C402.752 13.4389 402.814 13.4949 402.862 13.5611C402.911 13.6273 402.946 13.7025 402.965 13.7823C402.985 13.862 402.988 13.9449 402.976 14.026Z" fill="#FC9490"/>
<path d="M431.483 70.099C431.483 70.099 432.734 71.2401 432.49 72.0511C432.246 72.8621 431.117 73.402 430.965 74.394C430.813 75.386 430.202 75.9261 429.653 75.9261H427.036C427.036 75.9261 426.636 75.226 427.608 75.018C428.58 74.81 428.952 73.643 428.891 72.562C428.866 71.7199 428.897 70.877 428.983 70.039L431.057 69.559L431.483 70.099Z" fill="#373C73"/>
<path d="M416.139 73.046C416.139 73.046 416.364 75.6461 415.815 75.9141L408.789 75.9C408.789 75.9 408.789 75.089 409.917 74.909C411.045 74.729 413.028 74.068 413.364 72.596C413.7 71.124 416.139 73.046 416.139 73.046Z" fill="#373C73"/>
<path d="M410.21 36.357C410.21 36.357 410.58 40.91 411.016 46.383C411.608 53.817 412.316 62.949 412.39 64.683C412.512 67.683 413 72.492 413 72.492C413.486 72.87 414.054 73.127 414.659 73.2418C415.263 73.3565 415.887 73.3258 416.477 73.152C417.797 68.5387 418.686 63.8127 419.133 59.035C419.142 58.916 419.151 58.796 419.16 58.676C419.709 51.288 420.56 35.73 420.56 35.73L410.21 36.357Z" fill="#003366"/>
<path d="M410.21 36.357C410.21 36.357 410.58 40.91 411.016 46.383L419.134 59.032C419.143 58.913 419.152 58.793 419.161 58.673C419.71 51.285 420.561 35.727 420.561 35.727L410.21 36.357Z" fill="#373C73"/>
<path d="M411.899 36.8969C411.899 36.8969 418.579 53.386 422.971 61.134C427.363 68.882 428.736 71.045 428.736 71.045C428.736 71.045 431.252 70.054 431.481 69.378C431.481 69.378 429.801 54.4189 426.86 50.7719C425.198 48.7109 423.246 42.528 423.154 40.365C423.062 38.202 422.559 33.9229 422.559 33.9229L411.899 36.8969Z" fill="#003366"/>
<path d="M420.688 11.487C420.688 11.487 416.168 13.668 413.563 12.859C414.059 12.2838 414.657 11.8054 415.327 11.448C415.237 10.925 415.167 10.471 415.127 10.086C415.065 9.62475 415.028 9.16038 415.017 8.69504L416.761 7.32394L418.414 6.01205C418.345 7.03825 418.514 8.06647 418.908 9.01633C419.303 9.96618 419.912 10.8119 420.688 11.487Z" fill="#FFCFC9"/>
<path d="M423.069 34.771C423.079 35.047 422.488 35.363 422.227 35.482C420.402 36.3402 418.449 36.8936 416.445 37.12C414.357 37.1774 412.267 37.0852 410.192 36.844C410.091 36.8424 409.995 36.8035 409.921 36.735C409.851 36.686 409.801 33.7749 409.851 30.1139C409.851 29.9659 409.851 29.8139 409.861 29.6699V29.621C409.881 28.19 409.931 26.69 410.001 25.19C410.05 22.4279 410.332 19.6748 410.843 16.96C411.317 15.2291 412.302 13.6814 413.669 12.5189L414.569 11.73C415.515 11.9351 416.503 11.8171 417.375 11.3949C418.417 10.8949 419.54 10.349 419.72 10.487C421.083 11.487 422.005 13.7239 422.496 16.5869C422.788 18.3808 422.926 20.1965 422.907 22.0139C422.907 22.7249 422.887 23.4549 422.847 24.1749C422.684 27.2632 422.731 30.359 422.988 33.4409C423.029 34.0079 423.059 34.452 423.069 34.771Z" fill="#E36C6C"/>
<path opacity="0.34" d="M422.989 34.5889C407.162 34.5579 420.07 17.415 420.07 17.415L422.634 16.582C422.847 18.5078 422.947 20.4445 422.934 22.382C422.934 23.141 422.92 23.921 422.891 24.691C422.714 28.864 422.888 32.4909 422.989 34.5889Z" fill="#CE0136"/>
<path d="M418.443 7.42101C417.702 8.68565 416.524 9.63483 415.13 10.089C415.068 9.62769 415.031 9.16332 415.02 8.69798L416.764 7.32603L418.443 7.42101Z" fill="#F2B4AB"/>
<path d="M414.22 8.63395C414.22 8.63395 418.532 9.339 418.937 6.689C419.342 4.039 420.171 2.34402 417.437 1.78202C414.703 1.22002 414.011 2.15195 413.657 3.00395C413.303 3.85595 413.109 8.38295 414.22 8.63395Z" fill="#FFCFC9"/>
<path d="M420.504 1.46402C420.543 1.41902 420.633 1.38298 420.834 1.37198C420.719 1.30684 420.591 1.27051 420.459 1.26602C420.447 1.06746 420.377 0.876683 420.258 0.717682C420.138 0.55868 419.974 0.438459 419.787 0.371979C419.865 0.417683 419.932 0.480591 419.983 0.555939C420.033 0.631286 420.066 0.717046 420.079 0.806915C419.522 0.234915 418.329 -0.18099 415.024 0.0790098C410.669 0.42301 412.104 3.211 412.668 3.543C413.232 3.875 414.651 2.964 415.701 3.043C416.751 3.122 416.951 4.64296 417.308 4.85196C417.665 5.06096 417.524 4.69191 418.008 4.47391C418.492 4.25591 418.536 5.05501 418.397 5.57401C418.258 6.09301 418.92 6.77396 418.92 6.77396L419.589 6.05301C420.371 4.71632 420.721 3.17018 420.589 1.62698L420.504 1.46402Z" fill="#373C73"/>
<path d="M419.721 10.461C421.301 11.2278 422.682 12.3497 423.757 13.7389C425.786 16.8199 428.138 28.047 428.181 29.086C428.224 30.125 426.464 37.466 426.464 37.466C426.464 37.466 424.679 37.3479 424.219 36.4469C424.219 36.4469 424.575 28.9049 424.35 28.4209C424.125 27.9369 416.908 18.305 417.72 16.25C418.532 14.195 419.721 10.461 419.721 10.461Z" fill="#E36C6C"/>
<path d="M398.771 14.8571C398.771 14.8571 398.919 14.2711 398.513 14.0081C398.107 13.7451 397.733 13.028 397.561 13.125C397.206 13.325 397.755 13.951 397.655 14.731C397.619 15.004 398.255 15.7191 398.771 14.8571Z" fill="#FFCFC9"/>
<path d="M21.848 35V18.08H29.24C31.016 18.08 32.392 18.472 33.368 19.256C34.344 20.024 34.832 21.096 34.832 22.472C34.832 23.496 34.536 24.36 33.944 25.064C33.352 25.768 32.544 26.24 31.52 26.48V26.12C32.304 26.232 32.976 26.472 33.536 26.84C34.096 27.208 34.52 27.68 34.808 28.256C35.112 28.832 35.264 29.504 35.264 30.272C35.264 31.264 35.032 32.12 34.568 32.84C34.12 33.544 33.464 34.08 32.6 34.448C31.736 34.816 30.704 35 29.504 35H21.848ZM24.8 32.672H29.12C29.552 32.672 29.936 32.64 30.272 32.576C30.624 32.512 30.92 32.416 31.16 32.288C31.416 32.144 31.624 31.968 31.784 31.76C31.96 31.552 32.088 31.312 32.168 31.04C32.248 30.768 32.288 30.464 32.288 30.128C32.288 29.776 32.248 29.464 32.168 29.192C32.088 28.92 31.96 28.688 31.784 28.496C31.624 28.288 31.416 28.12 31.16 27.992C30.92 27.848 30.624 27.744 30.272 27.68C29.936 27.616 29.552 27.584 29.12 27.584H24.8V32.672ZM24.8 25.256H28.712C29.768 25.256 30.552 25.056 31.064 24.656C31.592 24.24 31.856 23.632 31.856 22.832C31.856 22.032 31.592 21.432 31.064 21.032C30.552 20.616 29.768 20.408 28.712 20.408H24.8V25.256ZM41.9474 35.24C41.0994 35.24 40.3394 35.08 39.6674 34.76C39.0114 34.424 38.4914 33.976 38.1074 33.416C37.7394 32.856 37.5554 32.224 37.5554 31.52C37.5554 30.656 37.7794 29.976 38.2274 29.48C38.6754 28.968 39.4034 28.6 40.4114 28.376C41.4194 28.152 42.7714 28.04 44.4674 28.04H45.6674V29.768H44.4914C43.7394 29.768 43.1074 29.8 42.5954 29.864C42.0834 29.912 41.6674 30 41.3474 30.128C41.0434 30.24 40.8194 30.4 40.6754 30.608C40.5474 30.816 40.4834 31.072 40.4834 31.376C40.4834 31.904 40.6674 32.336 41.0354 32.672C41.4034 33.008 41.9154 33.176 42.5714 33.176C43.0994 33.176 43.5634 33.056 43.9634 32.816C44.3794 32.56 44.7074 32.216 44.9474 31.784C45.1874 31.352 45.3074 30.856 45.3074 30.296V27.536C45.3074 26.736 45.1314 26.16 44.7794 25.808C44.4274 25.456 43.8354 25.28 43.0034 25.28C42.3474 25.28 41.6754 25.384 40.9874 25.592C40.2994 25.784 39.6034 26.088 38.8994 26.504L38.0354 24.464C38.4514 24.176 38.9394 23.928 39.4994 23.72C40.0754 23.496 40.6754 23.328 41.2994 23.216C41.9394 23.088 42.5394 23.024 43.0994 23.024C44.2514 23.024 45.1954 23.2 45.9314 23.552C46.6834 23.904 47.2434 24.44 47.6114 25.16C47.9794 25.864 48.1634 26.776 48.1634 27.896V35H45.3554V32.504H45.5474C45.4354 33.064 45.2114 33.552 44.8754 33.968C44.5554 34.368 44.1474 34.68 43.6514 34.904C43.1554 35.128 42.5874 35.24 41.9474 35.24ZM55.5044 35.24C54.8484 35.24 54.2084 35.184 53.5844 35.072C52.9764 34.96 52.4164 34.808 51.9044 34.616C51.3924 34.408 50.9444 34.152 50.5604 33.848L51.3284 31.88C51.7284 32.136 52.1604 32.36 52.6244 32.552C53.0884 32.744 53.5684 32.888 54.0644 32.984C54.5604 33.08 55.0484 33.128 55.5284 33.128C56.2964 33.128 56.8644 33 57.2324 32.744C57.6164 32.472 57.8084 32.12 57.8084 31.688C57.8084 31.32 57.6804 31.04 57.4244 30.848C57.1844 30.64 56.8164 30.488 56.3204 30.392L53.9204 29.936C52.9284 29.744 52.1684 29.384 51.6404 28.856C51.1284 28.312 50.8724 27.616 50.8724 26.768C50.8724 26 51.0804 25.336 51.4964 24.776C51.9284 24.216 52.5204 23.784 53.2724 23.48C54.0244 23.176 54.8884 23.024 55.8644 23.024C56.4244 23.024 56.9684 23.08 57.4964 23.192C58.0244 23.288 58.5204 23.44 58.9844 23.648C59.4644 23.84 59.8804 24.096 60.2324 24.416L59.4164 26.384C59.1124 26.128 58.7604 25.912 58.3604 25.736C57.9604 25.544 57.5444 25.4 57.1124 25.304C56.6964 25.192 56.2884 25.136 55.8884 25.136C55.1044 25.136 54.5204 25.272 54.1364 25.544C53.7684 25.816 53.5844 26.176 53.5844 26.624C53.5844 26.96 53.6964 27.24 53.9204 27.464C54.1444 27.688 54.4884 27.84 54.9524 27.92L57.3524 28.376C58.3924 28.568 59.1764 28.92 59.7044 29.432C60.2484 29.944 60.5204 30.632 60.5204 31.496C60.5204 32.28 60.3124 32.952 59.8964 33.512C59.4804 34.072 58.8964 34.504 58.1444 34.808C57.3924 35.096 56.5124 35.24 55.5044 35.24ZM62.7352 20.744V17.816H66.0952V20.744H62.7352ZM62.9272 35V23.264H65.9272V35H62.9272ZM74.4684 35.24C73.2364 35.24 72.1644 34.992 71.2524 34.496C70.3404 33.984 69.6364 33.264 69.1404 32.336C68.6444 31.408 68.3964 30.32 68.3964 29.072C68.3964 27.824 68.6444 26.752 69.1404 25.856C69.6364 24.944 70.3404 24.248 71.2524 23.768C72.1644 23.272 73.2364 23.024 74.4684 23.024C75.2204 23.024 75.9644 23.144 76.7004 23.384C77.4364 23.624 78.0444 23.96 78.5244 24.392L77.6364 26.48C77.2204 26.112 76.7484 25.832 76.2204 25.64C75.7084 25.448 75.2124 25.352 74.7324 25.352C73.6924 25.352 72.8844 25.68 72.3084 26.336C71.7484 26.976 71.4684 27.896 71.4684 29.096C71.4684 30.28 71.7484 31.216 72.3084 31.904C72.8844 32.576 73.6924 32.912 74.7324 32.912C75.1964 32.912 75.6924 32.816 76.2204 32.624C76.7484 32.432 77.2204 32.144 77.6364 31.76L78.5244 33.872C78.0444 34.288 77.4284 34.624 76.6764 34.88C75.9404 35.12 75.2044 35.24 74.4684 35.24ZM87.1214 35V18.08H90.1934V35H87.1214ZM93.5834 35V23.264H96.5114V25.616H96.2474C96.5994 24.768 97.1434 24.128 97.8794 23.696C98.6314 23.248 99.4794 23.024 100.423 23.024C101.367 23.024 102.143 23.2 102.751 23.552C103.359 23.904 103.815 24.44 104.119 25.16C104.423 25.864 104.575 26.76 104.575 27.848V35H101.575V27.992C101.575 27.384 101.495 26.888 101.335 26.504C101.191 26.12 100.959 25.84 100.639 25.664C100.335 25.472 99.9434 25.376 99.4634 25.376C98.8874 25.376 98.3834 25.504 97.9514 25.76C97.5194 26 97.1834 26.352 96.9434 26.816C96.7034 27.264 96.5834 27.792 96.5834 28.4V35H93.5834ZM108.415 35V25.52H106.159V23.264H109.279L108.415 24.056V23.24C108.415 21.576 108.847 20.32 109.711 19.472C110.591 18.624 111.951 18.144 113.791 18.032L114.967 17.96L115.159 20.168L114.055 20.24C113.415 20.272 112.903 20.392 112.519 20.6C112.135 20.792 111.855 21.064 111.679 21.416C111.503 21.768 111.415 22.216 111.415 22.76V23.648L111.031 23.264H114.607V25.52H111.415V35H108.415ZM121.412 35.24C120.196 35.24 119.14 34.992 118.244 34.496C117.348 34 116.652 33.296 116.156 32.384C115.66 31.456 115.412 30.368 115.412 29.12C115.412 27.872 115.66 26.792 116.156 25.88C116.652 24.968 117.348 24.264 118.244 23.768C119.14 23.272 120.196 23.024 121.412 23.024C122.628 23.024 123.684 23.272 124.58 23.768C125.476 24.264 126.172 24.968 126.668 25.88C127.164 26.792 127.412 27.872 127.412 29.12C127.412 30.368 127.164 31.456 126.668 32.384C126.172 33.296 125.476 34 124.58 34.496C123.684 34.992 122.628 35.24 121.412 35.24ZM121.412 32.96C122.308 32.96 123.028 32.64 123.572 32C124.116 31.344 124.388 30.384 124.388 29.12C124.388 27.84 124.116 26.888 123.572 26.264C123.028 25.624 122.308 25.304 121.412 25.304C120.516 25.304 119.796 25.624 119.252 26.264C118.708 26.888 118.436 27.84 118.436 29.12C118.436 30.384 118.708 31.344 119.252 32C119.796 32.64 120.516 32.96 121.412 32.96ZM129.888 35V23.264H132.816V26.096H132.576C132.8 25.136 133.24 24.408 133.896 23.912C134.552 23.4 135.424 23.104 136.512 23.024L137.424 22.952L137.616 25.496L135.888 25.664C134.912 25.76 134.176 26.064 133.68 26.576C133.184 27.072 132.936 27.776 132.936 28.688V35H129.888ZM139.335 35V23.264H142.263V25.616H141.999C142.207 25.072 142.495 24.608 142.863 24.224C143.231 23.84 143.671 23.544 144.183 23.336C144.695 23.128 145.263 23.024 145.887 23.024C146.831 23.024 147.607 23.248 148.215 23.696C148.823 24.144 149.247 24.832 149.487 25.76H149.151C149.471 24.912 149.999 24.248 150.735 23.768C151.471 23.272 152.319 23.024 153.279 23.024C154.175 23.024 154.911 23.2 155.487 23.552C156.079 23.904 156.519 24.44 156.807 25.16C157.095 25.864 157.239 26.76 157.239 27.848V35H154.239V27.968C154.239 27.072 154.087 26.416 153.783 26C153.495 25.584 152.999 25.376 152.295 25.376C151.783 25.376 151.335 25.504 150.951 25.76C150.567 26 150.271 26.352 150.063 26.816C149.871 27.28 149.775 27.84 149.775 28.496V35H146.775V27.968C146.775 27.072 146.623 26.416 146.319 26C146.031 25.584 145.543 25.376 144.855 25.376C144.327 25.376 143.871 25.504 143.487 25.76C143.119 26 142.831 26.352 142.623 26.816C142.431 27.28 142.335 27.84 142.335 28.496V35H139.335ZM164.197 35.24C163.349 35.24 162.589 35.08 161.917 34.76C161.261 34.424 160.741 33.976 160.357 33.416C159.989 32.856 159.805 32.224 159.805 31.52C159.805 30.656 160.029 29.976 160.477 29.48C160.925 28.968 161.653 28.6 162.661 28.376C163.669 28.152 165.021 28.04 166.717 28.04H167.917V29.768H166.741C165.989 29.768 165.357 29.8 164.845 29.864C164.333 29.912 163.917 30 163.597 30.128C163.293 30.24 163.069 30.4 162.925 30.608C162.797 30.816 162.733 31.072 162.733 31.376C162.733 31.904 162.917 32.336 163.285 32.672C163.653 33.008 164.165 33.176 164.821 33.176C165.349 33.176 165.813 33.056 166.213 32.816C166.629 32.56 166.957 32.216 167.197 31.784C167.437 31.352 167.557 30.856 167.557 30.296V27.536C167.557 26.736 167.381 26.16 167.029 25.808C166.677 25.456 166.085 25.28 165.253 25.28C164.597 25.28 163.925 25.384 163.237 25.592C162.549 25.784 161.853 26.088 161.149 26.504L160.285 24.464C160.701 24.176 161.189 23.928 161.749 23.72C162.325 23.496 162.925 23.328 163.549 23.216C164.189 23.088 164.789 23.024 165.349 23.024C166.501 23.024 167.445 23.2 168.181 23.552C168.933 23.904 169.493 24.44 169.861 25.16C170.229 25.864 170.413 26.776 170.413 27.896V35H167.605V32.504H167.797C167.685 33.064 167.461 33.552 167.125 33.968C166.805 34.368 166.397 34.68 165.901 34.904C165.405 35.128 164.837 35.24 164.197 35.24ZM178.834 35.24C177.266 35.24 176.098 34.848 175.33 34.064C174.562 33.28 174.178 32.136 174.178 30.632V25.52H171.922V23.264H174.178V19.76H177.178V23.264H180.73V25.52H177.178V30.464C177.178 31.232 177.346 31.808 177.682 32.192C178.018 32.576 178.562 32.768 179.314 32.768C179.538 32.768 179.77 32.744 180.01 32.696C180.25 32.632 180.498 32.568 180.754 32.504L181.21 34.712C180.922 34.872 180.554 35 180.106 35.096C179.674 35.192 179.25 35.24 178.834 35.24ZM182.477 20.744V17.816H185.837V20.744H182.477ZM182.669 35V23.264H185.669V35H182.669ZM194.139 35.24C192.923 35.24 191.867 34.992 190.971 34.496C190.075 34 189.379 33.296 188.883 32.384C188.387 31.456 188.139 30.368 188.139 29.12C188.139 27.872 188.387 26.792 188.883 25.88C189.379 24.968 190.075 24.264 190.971 23.768C191.867 23.272 192.923 23.024 194.139 23.024C195.355 23.024 196.411 23.272 197.307 23.768C198.203 24.264 198.899 24.968 199.395 25.88C199.891 26.792 200.139 27.872 200.139 29.12C200.139 30.368 199.891 31.456 199.395 32.384C198.899 33.296 198.203 34 197.307 34.496C196.411 34.992 195.355 35.24 194.139 35.24ZM194.139 32.96C195.035 32.96 195.755 32.64 196.299 32C196.843 31.344 197.115 30.384 197.115 29.12C197.115 27.84 196.843 26.888 196.299 26.264C195.755 25.624 195.035 25.304 194.139 25.304C193.243 25.304 192.523 25.624 191.979 26.264C191.435 26.888 191.163 27.84 191.163 29.12C191.163 30.384 191.435 31.344 191.979 32C192.523 32.64 193.243 32.96 194.139 32.96ZM202.615 35V23.264H205.543V25.616H205.279C205.631 24.768 206.175 24.128 206.911 23.696C207.663 23.248 208.511 23.024 209.455 23.024C210.399 23.024 211.175 23.2 211.783 23.552C212.391 23.904 212.847 24.44 213.151 25.16C213.455 25.864 213.607 26.76 213.607 27.848V35H210.607V27.992C210.607 27.384 210.527 26.888 210.367 26.504C210.223 26.12 209.991 25.84 209.671 25.664C209.367 25.472 208.975 25.376 208.495 25.376C207.919 25.376 207.415 25.504 206.983 25.76C206.551 26 206.215 26.352 205.975 26.816C205.735 27.264 205.615 27.792 205.615 28.4V35H202.615Z" fill="#003366"/>
<path d="M23.094 58L24.508 49.124H20.924L21.078 48.13H29.408L29.254 49.124H25.656L24.256 58H23.094ZM28.9399 58L30.5079 48.13H31.6419L30.9139 52.736H30.7459C30.9792 52.204 31.3199 51.7933 31.7679 51.504C32.2252 51.2147 32.7665 51.07 33.3919 51.07C33.8959 51.07 34.3159 51.1727 34.6519 51.378C34.9972 51.574 35.2399 51.882 35.3799 52.302C35.5292 52.7127 35.5525 53.24 35.4499 53.884L34.8059 58H33.6719L34.3159 53.884C34.3905 53.464 34.3905 53.114 34.3159 52.834C34.2412 52.554 34.1012 52.344 33.8959 52.204C33.6905 52.064 33.4105 51.994 33.0559 51.994C32.6079 51.994 32.2159 52.092 31.8799 52.288C31.5439 52.4747 31.2732 52.7407 31.0679 53.086C30.8719 53.4313 30.7365 53.8373 30.6619 54.304L30.0739 58H28.9399ZM40.1589 58.126C39.5149 58.126 38.9549 58.0047 38.4789 57.762C38.0029 57.5193 37.6342 57.174 37.3729 56.726C37.1209 56.2687 36.9949 55.732 36.9949 55.116C36.9949 54.3787 37.1442 53.7067 37.4429 53.1C37.7416 52.484 38.1616 51.994 38.7029 51.63C39.2442 51.2567 39.8882 51.07 40.6349 51.07C41.3442 51.07 41.9042 51.2333 42.3149 51.56C42.7349 51.8867 43.0196 52.316 43.1689 52.848C43.3182 53.3707 43.3509 53.9353 43.2669 54.542L43.2249 54.836H37.8769L37.9889 54.094H42.5809L42.3289 54.276C42.3942 53.8373 42.3802 53.4407 42.2869 53.086C42.1936 52.7313 42.0116 52.4467 41.7409 52.232C41.4702 52.0173 41.0969 51.91 40.6209 51.91C40.1169 51.91 39.6969 52.0267 39.3609 52.26C39.0249 52.484 38.7589 52.7733 38.5629 53.128C38.3762 53.4827 38.2502 53.8513 38.1849 54.234L38.1289 54.57C38.0449 55.102 38.0729 55.5687 38.2129 55.97C38.3529 56.362 38.5909 56.67 38.9269 56.894C39.2722 57.1087 39.7016 57.216 40.2149 57.216C40.6442 57.216 41.0456 57.1553 41.4189 57.034C41.7922 56.9033 42.1282 56.7027 42.4269 56.432L42.8049 57.202C42.4876 57.5007 42.0909 57.7293 41.6149 57.888C41.1389 58.0467 40.6536 58.126 40.1589 58.126ZM47.9718 58L49.0638 51.196H50.1698L49.9038 52.764L49.7638 52.75C50.0158 52.1993 50.3518 51.784 50.7718 51.504C51.1918 51.2147 51.6678 51.07 52.1998 51.07C52.7411 51.07 53.1798 51.2147 53.5158 51.504C53.8611 51.7933 54.0711 52.2227 54.1458 52.792L53.9778 52.75C54.2018 52.218 54.5331 51.8073 54.9718 51.518C55.4104 51.2193 55.9284 51.07 56.5258 51.07C57.0018 51.07 57.4031 51.1727 57.7298 51.378C58.0564 51.574 58.2851 51.882 58.4158 52.302C58.5558 52.7127 58.5744 53.24 58.4718 53.884L57.8138 58H56.6798L57.3378 53.828C57.4031 53.4173 57.4031 53.0767 57.3378 52.806C57.2724 52.5353 57.1464 52.3347 56.9598 52.204C56.7731 52.064 56.5164 51.994 56.1898 51.994C55.8164 51.994 55.4804 52.0873 55.1818 52.274C54.8831 52.4607 54.6358 52.7267 54.4398 53.072C54.2531 53.4173 54.1224 53.828 54.0478 54.304L53.4598 58H52.3258L52.9838 53.828C53.0491 53.4173 53.0491 53.0767 52.9838 52.806C52.9278 52.5353 52.8064 52.3347 52.6198 52.204C52.4331 52.064 52.1764 51.994 51.8498 51.994C51.5604 51.994 51.2944 52.05 51.0518 52.162C50.8184 52.2647 50.6084 52.4187 50.4218 52.624C50.2444 52.82 50.0904 53.0627 49.9598 53.352C49.8384 53.632 49.7498 53.9493 49.6938 54.304L49.1058 58H47.9718ZM62.986 58.126C62.3793 58.126 61.852 58.0047 61.404 57.762C60.9653 57.5193 60.6247 57.174 60.382 56.726C60.1487 56.278 60.032 55.746 60.032 55.13C60.032 54.5513 60.116 54.0193 60.284 53.534C60.4613 53.0393 60.7087 52.6053 61.026 52.232C61.3433 51.8587 61.7167 51.574 62.146 51.378C62.5847 51.1727 63.0793 51.07 63.63 51.07C64.2367 51.07 64.7593 51.1913 65.198 51.434C65.646 51.6767 65.9867 52.022 66.22 52.47C66.4533 52.9087 66.57 53.4407 66.57 54.066C66.57 54.6447 66.486 55.1813 66.318 55.676C66.15 56.1613 65.9073 56.5907 65.59 56.964C65.2727 57.328 64.8947 57.6127 64.456 57.818C64.0173 58.0233 63.5273 58.126 62.986 58.126ZM63.028 57.216C63.5413 57.216 63.9753 57.0713 64.33 56.782C64.694 56.4927 64.9647 56.1053 65.142 55.62C65.3287 55.1347 65.422 54.6027 65.422 54.024C65.422 53.352 65.2587 52.8433 64.932 52.498C64.6147 52.1527 64.1667 51.98 63.588 51.98C63.0747 51.98 62.636 52.1247 62.272 52.414C61.9173 52.7033 61.6467 53.086 61.46 53.562C61.2733 54.038 61.18 54.5747 61.18 55.172C61.18 55.8347 61.3433 56.3433 61.67 56.698C61.9967 57.0433 62.4493 57.216 63.028 57.216ZM67.7133 58L68.8053 51.196H69.9113L69.6453 52.82H69.5053C69.6733 52.3253 69.9626 51.9193 70.3733 51.602C70.784 51.2847 71.3066 51.1027 71.9413 51.056L72.4873 51.014L72.5013 51.994L71.7173 52.064C71.2226 52.1107 70.8213 52.2273 70.5133 52.414C70.2053 52.5913 69.9673 52.834 69.7993 53.142C69.6406 53.45 69.524 53.8187 69.4493 54.248L68.8613 58H67.7133ZM75.9109 58.126C75.2669 58.126 74.7069 58.0047 74.2309 57.762C73.7549 57.5193 73.3862 57.174 73.1249 56.726C72.8729 56.2687 72.7469 55.732 72.7469 55.116C72.7469 54.3787 72.8962 53.7067 73.1949 53.1C73.4935 52.484 73.9135 51.994 74.4549 51.63C74.9962 51.2567 75.6402 51.07 76.3869 51.07C77.0962 51.07 77.6562 51.2333 78.0669 51.56C78.4869 51.8867 78.7715 52.316 78.9209 52.848C79.0702 53.3707 79.1029 53.9353 79.0189 54.542L78.9769 54.836H73.6289L73.7409 54.094H78.3329L78.0809 54.276C78.1462 53.8373 78.1322 53.4407 78.0389 53.086C77.9455 52.7313 77.7635 52.4467 77.4929 52.232C77.2222 52.0173 76.8489 51.91 76.3729 51.91C75.8689 51.91 75.4489 52.0267 75.1129 52.26C74.7769 52.484 74.5109 52.7733 74.3149 53.128C74.1282 53.4827 74.0022 53.8513 73.9369 54.234L73.8809 54.57C73.7969 55.102 73.8249 55.5687 73.9649 55.97C74.1049 56.362 74.3429 56.67 74.6789 56.894C75.0242 57.1087 75.4535 57.216 75.9669 57.216C76.3962 57.216 76.7975 57.1553 77.1709 57.034C77.5442 56.9033 77.8802 56.7027 78.1789 56.432L78.5569 57.202C78.2395 57.5007 77.8429 57.7293 77.3669 57.888C76.8909 58.0467 76.4055 58.126 75.9109 58.126ZM84.0877 60.52L85.7957 57.65L85.7257 58.14L83.8497 51.196H85.0117L86.5097 57.174H86.1177L89.5617 51.196H90.7937L85.2777 60.52H84.0877ZM93.8434 58.126C93.2368 58.126 92.7094 58.0047 92.2614 57.762C91.8228 57.5193 91.4821 57.174 91.2394 56.726C91.0061 56.278 90.8894 55.746 90.8894 55.13C90.8894 54.5513 90.9734 54.0193 91.1414 53.534C91.3188 53.0393 91.5661 52.6053 91.8834 52.232C92.2008 51.8587 92.5741 51.574 93.0034 51.378C93.4421 51.1727 93.9368 51.07 94.4874 51.07C95.0941 51.07 95.6168 51.1913 96.0554 51.434C96.5034 51.6767 96.8441 52.022 97.0774 52.47C97.3108 52.9087 97.4274 53.4407 97.4274 54.066C97.4274 54.6447 97.3434 55.1813 97.1754 55.676C97.0074 56.1613 96.7648 56.5907 96.4474 56.964C96.1301 57.328 95.7521 57.6127 95.3134 57.818C94.8748 58.0233 94.3848 58.126 93.8434 58.126ZM93.8854 57.216C94.3988 57.216 94.8328 57.0713 95.1874 56.782C95.5514 56.4927 95.8221 56.1053 95.9994 55.62C96.1861 55.1347 96.2794 54.6027 96.2794 54.024C96.2794 53.352 96.1161 52.8433 95.7894 52.498C95.4721 52.1527 95.0241 51.98 94.4454 51.98C93.9321 51.98 93.4934 52.1247 93.1294 52.414C92.7748 52.7033 92.5041 53.086 92.3174 53.562C92.1308 54.038 92.0374 54.5747 92.0374 55.172C92.0374 55.8347 92.2008 56.3433 92.5274 56.698C92.8541 57.0433 93.3068 57.216 93.8854 57.216ZM100.993 58.126C100.507 58.126 100.092 58.0233 99.7467 57.818C99.4107 57.6127 99.1727 57.3047 99.0327 56.894C98.8927 56.474 98.8741 55.942 98.9767 55.298L99.6207 51.196H100.755L100.111 55.298C100.045 55.718 100.045 56.068 100.111 56.348C100.176 56.628 100.311 56.838 100.517 56.978C100.722 57.118 100.993 57.188 101.329 57.188C101.767 57.188 102.145 57.0947 102.463 56.908C102.78 56.712 103.041 56.4413 103.247 56.096C103.452 55.7507 103.592 55.3447 103.667 54.878L104.241 51.196H105.375L104.297 58H103.191L103.429 56.46H103.569C103.354 56.9827 103.018 57.3933 102.561 57.692C102.113 57.9813 101.59 58.126 100.993 58.126ZM112.828 58.126C112.296 58.126 111.857 58.0233 111.512 57.818C111.176 57.6127 110.938 57.328 110.798 56.964C110.667 56.6 110.639 56.166 110.714 55.662L111.288 52.078H109.944L110.098 51.196H111.428L111.75 49.11H112.884L112.562 51.196H114.718L114.564 52.078H112.408L111.862 55.55C111.778 56.1193 111.839 56.53 112.044 56.782C112.249 57.034 112.581 57.16 113.038 57.16C113.197 57.16 113.346 57.146 113.486 57.118C113.626 57.0807 113.752 57.0433 113.864 57.006L113.976 57.888C113.855 57.9533 113.682 58.0093 113.458 58.056C113.243 58.1027 113.033 58.126 112.828 58.126ZM118.102 58.126C117.458 58.126 116.898 58.0047 116.422 57.762C115.946 57.5193 115.578 57.174 115.316 56.726C115.064 56.2687 114.938 55.732 114.938 55.116C114.938 54.3787 115.088 53.7067 115.386 53.1C115.685 52.484 116.105 51.994 116.646 51.63C117.188 51.2567 117.832 51.07 118.578 51.07C119.288 51.07 119.848 51.2333 120.258 51.56C120.678 51.8867 120.963 52.316 121.112 52.848C121.262 53.3707 121.294 53.9353 121.21 54.542L121.168 54.836H115.82L115.932 54.094H120.524L120.272 54.276C120.338 53.8373 120.324 53.4407 120.23 53.086C120.137 52.7313 119.955 52.4467 119.684 52.232C119.414 52.0173 119.04 51.91 118.564 51.91C118.06 51.91 117.64 52.0267 117.304 52.26C116.968 52.484 116.702 52.7733 116.506 53.128C116.32 53.4827 116.194 53.8513 116.128 54.234L116.072 54.57C115.988 55.102 116.016 55.5687 116.156 55.97C116.296 56.362 116.534 56.67 116.87 56.894C117.216 57.1087 117.645 57.216 118.158 57.216C118.588 57.216 118.989 57.1553 119.362 57.034C119.736 56.9033 120.072 56.7027 120.37 56.432L120.748 57.202C120.431 57.5007 120.034 57.7293 119.558 57.888C119.082 58.0467 118.597 58.126 118.102 58.126ZM124.391 58.126C123.719 58.126 123.229 57.93 122.921 57.538C122.613 57.1367 122.52 56.5487 122.641 55.774L123.859 48.13H124.993L123.775 55.774C123.729 56.1007 123.729 56.3667 123.775 56.572C123.822 56.7773 123.925 56.9267 124.083 57.02C124.251 57.1133 124.466 57.16 124.727 57.16C124.839 57.16 124.947 57.1553 125.049 57.146C125.161 57.1273 125.273 57.1087 125.385 57.09L125.217 58.014C125.096 58.0513 124.961 58.0793 124.811 58.098C124.671 58.1167 124.531 58.126 124.391 58.126ZM128.534 58.126C127.862 58.126 127.372 57.93 127.064 57.538C126.756 57.1367 126.663 56.5487 126.784 55.774L128.002 48.13H129.136L127.918 55.774C127.871 56.1007 127.871 56.3667 127.918 56.572C127.965 56.7773 128.067 56.9267 128.226 57.02C128.394 57.1133 128.609 57.16 128.87 57.16C128.982 57.16 129.089 57.1553 129.192 57.146C129.304 57.1273 129.416 57.1087 129.528 57.09L129.36 58.014C129.239 58.0513 129.103 58.0793 128.954 58.098C128.814 58.1167 128.674 58.126 128.534 58.126ZM136.594 58.126C136.109 58.126 135.694 58.0233 135.348 57.818C135.012 57.6127 134.774 57.3047 134.634 56.894C134.494 56.474 134.476 55.942 134.578 55.298L135.222 51.196H136.356L135.712 55.298C135.647 55.718 135.647 56.068 135.712 56.348C135.778 56.628 135.913 56.838 136.118 56.978C136.324 57.118 136.594 57.188 136.93 57.188C137.369 57.188 137.747 57.0947 138.064 56.908C138.382 56.712 138.643 56.4413 138.848 56.096C139.054 55.7507 139.194 55.3447 139.268 54.878L139.842 51.196H140.976L139.898 58H138.792L139.03 56.46H139.17C138.956 56.9827 138.62 57.3933 138.162 57.692C137.714 57.9813 137.192 58.126 136.594 58.126ZM144.624 58.126C144.073 58.126 143.56 58.0513 143.084 57.902C142.608 57.7527 142.221 57.5473 141.922 57.286L142.342 56.502C142.566 56.6793 142.799 56.824 143.042 56.936C143.294 57.0387 143.551 57.118 143.812 57.174C144.083 57.23 144.358 57.258 144.638 57.258C145.142 57.258 145.534 57.16 145.814 56.964C146.103 56.7587 146.248 56.474 146.248 56.11C146.248 55.8767 146.169 55.6853 146.01 55.536C145.861 55.3773 145.641 55.2653 145.352 55.2L144.022 54.878C143.555 54.766 143.187 54.5653 142.916 54.276C142.655 53.9773 142.524 53.6133 142.524 53.184C142.524 52.7827 142.636 52.4233 142.86 52.106C143.084 51.7793 143.406 51.5273 143.826 51.35C144.246 51.1633 144.741 51.07 145.31 51.07C145.618 51.07 145.921 51.1027 146.22 51.168C146.519 51.2333 146.794 51.3313 147.046 51.462C147.307 51.5927 147.522 51.7467 147.69 51.924L147.298 52.694C147.027 52.4327 146.719 52.2413 146.374 52.12C146.029 51.9987 145.66 51.938 145.268 51.938C144.745 51.938 144.335 52.0453 144.036 52.26C143.737 52.4747 143.588 52.764 143.588 53.128C143.588 53.352 143.658 53.548 143.798 53.716C143.938 53.8747 144.148 53.9867 144.428 54.052L145.758 54.374C146.253 54.4953 146.635 54.696 146.906 54.976C147.186 55.2467 147.326 55.6013 147.326 56.04C147.326 56.4693 147.214 56.8427 146.99 57.16C146.766 57.468 146.449 57.706 146.038 57.874C145.637 58.042 145.165 58.126 144.624 58.126ZM148.916 59.596L148.454 59.106C148.64 58.938 148.785 58.784 148.888 58.644C148.99 58.504 149.065 58.3593 149.112 58.21C149.158 58.07 149.196 57.9207 149.224 57.762L149.546 58H148.524L148.748 56.572H150.176L149.994 57.692C149.956 57.944 149.9 58.1773 149.826 58.392C149.751 58.6067 149.644 58.812 149.504 59.008C149.364 59.204 149.168 59.4 148.916 59.596ZM158.287 58.126C157.755 58.126 157.316 58.0233 156.971 57.818C156.635 57.6127 156.397 57.328 156.257 56.964C156.126 56.6 156.098 56.166 156.173 55.662L156.747 52.078H155.403L155.557 51.196H156.887L157.209 49.11H158.343L158.021 51.196H160.177L160.023 52.078H157.867L157.321 55.55C157.237 56.1193 157.298 56.53 157.503 56.782C157.708 57.034 158.04 57.16 158.497 57.16C158.656 57.16 158.805 57.146 158.945 57.118C159.085 57.0807 159.211 57.0433 159.323 57.006L159.435 57.888C159.314 57.9533 159.141 58.0093 158.917 58.056C158.702 58.1027 158.492 58.126 158.287 58.126ZM160.368 58L161.936 48.13H163.07L162.342 52.736H162.174C162.407 52.204 162.748 51.7933 163.196 51.504C163.653 51.2147 164.194 51.07 164.82 51.07C165.324 51.07 165.744 51.1727 166.08 51.378C166.425 51.574 166.668 51.882 166.808 52.302C166.957 52.7127 166.98 53.24 166.878 53.884L166.234 58H165.1L165.744 53.884C165.818 53.464 165.818 53.114 165.744 52.834C165.669 52.554 165.529 52.344 165.324 52.204C165.118 52.064 164.838 51.994 164.484 51.994C164.036 51.994 163.644 52.092 163.308 52.288C162.972 52.4747 162.701 52.7407 162.496 53.086C162.3 53.4313 162.164 53.8373 162.09 54.304L161.502 58H160.368ZM171.587 58.126C170.943 58.126 170.383 58.0047 169.907 57.762C169.431 57.5193 169.062 57.174 168.801 56.726C168.549 56.2687 168.423 55.732 168.423 55.116C168.423 54.3787 168.572 53.7067 168.871 53.1C169.169 52.484 169.589 51.994 170.131 51.63C170.672 51.2567 171.316 51.07 172.063 51.07C172.772 51.07 173.332 51.2333 173.743 51.56C174.163 51.8867 174.447 52.316 174.597 52.848C174.746 53.3707 174.779 53.9353 174.695 54.542L174.653 54.836H169.305L169.417 54.094H174.009L173.757 54.276C173.822 53.8373 173.808 53.4407 173.715 53.086C173.621 52.7313 173.439 52.4467 173.169 52.232C172.898 52.0173 172.525 51.91 172.049 51.91C171.545 51.91 171.125 52.0267 170.789 52.26C170.453 52.484 170.187 52.7733 169.991 53.128C169.804 53.4827 169.678 53.8513 169.613 54.234L169.557 54.57C169.473 55.102 169.501 55.5687 169.641 55.97C169.781 56.362 170.019 56.67 170.355 56.894C170.7 57.1087 171.129 57.216 171.643 57.216C172.072 57.216 172.473 57.1553 172.847 57.034C173.22 56.9033 173.556 56.7027 173.855 56.432L174.233 57.202C173.915 57.5007 173.519 57.7293 173.043 57.888C172.567 58.0467 172.081 58.126 171.587 58.126ZM182.984 58.126C182.442 58.126 181.957 57.9907 181.528 57.72C181.098 57.44 180.804 57.02 180.646 56.46H180.73L180.492 58H179.372L180.94 48.13H182.074L181.36 52.638H181.206C181.364 52.3113 181.57 52.0313 181.822 51.798C182.074 51.5647 182.363 51.3873 182.69 51.266C183.026 51.1353 183.385 51.07 183.768 51.07C184.3 51.07 184.762 51.1867 185.154 51.42C185.555 51.6533 185.863 51.9893 186.078 52.428C186.292 52.8667 186.4 53.3847 186.4 53.982C186.4 54.7287 186.264 55.4193 185.994 56.054C185.732 56.6793 185.345 57.1833 184.832 57.566C184.328 57.9393 183.712 58.126 182.984 58.126ZM182.844 57.216C183.366 57.216 183.805 57.0713 184.16 56.782C184.514 56.4927 184.785 56.1053 184.972 55.62C185.158 55.1347 185.252 54.6027 185.252 54.024C185.252 53.352 185.088 52.8433 184.762 52.498C184.435 52.1527 183.987 51.98 183.418 51.98C182.904 51.98 182.466 52.1247 182.102 52.414C181.747 52.7033 181.476 53.086 181.29 53.562C181.103 54.038 181.01 54.5747 181.01 55.172C181.01 55.8347 181.173 56.3433 181.5 56.698C181.826 57.0433 182.274 57.216 182.844 57.216ZM190.796 58.126C190.152 58.126 189.592 58.0047 189.116 57.762C188.64 57.5193 188.271 57.174 188.01 56.726C187.758 56.2687 187.632 55.732 187.632 55.116C187.632 54.3787 187.781 53.7067 188.08 53.1C188.378 52.484 188.798 51.994 189.34 51.63C189.881 51.2567 190.525 51.07 191.272 51.07C191.981 51.07 192.541 51.2333 192.952 51.56C193.372 51.8867 193.656 52.316 193.806 52.848C193.955 53.3707 193.988 53.9353 193.904 54.542L193.862 54.836H188.514L188.626 54.094H193.218L192.966 54.276C193.031 53.8373 193.017 53.4407 192.924 53.086C192.83 52.7313 192.648 52.4467 192.378 52.232C192.107 52.0173 191.734 51.91 191.258 51.91C190.754 51.91 190.334 52.0267 189.998 52.26C189.662 52.484 189.396 52.7733 189.2 53.128C189.013 53.4827 188.887 53.8513 188.822 54.234L188.766 54.57C188.682 55.102 188.71 55.5687 188.85 55.97C188.99 56.362 189.228 56.67 189.564 56.894C189.909 57.1087 190.338 57.216 190.852 57.216C191.281 57.216 191.682 57.1553 192.056 57.034C192.429 56.9033 192.765 56.7027 193.064 56.432L193.442 57.202C193.124 57.5007 192.728 57.7293 192.252 57.888C191.776 58.0467 191.29 58.126 190.796 58.126ZM197.799 58.126C197.267 58.126 196.828 58.0233 196.483 57.818C196.147 57.6127 195.909 57.328 195.769 56.964C195.638 56.6 195.61 56.166 195.685 55.662L196.259 52.078H194.915L195.069 51.196H196.399L196.721 49.11H197.855L197.533 51.196H199.689L199.535 52.078H197.379L196.833 55.55C196.749 56.1193 196.809 56.53 197.015 56.782C197.22 57.034 197.551 57.16 198.009 57.16C198.167 57.16 198.317 57.146 198.457 57.118C198.597 57.0807 198.723 57.0433 198.835 57.006L198.947 57.888C198.825 57.9533 198.653 58.0093 198.429 58.056C198.214 58.1027 198.004 58.126 197.799 58.126ZM202.516 58.126C201.984 58.126 201.545 58.0233 201.2 57.818C200.864 57.6127 200.626 57.328 200.486 56.964C200.355 56.6 200.327 56.166 200.402 55.662L200.976 52.078H199.632L199.786 51.196H201.116L201.438 49.11H202.572L202.25 51.196H204.406L204.252 52.078H202.096L201.55 55.55C201.466 56.1193 201.526 56.53 201.732 56.782C201.937 57.034 202.268 57.16 202.726 57.16C202.884 57.16 203.034 57.146 203.174 57.118C203.314 57.0807 203.44 57.0433 203.552 57.006L203.664 57.888C203.542 57.9533 203.37 58.0093 203.146 58.056C202.931 58.1027 202.721 58.126 202.516 58.126ZM207.79 58.126C207.146 58.126 206.586 58.0047 206.11 57.762C205.634 57.5193 205.265 57.174 205.004 56.726C204.752 56.2687 204.626 55.732 204.626 55.116C204.626 54.3787 204.775 53.7067 205.074 53.1C205.372 52.484 205.792 51.994 206.334 51.63C206.875 51.2567 207.519 51.07 208.266 51.07C208.975 51.07 209.535 51.2333 209.946 51.56C210.366 51.8867 210.65 52.316 210.8 52.848C210.949 53.3707 210.982 53.9353 210.898 54.542L210.856 54.836H205.508L205.62 54.094H210.212L209.96 54.276C210.025 53.8373 210.011 53.4407 209.918 53.086C209.824 52.7313 209.642 52.4467 209.372 52.232C209.101 52.0173 208.728 51.91 208.252 51.91C207.748 51.91 207.328 52.0267 206.992 52.26C206.656 52.484 206.39 52.7733 206.194 53.128C206.007 53.4827 205.881 53.8513 205.816 54.234L205.76 54.57C205.676 55.102 205.704 55.5687 205.844 55.97C205.984 56.362 206.222 56.67 206.558 56.894C206.903 57.1087 207.332 57.216 207.846 57.216C208.275 57.216 208.676 57.1553 209.05 57.034C209.423 56.9033 209.759 56.7027 210.058 56.432L210.436 57.202C210.118 57.5007 209.722 57.7293 209.246 57.888C208.77 58.0467 208.284 58.126 207.79 58.126ZM211.979 58L213.071 51.196H214.177L213.911 52.82H213.771C213.939 52.3253 214.228 51.9193 214.639 51.602C215.05 51.2847 215.572 51.1027 216.207 51.056L216.753 51.014L216.767 51.994L215.983 52.064C215.488 52.1107 215.087 52.2273 214.779 52.414C214.471 52.5913 214.233 52.834 214.065 53.142C213.906 53.45 213.79 53.8187 213.715 54.248L213.127 58H211.979ZM222.398 58L220.956 51.196H222.062L223.21 57.16H222.86L225.968 51.196H226.934L228.11 57.16H227.788L230.854 51.196H232.044L228.418 58H227.34L226.094 51.882H226.696L223.476 58H222.398ZM235.53 58.126C234.886 58.126 234.326 58.0047 233.85 57.762C233.374 57.5193 233.005 57.174 232.744 56.726C232.492 56.2687 232.366 55.732 232.366 55.116C232.366 54.3787 232.515 53.7067 232.814 53.1C233.113 52.484 233.533 51.994 234.074 51.63C234.615 51.2567 235.259 51.07 236.006 51.07C236.715 51.07 237.275 51.2333 237.686 51.56C238.106 51.8867 238.391 52.316 238.54 52.848C238.689 53.3707 238.722 53.9353 238.638 54.542L238.596 54.836H233.248L233.36 54.094H237.952L237.7 54.276C237.765 53.8373 237.751 53.4407 237.658 53.086C237.565 52.7313 237.383 52.4467 237.112 52.232C236.841 52.0173 236.468 51.91 235.992 51.91C235.488 51.91 235.068 52.0267 234.732 52.26C234.396 52.484 234.13 52.7733 233.934 53.128C233.747 53.4827 233.621 53.8513 233.556 54.234L233.5 54.57C233.416 55.102 233.444 55.5687 233.584 55.97C233.724 56.362 233.962 56.67 234.298 56.894C234.643 57.1087 235.073 57.216 235.586 57.216C236.015 57.216 236.417 57.1553 236.79 57.034C237.163 56.9033 237.499 56.7027 237.798 56.432L238.176 57.202C237.859 57.5007 237.462 57.7293 236.986 57.888C236.51 58.0467 236.025 58.126 235.53 58.126ZM246.409 58.126C245.737 58.126 245.182 58 244.743 57.748C244.304 57.496 243.973 57.1413 243.749 56.684C243.534 56.2267 243.427 55.6993 243.427 55.102C243.427 54.598 243.497 54.108 243.637 53.632C243.777 53.1467 243.996 52.7127 244.295 52.33C244.594 51.9473 244.972 51.644 245.429 51.42C245.886 51.1867 246.432 51.07 247.067 51.07C247.515 51.07 247.944 51.1447 248.355 51.294C248.766 51.4433 249.092 51.644 249.335 51.896L248.929 52.708C248.696 52.4747 248.425 52.2973 248.117 52.176C247.809 52.0547 247.473 51.994 247.109 51.994C246.652 51.994 246.264 52.0827 245.947 52.26C245.63 52.4373 245.368 52.6753 245.163 52.974C244.967 53.2727 244.822 53.6087 244.729 53.982C244.636 54.346 244.589 54.7147 244.589 55.088C244.589 55.7227 244.738 56.236 245.037 56.628C245.345 57.0107 245.849 57.202 246.549 57.202C246.838 57.202 247.137 57.146 247.445 57.034C247.762 56.9127 248.056 56.7307 248.327 56.488L248.663 57.328C248.486 57.496 248.271 57.6407 248.019 57.762C247.767 57.874 247.501 57.9627 247.221 58.028C246.95 58.0933 246.68 58.126 246.409 58.126ZM252.009 58.126C251.617 58.126 251.248 58.0373 250.903 57.86C250.567 57.6827 250.296 57.44 250.091 57.132C249.885 56.824 249.783 56.474 249.783 56.082C249.783 55.5967 249.913 55.2093 250.175 54.92C250.445 54.6213 250.865 54.402 251.435 54.262C252.004 54.122 252.737 54.052 253.633 54.052H254.753L254.641 54.794H253.787C253.068 54.794 252.499 54.8313 252.079 54.906C251.668 54.9807 251.374 55.1067 251.197 55.284C251.019 55.4613 250.931 55.704 250.931 56.012C250.931 56.4227 251.066 56.7353 251.337 56.95C251.617 57.1647 251.934 57.272 252.289 57.272C252.634 57.272 252.951 57.1973 253.241 57.048C253.539 56.8987 253.791 56.6793 253.997 56.39C254.202 56.0913 254.337 55.7413 254.403 55.34L254.669 53.632C254.762 53.0907 254.692 52.68 254.459 52.4C254.235 52.12 253.824 51.98 253.227 51.98C252.807 51.98 252.405 52.036 252.023 52.148C251.649 52.26 251.281 52.442 250.917 52.694L250.595 51.868C250.819 51.7 251.08 51.56 251.379 51.448C251.677 51.3267 251.995 51.2333 252.331 51.168C252.676 51.1027 253.017 51.07 253.353 51.07C253.987 51.07 254.491 51.1913 254.865 51.434C255.247 51.6673 255.509 51.9987 255.649 52.428C255.789 52.8573 255.812 53.3613 255.719 53.94L255.075 58H253.997L254.235 56.46H254.375C254.253 56.8333 254.067 57.146 253.815 57.398C253.572 57.6407 253.292 57.8227 252.975 57.944C252.657 58.0653 252.335 58.126 252.009 58.126ZM257.164 58L258.256 51.196H259.362L259.11 52.736H258.97C259.204 52.204 259.544 51.7933 259.992 51.504C260.45 51.2147 260.991 51.07 261.616 51.07C262.12 51.07 262.54 51.1727 262.876 51.378C263.222 51.574 263.464 51.882 263.604 52.302C263.754 52.7127 263.777 53.24 263.674 53.884L263.03 58H261.896L262.54 53.884C262.615 53.464 262.615 53.114 262.54 52.834C262.466 52.554 262.326 52.344 262.12 52.204C261.915 52.064 261.635 51.994 261.28 51.994C260.832 51.994 260.44 52.092 260.104 52.288C259.768 52.4747 259.498 52.7407 259.292 53.086C259.096 53.4313 258.961 53.8373 258.886 54.304L258.298 58H257.164ZM268.717 58L270.285 48.13H271.419L270.691 52.736H270.523C270.757 52.204 271.097 51.7933 271.545 51.504C272.003 51.2147 272.544 51.07 273.169 51.07C273.673 51.07 274.093 51.1727 274.429 51.378C274.775 51.574 275.017 51.882 275.157 52.302C275.307 52.7127 275.33 53.24 275.227 53.884L274.583 58H273.449L274.093 53.884C274.168 53.464 274.168 53.114 274.093 52.834C274.019 52.554 273.879 52.344 273.673 52.204C273.468 52.064 273.188 51.994 272.833 51.994C272.385 51.994 271.993 52.092 271.657 52.288C271.321 52.4747 271.051 52.7407 270.845 53.086C270.649 53.4313 270.514 53.8373 270.439 54.304L269.851 58H268.717ZM279.936 58.126C279.292 58.126 278.732 58.0047 278.256 57.762C277.78 57.5193 277.412 57.174 277.15 56.726C276.898 56.2687 276.772 55.732 276.772 55.116C276.772 54.3787 276.922 53.7067 277.22 53.1C277.519 52.484 277.939 51.994 278.48 51.63C279.022 51.2567 279.666 51.07 280.412 51.07C281.122 51.07 281.682 51.2333 282.092 51.56C282.512 51.8867 282.797 52.316 282.946 52.848C283.096 53.3707 283.128 53.9353 283.044 54.542L283.002 54.836H277.654L277.766 54.094H282.358L282.106 54.276C282.172 53.8373 282.158 53.4407 282.064 53.086C281.971 52.7313 281.789 52.4467 281.518 52.232C281.248 52.0173 280.874 51.91 280.398 51.91C279.894 51.91 279.474 52.0267 279.138 52.26C278.802 52.484 278.536 52.7733 278.34 53.128C278.154 53.4827 278.028 53.8513 277.962 54.234L277.906 54.57C277.822 55.102 277.85 55.5687 277.99 55.97C278.13 56.362 278.368 56.67 278.704 56.894C279.05 57.1087 279.479 57.216 279.992 57.216C280.422 57.216 280.823 57.1553 281.196 57.034C281.57 56.9033 281.906 56.7027 282.204 56.432L282.582 57.202C282.265 57.5007 281.868 57.7293 281.392 57.888C280.916 58.0467 280.431 58.126 279.936 58.126ZM286.225 58.126C285.553 58.126 285.063 57.93 284.755 57.538C284.447 57.1367 284.354 56.5487 284.475 55.774L285.693 48.13H286.827L285.609 55.774C285.563 56.1007 285.563 56.3667 285.609 56.572C285.656 56.7773 285.759 56.9267 285.917 57.02C286.085 57.1133 286.3 57.16 286.561 57.16C286.673 57.16 286.781 57.1553 286.883 57.146C286.995 57.1273 287.107 57.1087 287.219 57.09L287.051 58.014C286.93 58.0513 286.795 58.0793 286.645 58.098C286.505 58.1167 286.365 58.126 286.225 58.126ZM287.876 60.52L289.346 51.196H290.466L290.242 52.638H290.102C290.261 52.3113 290.466 52.0313 290.718 51.798C290.97 51.5647 291.259 51.3873 291.586 51.266C291.922 51.1353 292.281 51.07 292.664 51.07C293.196 51.07 293.658 51.1867 294.05 51.42C294.451 51.6533 294.759 51.9893 294.974 52.428C295.189 52.8667 295.296 53.3893 295.296 53.996C295.296 54.7427 295.161 55.4287 294.89 56.054C294.629 56.6793 294.241 57.1833 293.728 57.566C293.224 57.9393 292.608 58.126 291.88 58.126C291.339 58.126 290.853 57.9907 290.424 57.72C289.995 57.44 289.701 57.02 289.542 56.46H289.654L289.01 60.52H287.876ZM291.74 57.216C292.263 57.216 292.701 57.0713 293.056 56.782C293.411 56.4927 293.681 56.1053 293.868 55.62C294.055 55.1347 294.148 54.6027 294.148 54.024C294.148 53.352 293.985 52.8433 293.658 52.498C293.331 52.1527 292.883 51.98 292.314 51.98C291.801 51.98 291.362 52.1247 290.998 52.414C290.643 52.7033 290.373 53.086 290.186 53.562C289.999 54.038 289.906 54.5747 289.906 55.172C289.906 55.8347 290.069 56.3433 290.396 56.698C290.723 57.0433 291.171 57.216 291.74 57.216ZM300.418 60.52L302.126 57.65L302.056 58.14L300.18 51.196H301.342L302.84 57.174H302.448L305.892 51.196H307.124L301.608 60.52H300.418ZM310.174 58.126C309.567 58.126 309.04 58.0047 308.592 57.762C308.153 57.5193 307.812 57.174 307.57 56.726C307.336 56.278 307.22 55.746 307.22 55.13C307.22 54.5513 307.304 54.0193 307.472 53.534C307.649 53.0393 307.896 52.6053 308.214 52.232C308.531 51.8587 308.904 51.574 309.334 51.378C309.772 51.1727 310.267 51.07 310.818 51.07C311.424 51.07 311.947 51.1913 312.386 51.434C312.834 51.6767 313.174 52.022 313.408 52.47C313.641 52.9087 313.758 53.4407 313.758 54.066C313.758 54.6447 313.674 55.1813 313.506 55.676C313.338 56.1613 313.095 56.5907 312.778 56.964C312.46 57.328 312.082 57.6127 311.644 57.818C311.205 58.0233 310.715 58.126 310.174 58.126ZM310.216 57.216C310.729 57.216 311.163 57.0713 311.518 56.782C311.882 56.4927 312.152 56.1053 312.33 55.62C312.516 55.1347 312.61 54.6027 312.61 54.024C312.61 53.352 312.446 52.8433 312.12 52.498C311.802 52.1527 311.354 51.98 310.776 51.98C310.262 51.98 309.824 52.1247 309.46 52.414C309.105 52.7033 308.834 53.086 308.648 53.562C308.461 54.038 308.368 54.5747 308.368 55.172C308.368 55.8347 308.531 56.3433 308.858 56.698C309.184 57.0433 309.637 57.216 310.216 57.216ZM317.323 58.126C316.837 58.126 316.422 58.0233 316.077 57.818C315.741 57.6127 315.503 57.3047 315.363 56.894C315.223 56.474 315.204 55.942 315.307 55.298L315.951 51.196H317.085L316.441 55.298C316.375 55.718 316.375 56.068 316.441 56.348C316.506 56.628 316.641 56.838 316.847 56.978C317.052 57.118 317.323 57.188 317.659 57.188C318.097 57.188 318.475 57.0947 318.793 56.908C319.11 56.712 319.371 56.4413 319.577 56.096C319.782 55.7507 319.922 55.3447 319.997 54.878L320.571 51.196H321.705L320.627 58H319.521L319.759 56.46H319.899C319.684 56.9827 319.348 57.3933 318.891 57.692C318.443 57.9813 317.92 58.126 317.323 58.126ZM322.58 58L322.804 56.572H324.232L324.008 58H322.58Z" fill="#003366"/>
</svg>
