<svg width="960" height="68" viewBox="0 0 960 68" fill="none" xmlns="http://www.w3.org/2000/svg">
<g clip-path="url(#clip0_3346_13878)">
<path opacity="0.05" d="M256.011 67.2507H960C960 67.2507 943.614 22.2391 856.181 30.3833C768.747 38.5274 785.312 54.8803 727.087 41.4265C668.861 27.9727 626.619 4.73371 557.539 1.46036C488.46 -1.813 467.529 23.5691 450.761 28.3326C433.993 33.0962 394.056 24.838 344.28 35.6489C294.504 46.4598 256.011 67.2507 256.011 67.2507Z" fill="#003366"/>
<path opacity="0.05" d="M92.3965 67.2504L791.31 67.4317C791.31 67.4317 751.642 22.8441 692.815 12.8572C633.988 2.87037 599.847 61.1654 525.231 56.244C450.615 51.3226 429.456 7.26424 357.688 11.9633C285.92 16.6623 283.273 38.2411 237.322 46.1082C191.372 53.9754 175.068 26.251 132.712 33.6426C90.3555 41.0342 92.3965 67.2504 92.3965 67.2504Z" fill="#003366"/>
<path d="M21.848 32V15.08H33.104V17.528H24.8V22.184H32.576V24.632H24.8V29.552H33.104V32H21.848ZM40.322 32.24C39.298 32.24 38.394 31.992 37.61 31.496C36.842 31 36.242 30.296 35.81 29.384C35.378 28.456 35.162 27.368 35.162 26.12C35.162 24.856 35.378 23.776 35.81 22.88C36.242 21.968 36.842 21.264 37.61 20.768C38.394 20.272 39.298 20.024 40.322 20.024C41.298 20.024 42.146 20.264 42.866 20.744C43.602 21.224 44.098 21.856 44.354 22.64H44.09V15.08H47.09V32H44.162V29.504H44.378C44.138 30.336 43.65 31 42.914 31.496C42.178 31.992 41.314 32.24 40.322 32.24ZM41.162 29.96C42.058 29.96 42.778 29.64 43.322 29C43.866 28.344 44.138 27.384 44.138 26.12C44.138 24.84 43.866 23.888 43.322 23.264C42.778 22.624 42.058 22.304 41.162 22.304C40.266 22.304 39.546 22.624 39.002 23.264C38.458 23.888 38.186 24.84 38.186 26.12C38.186 27.384 38.458 28.344 39.002 29C39.546 29.64 40.266 29.96 41.162 29.96ZM54.4486 32.24C53.4726 32.24 52.6646 32.064 52.0246 31.712C51.3846 31.344 50.9046 30.8 50.5846 30.08C50.2806 29.36 50.1286 28.464 50.1286 27.392V20.264H53.1286V27.44C53.1286 27.984 53.2006 28.44 53.3446 28.808C53.5046 29.176 53.7366 29.448 54.0406 29.624C54.3606 29.8 54.7606 29.888 55.2406 29.888C55.7846 29.888 56.2566 29.768 56.6566 29.528C57.0726 29.272 57.3926 28.92 57.6166 28.472C57.8566 28.008 57.9766 27.472 57.9766 26.864V20.264H60.9766V32H58.0486V29.552H58.3846C58.0486 30.416 57.5366 31.08 56.8486 31.544C56.1766 32.008 55.3766 32.24 54.4486 32.24ZM69.5231 32.24C68.2911 32.24 67.2191 31.992 66.3071 31.496C65.3951 30.984 64.6911 30.264 64.1951 29.336C63.6991 28.408 63.4511 27.32 63.4511 26.072C63.4511 24.824 63.6991 23.752 64.1951 22.856C64.6911 21.944 65.3951 21.248 66.3071 20.768C67.2191 20.272 68.2911 20.024 69.5231 20.024C70.2751 20.024 71.0191 20.144 71.7551 20.384C72.4911 20.624 73.0991 20.96 73.5791 21.392L72.6911 23.48C72.2751 23.112 71.8031 22.832 71.2751 22.64C70.7631 22.448 70.2671 22.352 69.7871 22.352C68.7471 22.352 67.9391 22.68 67.3631 23.336C66.8031 23.976 66.5231 24.896 66.5231 26.096C66.5231 27.28 66.8031 28.216 67.3631 28.904C67.9391 29.576 68.7471 29.912 69.7871 29.912C70.2511 29.912 70.7471 29.816 71.2751 29.624C71.8031 29.432 72.2751 29.144 72.6911 28.76L73.5791 30.872C73.0991 31.288 72.4831 31.624 71.7311 31.88C70.9951 32.12 70.2591 32.24 69.5231 32.24ZM79.2131 32.24C78.3651 32.24 77.6051 32.08 76.9331 31.76C76.2771 31.424 75.7571 30.976 75.3731 30.416C75.0051 29.856 74.8211 29.224 74.8211 28.52C74.8211 27.656 75.0451 26.976 75.4931 26.48C75.9411 25.968 76.6691 25.6 77.6771 25.376C78.6851 25.152 80.0371 25.04 81.7331 25.04H82.9331V26.768H81.7571C81.0051 26.768 80.3731 26.8 79.8611 26.864C79.3491 26.912 78.9331 27 78.6131 27.128C78.3091 27.24 78.0851 27.4 77.9411 27.608C77.8131 27.816 77.7491 28.072 77.7491 28.376C77.7491 28.904 77.9331 29.336 78.3011 29.672C78.6691 30.008 79.1811 30.176 79.8371 30.176C80.3651 30.176 80.8291 30.056 81.2291 29.816C81.6451 29.56 81.9731 29.216 82.2131 28.784C82.4531 28.352 82.5731 27.856 82.5731 27.296V24.536C82.5731 23.736 82.3971 23.16 82.0451 22.808C81.6931 22.456 81.1011 22.28 80.2691 22.28C79.6131 22.28 78.9411 22.384 78.2531 22.592C77.5651 22.784 76.8691 23.088 76.1651 23.504L75.3011 21.464C75.7171 21.176 76.2051 20.928 76.7651 20.72C77.3411 20.496 77.9411 20.328 78.5651 20.216C79.2051 20.088 79.8051 20.024 80.3651 20.024C81.5171 20.024 82.4611 20.2 83.1971 20.552C83.9491 20.904 84.5091 21.44 84.8771 22.16C85.2451 22.864 85.4291 23.776 85.4291 24.896V32H82.6211V29.504H82.8131C82.7011 30.064 82.4771 30.552 82.1411 30.968C81.8211 31.368 81.4131 31.68 80.9171 31.904C80.4211 32.128 79.8531 32.24 79.2131 32.24ZM93.8501 32.24C92.2821 32.24 91.1141 31.848 90.3461 31.064C89.5781 30.28 89.1941 29.136 89.1941 27.632V22.52H86.9381V20.264H89.1941V16.76H92.1941V20.264H95.7461V22.52H92.1941V27.464C92.1941 28.232 92.3621 28.808 92.6981 29.192C93.0341 29.576 93.5781 29.768 94.3301 29.768C94.5541 29.768 94.7861 29.744 95.0261 29.696C95.2661 29.632 95.5141 29.568 95.7701 29.504L96.2261 31.712C95.9381 31.872 95.5701 32 95.1221 32.096C94.6901 32.192 94.2661 32.24 93.8501 32.24ZM97.493 17.744V14.816H100.853V17.744H97.493ZM97.685 32V20.264H100.685V32H97.685ZM109.154 32.24C107.938 32.24 106.882 31.992 105.986 31.496C105.09 31 104.394 30.296 103.898 29.384C103.402 28.456 103.154 27.368 103.154 26.12C103.154 24.872 103.402 23.792 103.898 22.88C104.394 21.968 105.09 21.264 105.986 20.768C106.882 20.272 107.938 20.024 109.154 20.024C110.37 20.024 111.426 20.272 112.322 20.768C113.218 21.264 113.914 21.968 114.41 22.88C114.906 23.792 115.154 24.872 115.154 26.12C115.154 27.368 114.906 28.456 114.41 29.384C113.914 30.296 113.218 31 112.322 31.496C111.426 31.992 110.37 32.24 109.154 32.24ZM109.154 29.96C110.05 29.96 110.77 29.64 111.314 29C111.858 28.344 112.13 27.384 112.13 26.12C112.13 24.84 111.858 23.888 111.314 23.264C110.77 22.624 110.05 22.304 109.154 22.304C108.258 22.304 107.538 22.624 106.994 23.264C106.45 23.888 106.178 24.84 106.178 26.12C106.178 27.384 106.45 28.344 106.994 29C107.538 29.64 108.258 29.96 109.154 29.96ZM117.63 32V20.264H120.558V22.616H120.294C120.646 21.768 121.19 21.128 121.926 20.696C122.678 20.248 123.526 20.024 124.47 20.024C125.414 20.024 126.19 20.2 126.798 20.552C127.406 20.904 127.862 21.44 128.166 22.16C128.47 22.864 128.622 23.76 128.622 24.848V32H125.622V24.992C125.622 24.384 125.542 23.888 125.382 23.504C125.238 23.12 125.006 22.84 124.686 22.664C124.382 22.472 123.99 22.376 123.51 22.376C122.934 22.376 122.43 22.504 121.998 22.76C121.566 23 121.23 23.352 120.99 23.816C120.75 24.264 120.63 24.792 120.63 25.4V32H117.63Z" fill="#003366"/>
<path d="M23.094 55L24.508 46.124H20.924L21.078 45.13H29.408L29.254 46.124H25.656L24.256 55H23.094ZM28.9399 55L30.5079 45.13H31.6419L30.9139 49.736H30.7459C30.9792 49.204 31.3199 48.7933 31.7679 48.504C32.2252 48.2147 32.7665 48.07 33.3919 48.07C33.8959 48.07 34.3159 48.1727 34.6519 48.378C34.9972 48.574 35.2399 48.882 35.3799 49.302C35.5292 49.7127 35.5525 50.24 35.4499 50.884L34.8059 55H33.6719L34.3159 50.884C34.3905 50.464 34.3905 50.114 34.3159 49.834C34.2412 49.554 34.1012 49.344 33.8959 49.204C33.6905 49.064 33.4105 48.994 33.0559 48.994C32.6079 48.994 32.2159 49.092 31.8799 49.288C31.5439 49.4747 31.2732 49.7407 31.0679 50.086C30.8719 50.4313 30.7365 50.8373 30.6619 51.304L30.0739 55H28.9399ZM40.1589 55.126C39.5149 55.126 38.9549 55.0047 38.4789 54.762C38.0029 54.5193 37.6342 54.174 37.3729 53.726C37.1209 53.2687 36.9949 52.732 36.9949 52.116C36.9949 51.3787 37.1442 50.7067 37.4429 50.1C37.7416 49.484 38.1616 48.994 38.7029 48.63C39.2442 48.2567 39.8882 48.07 40.6349 48.07C41.3442 48.07 41.9042 48.2333 42.3149 48.56C42.7349 48.8867 43.0196 49.316 43.1689 49.848C43.3182 50.3707 43.3509 50.9353 43.2669 51.542L43.2249 51.836H37.8769L37.9889 51.094H42.5809L42.3289 51.276C42.3942 50.8373 42.3802 50.4407 42.2869 50.086C42.1936 49.7313 42.0116 49.4467 41.7409 49.232C41.4702 49.0173 41.0969 48.91 40.6209 48.91C40.1169 48.91 39.6969 49.0267 39.3609 49.26C39.0249 49.484 38.7589 49.7733 38.5629 50.128C38.3762 50.4827 38.2502 50.8513 38.1849 51.234L38.1289 51.57C38.0449 52.102 38.0729 52.5687 38.2129 52.97C38.3529 53.362 38.5909 53.67 38.9269 53.894C39.2722 54.1087 39.7016 54.216 40.2149 54.216C40.6442 54.216 41.0456 54.1553 41.4189 54.034C41.7922 53.9033 42.1282 53.7027 42.4269 53.432L42.8049 54.202C42.4876 54.5007 42.0909 54.7293 41.6149 54.888C41.1389 55.0467 40.6536 55.126 40.1589 55.126ZM47.9718 55L49.0638 48.196H50.1698L49.9038 49.764L49.7638 49.75C50.0158 49.1993 50.3518 48.784 50.7718 48.504C51.1918 48.2147 51.6678 48.07 52.1998 48.07C52.7411 48.07 53.1798 48.2147 53.5158 48.504C53.8611 48.7933 54.0711 49.2227 54.1458 49.792L53.9778 49.75C54.2018 49.218 54.5331 48.8073 54.9718 48.518C55.4104 48.2193 55.9284 48.07 56.5258 48.07C57.0018 48.07 57.4031 48.1727 57.7298 48.378C58.0564 48.574 58.2851 48.882 58.4158 49.302C58.5558 49.7127 58.5744 50.24 58.4718 50.884L57.8138 55H56.6798L57.3378 50.828C57.4031 50.4173 57.4031 50.0767 57.3378 49.806C57.2724 49.5353 57.1464 49.3347 56.9598 49.204C56.7731 49.064 56.5164 48.994 56.1898 48.994C55.8164 48.994 55.4804 49.0873 55.1818 49.274C54.8831 49.4607 54.6358 49.7267 54.4398 50.072C54.2531 50.4173 54.1224 50.828 54.0478 51.304L53.4598 55H52.3258L52.9838 50.828C53.0491 50.4173 53.0491 50.0767 52.9838 49.806C52.9278 49.5353 52.8064 49.3347 52.6198 49.204C52.4331 49.064 52.1764 48.994 51.8498 48.994C51.5604 48.994 51.2944 49.05 51.0518 49.162C50.8184 49.2647 50.6084 49.4187 50.4218 49.624C50.2444 49.82 50.0904 50.0627 49.9598 50.352C49.8384 50.632 49.7498 50.9493 49.6938 51.304L49.1058 55H47.9718ZM62.986 55.126C62.3793 55.126 61.852 55.0047 61.404 54.762C60.9653 54.5193 60.6247 54.174 60.382 53.726C60.1487 53.278 60.032 52.746 60.032 52.13C60.032 51.5513 60.116 51.0193 60.284 50.534C60.4613 50.0393 60.7087 49.6053 61.026 49.232C61.3433 48.8587 61.7167 48.574 62.146 48.378C62.5847 48.1727 63.0793 48.07 63.63 48.07C64.2367 48.07 64.7593 48.1913 65.198 48.434C65.646 48.6767 65.9867 49.022 66.22 49.47C66.4533 49.9087 66.57 50.4407 66.57 51.066C66.57 51.6447 66.486 52.1813 66.318 52.676C66.15 53.1613 65.9073 53.5907 65.59 53.964C65.2727 54.328 64.8947 54.6127 64.456 54.818C64.0173 55.0233 63.5273 55.126 62.986 55.126ZM63.028 54.216C63.5413 54.216 63.9753 54.0713 64.33 53.782C64.694 53.4927 64.9647 53.1053 65.142 52.62C65.3287 52.1347 65.422 51.6027 65.422 51.024C65.422 50.352 65.2587 49.8433 64.932 49.498C64.6147 49.1527 64.1667 48.98 63.588 48.98C63.0747 48.98 62.636 49.1247 62.272 49.414C61.9173 49.7033 61.6467 50.086 61.46 50.562C61.2733 51.038 61.18 51.5747 61.18 52.172C61.18 52.8347 61.3433 53.3433 61.67 53.698C61.9967 54.0433 62.4493 54.216 63.028 54.216ZM67.7133 55L68.8053 48.196H69.9113L69.6453 49.82H69.5053C69.6733 49.3253 69.9626 48.9193 70.3733 48.602C70.784 48.2847 71.3066 48.1027 71.9413 48.056L72.4873 48.014L72.5013 48.994L71.7173 49.064C71.2226 49.1107 70.8213 49.2273 70.5133 49.414C70.2053 49.5913 69.9673 49.834 69.7993 50.142C69.6406 50.45 69.524 50.8187 69.4493 51.248L68.8613 55H67.7133ZM75.9109 55.126C75.2669 55.126 74.7069 55.0047 74.2309 54.762C73.7549 54.5193 73.3862 54.174 73.1249 53.726C72.8729 53.2687 72.7469 52.732 72.7469 52.116C72.7469 51.3787 72.8962 50.7067 73.1949 50.1C73.4935 49.484 73.9135 48.994 74.4549 48.63C74.9962 48.2567 75.6402 48.07 76.3869 48.07C77.0962 48.07 77.6562 48.2333 78.0669 48.56C78.4869 48.8867 78.7715 49.316 78.9209 49.848C79.0702 50.3707 79.1029 50.9353 79.0189 51.542L78.9769 51.836H73.6289L73.7409 51.094H78.3329L78.0809 51.276C78.1462 50.8373 78.1322 50.4407 78.0389 50.086C77.9455 49.7313 77.7635 49.4467 77.4929 49.232C77.2222 49.0173 76.8489 48.91 76.3729 48.91C75.8689 48.91 75.4489 49.0267 75.1129 49.26C74.7769 49.484 74.5109 49.7733 74.3149 50.128C74.1282 50.4827 74.0022 50.8513 73.9369 51.234L73.8809 51.57C73.7969 52.102 73.8249 52.5687 73.9649 52.97C74.1049 53.362 74.3429 53.67 74.6789 53.894C75.0242 54.1087 75.4535 54.216 75.9669 54.216C76.3962 54.216 76.7975 54.1553 77.1709 54.034C77.5442 53.9033 77.8802 53.7027 78.1789 53.432L78.5569 54.202C78.2395 54.5007 77.8429 54.7293 77.3669 54.888C76.8909 55.0467 76.4055 55.126 75.9109 55.126ZM84.0877 57.52L85.7957 54.65L85.7257 55.14L83.8497 48.196H85.0117L86.5097 54.174H86.1177L89.5617 48.196H90.7937L85.2777 57.52H84.0877ZM93.8434 55.126C93.2368 55.126 92.7094 55.0047 92.2614 54.762C91.8228 54.5193 91.4821 54.174 91.2394 53.726C91.0061 53.278 90.8894 52.746 90.8894 52.13C90.8894 51.5513 90.9734 51.0193 91.1414 50.534C91.3188 50.0393 91.5661 49.6053 91.8834 49.232C92.2008 48.8587 92.5741 48.574 93.0034 48.378C93.4421 48.1727 93.9368 48.07 94.4874 48.07C95.0941 48.07 95.6168 48.1913 96.0554 48.434C96.5034 48.6767 96.8441 49.022 97.0774 49.47C97.3108 49.9087 97.4274 50.4407 97.4274 51.066C97.4274 51.6447 97.3434 52.1813 97.1754 52.676C97.0074 53.1613 96.7648 53.5907 96.4474 53.964C96.1301 54.328 95.7521 54.6127 95.3134 54.818C94.8748 55.0233 94.3848 55.126 93.8434 55.126ZM93.8854 54.216C94.3988 54.216 94.8328 54.0713 95.1874 53.782C95.5514 53.4927 95.8221 53.1053 95.9994 52.62C96.1861 52.1347 96.2794 51.6027 96.2794 51.024C96.2794 50.352 96.1161 49.8433 95.7894 49.498C95.4721 49.1527 95.0241 48.98 94.4454 48.98C93.9321 48.98 93.4934 49.1247 93.1294 49.414C92.7748 49.7033 92.5041 50.086 92.3174 50.562C92.1308 51.038 92.0374 51.5747 92.0374 52.172C92.0374 52.8347 92.2008 53.3433 92.5274 53.698C92.8541 54.0433 93.3068 54.216 93.8854 54.216ZM100.993 55.126C100.507 55.126 100.092 55.0233 99.7467 54.818C99.4107 54.6127 99.1727 54.3047 99.0327 53.894C98.8927 53.474 98.8741 52.942 98.9767 52.298L99.6207 48.196H100.755L100.111 52.298C100.045 52.718 100.045 53.068 100.111 53.348C100.176 53.628 100.311 53.838 100.517 53.978C100.722 54.118 100.993 54.188 101.329 54.188C101.767 54.188 102.145 54.0947 102.463 53.908C102.78 53.712 103.041 53.4413 103.247 53.096C103.452 52.7507 103.592 52.3447 103.667 51.878L104.241 48.196H105.375L104.297 55H103.191L103.429 53.46H103.569C103.354 53.9827 103.018 54.3933 102.561 54.692C102.113 54.9813 101.59 55.126 100.993 55.126ZM112.828 55.126C112.296 55.126 111.857 55.0233 111.512 54.818C111.176 54.6127 110.938 54.328 110.798 53.964C110.667 53.6 110.639 53.166 110.714 52.662L111.288 49.078H109.944L110.098 48.196H111.428L111.75 46.11H112.884L112.562 48.196H114.718L114.564 49.078H112.408L111.862 52.55C111.778 53.1193 111.839 53.53 112.044 53.782C112.249 54.034 112.581 54.16 113.038 54.16C113.197 54.16 113.346 54.146 113.486 54.118C113.626 54.0807 113.752 54.0433 113.864 54.006L113.976 54.888C113.855 54.9533 113.682 55.0093 113.458 55.056C113.243 55.1027 113.033 55.126 112.828 55.126ZM118.102 55.126C117.458 55.126 116.898 55.0047 116.422 54.762C115.946 54.5193 115.578 54.174 115.316 53.726C115.064 53.2687 114.938 52.732 114.938 52.116C114.938 51.3787 115.088 50.7067 115.386 50.1C115.685 49.484 116.105 48.994 116.646 48.63C117.188 48.2567 117.832 48.07 118.578 48.07C119.288 48.07 119.848 48.2333 120.258 48.56C120.678 48.8867 120.963 49.316 121.112 49.848C121.262 50.3707 121.294 50.9353 121.21 51.542L121.168 51.836H115.82L115.932 51.094H120.524L120.272 51.276C120.338 50.8373 120.324 50.4407 120.23 50.086C120.137 49.7313 119.955 49.4467 119.684 49.232C119.414 49.0173 119.04 48.91 118.564 48.91C118.06 48.91 117.64 49.0267 117.304 49.26C116.968 49.484 116.702 49.7733 116.506 50.128C116.32 50.4827 116.194 50.8513 116.128 51.234L116.072 51.57C115.988 52.102 116.016 52.5687 116.156 52.97C116.296 53.362 116.534 53.67 116.87 53.894C117.216 54.1087 117.645 54.216 118.158 54.216C118.588 54.216 118.989 54.1553 119.362 54.034C119.736 53.9033 120.072 53.7027 120.37 53.432L120.748 54.202C120.431 54.5007 120.034 54.7293 119.558 54.888C119.082 55.0467 118.597 55.126 118.102 55.126ZM124.391 55.126C123.719 55.126 123.229 54.93 122.921 54.538C122.613 54.1367 122.52 53.5487 122.641 52.774L123.859 45.13H124.993L123.775 52.774C123.729 53.1007 123.729 53.3667 123.775 53.572C123.822 53.7773 123.925 53.9267 124.083 54.02C124.251 54.1133 124.466 54.16 124.727 54.16C124.839 54.16 124.947 54.1553 125.049 54.146C125.161 54.1273 125.273 54.1087 125.385 54.09L125.217 55.014C125.096 55.0513 124.961 55.0793 124.811 55.098C124.671 55.1167 124.531 55.126 124.391 55.126ZM128.534 55.126C127.862 55.126 127.372 54.93 127.064 54.538C126.756 54.1367 126.663 53.5487 126.784 52.774L128.002 45.13H129.136L127.918 52.774C127.871 53.1007 127.871 53.3667 127.918 53.572C127.965 53.7773 128.067 53.9267 128.226 54.02C128.394 54.1133 128.609 54.16 128.87 54.16C128.982 54.16 129.089 54.1553 129.192 54.146C129.304 54.1273 129.416 54.1087 129.528 54.09L129.36 55.014C129.239 55.0513 129.103 55.0793 128.954 55.098C128.814 55.1167 128.674 55.126 128.534 55.126ZM136.594 55.126C136.109 55.126 135.694 55.0233 135.348 54.818C135.012 54.6127 134.774 54.3047 134.634 53.894C134.494 53.474 134.476 52.942 134.578 52.298L135.222 48.196H136.356L135.712 52.298C135.647 52.718 135.647 53.068 135.712 53.348C135.778 53.628 135.913 53.838 136.118 53.978C136.324 54.118 136.594 54.188 136.93 54.188C137.369 54.188 137.747 54.0947 138.064 53.908C138.382 53.712 138.643 53.4413 138.848 53.096C139.054 52.7507 139.194 52.3447 139.268 51.878L139.842 48.196H140.976L139.898 55H138.792L139.03 53.46H139.17C138.956 53.9827 138.62 54.3933 138.162 54.692C137.714 54.9813 137.192 55.126 136.594 55.126ZM144.624 55.126C144.073 55.126 143.56 55.0513 143.084 54.902C142.608 54.7527 142.221 54.5473 141.922 54.286L142.342 53.502C142.566 53.6793 142.799 53.824 143.042 53.936C143.294 54.0387 143.551 54.118 143.812 54.174C144.083 54.23 144.358 54.258 144.638 54.258C145.142 54.258 145.534 54.16 145.814 53.964C146.103 53.7587 146.248 53.474 146.248 53.11C146.248 52.8767 146.169 52.6853 146.01 52.536C145.861 52.3773 145.641 52.2653 145.352 52.2L144.022 51.878C143.555 51.766 143.187 51.5653 142.916 51.276C142.655 50.9773 142.524 50.6133 142.524 50.184C142.524 49.7827 142.636 49.4233 142.86 49.106C143.084 48.7793 143.406 48.5273 143.826 48.35C144.246 48.1633 144.741 48.07 145.31 48.07C145.618 48.07 145.921 48.1027 146.22 48.168C146.519 48.2333 146.794 48.3313 147.046 48.462C147.307 48.5927 147.522 48.7467 147.69 48.924L147.298 49.694C147.027 49.4327 146.719 49.2413 146.374 49.12C146.029 48.9987 145.66 48.938 145.268 48.938C144.745 48.938 144.335 49.0453 144.036 49.26C143.737 49.4747 143.588 49.764 143.588 50.128C143.588 50.352 143.658 50.548 143.798 50.716C143.938 50.8747 144.148 50.9867 144.428 51.052L145.758 51.374C146.253 51.4953 146.635 51.696 146.906 51.976C147.186 52.2467 147.326 52.6013 147.326 53.04C147.326 53.4693 147.214 53.8427 146.99 54.16C146.766 54.468 146.449 54.706 146.038 54.874C145.637 55.042 145.165 55.126 144.624 55.126ZM148.916 56.596L148.454 56.106C148.64 55.938 148.785 55.784 148.888 55.644C148.99 55.504 149.065 55.3593 149.112 55.21C149.158 55.07 149.196 54.9207 149.224 54.762L149.546 55H148.524L148.748 53.572H150.176L149.994 54.692C149.956 54.944 149.9 55.1773 149.826 55.392C149.751 55.6067 149.644 55.812 149.504 56.008C149.364 56.204 149.168 56.4 148.916 56.596ZM158.287 55.126C157.755 55.126 157.316 55.0233 156.971 54.818C156.635 54.6127 156.397 54.328 156.257 53.964C156.126 53.6 156.098 53.166 156.173 52.662L156.747 49.078H155.403L155.557 48.196H156.887L157.209 46.11H158.343L158.021 48.196H160.177L160.023 49.078H157.867L157.321 52.55C157.237 53.1193 157.298 53.53 157.503 53.782C157.708 54.034 158.04 54.16 158.497 54.16C158.656 54.16 158.805 54.146 158.945 54.118C159.085 54.0807 159.211 54.0433 159.323 54.006L159.435 54.888C159.314 54.9533 159.141 55.0093 158.917 55.056C158.702 55.1027 158.492 55.126 158.287 55.126ZM160.368 55L161.936 45.13H163.07L162.342 49.736H162.174C162.407 49.204 162.748 48.7933 163.196 48.504C163.653 48.2147 164.194 48.07 164.82 48.07C165.324 48.07 165.744 48.1727 166.08 48.378C166.425 48.574 166.668 48.882 166.808 49.302C166.957 49.7127 166.98 50.24 166.878 50.884L166.234 55H165.1L165.744 50.884C165.818 50.464 165.818 50.114 165.744 49.834C165.669 49.554 165.529 49.344 165.324 49.204C165.118 49.064 164.838 48.994 164.484 48.994C164.036 48.994 163.644 49.092 163.308 49.288C162.972 49.4747 162.701 49.7407 162.496 50.086C162.3 50.4313 162.164 50.8373 162.09 51.304L161.502 55H160.368ZM171.587 55.126C170.943 55.126 170.383 55.0047 169.907 54.762C169.431 54.5193 169.062 54.174 168.801 53.726C168.549 53.2687 168.423 52.732 168.423 52.116C168.423 51.3787 168.572 50.7067 168.871 50.1C169.169 49.484 169.589 48.994 170.131 48.63C170.672 48.2567 171.316 48.07 172.063 48.07C172.772 48.07 173.332 48.2333 173.743 48.56C174.163 48.8867 174.447 49.316 174.597 49.848C174.746 50.3707 174.779 50.9353 174.695 51.542L174.653 51.836H169.305L169.417 51.094H174.009L173.757 51.276C173.822 50.8373 173.808 50.4407 173.715 50.086C173.621 49.7313 173.439 49.4467 173.169 49.232C172.898 49.0173 172.525 48.91 172.049 48.91C171.545 48.91 171.125 49.0267 170.789 49.26C170.453 49.484 170.187 49.7733 169.991 50.128C169.804 50.4827 169.678 50.8513 169.613 51.234L169.557 51.57C169.473 52.102 169.501 52.5687 169.641 52.97C169.781 53.362 170.019 53.67 170.355 53.894C170.7 54.1087 171.129 54.216 171.643 54.216C172.072 54.216 172.473 54.1553 172.847 54.034C173.22 53.9033 173.556 53.7027 173.855 53.432L174.233 54.202C173.915 54.5007 173.519 54.7293 173.043 54.888C172.567 55.0467 172.081 55.126 171.587 55.126ZM182.984 55.126C182.442 55.126 181.957 54.9907 181.528 54.72C181.098 54.44 180.804 54.02 180.646 53.46H180.73L180.492 55H179.372L180.94 45.13H182.074L181.36 49.638H181.206C181.364 49.3113 181.57 49.0313 181.822 48.798C182.074 48.5647 182.363 48.3873 182.69 48.266C183.026 48.1353 183.385 48.07 183.768 48.07C184.3 48.07 184.762 48.1867 185.154 48.42C185.555 48.6533 185.863 48.9893 186.078 49.428C186.292 49.8667 186.4 50.3847 186.4 50.982C186.4 51.7287 186.264 52.4193 185.994 53.054C185.732 53.6793 185.345 54.1833 184.832 54.566C184.328 54.9393 183.712 55.126 182.984 55.126ZM182.844 54.216C183.366 54.216 183.805 54.0713 184.16 53.782C184.514 53.4927 184.785 53.1053 184.972 52.62C185.158 52.1347 185.252 51.6027 185.252 51.024C185.252 50.352 185.088 49.8433 184.762 49.498C184.435 49.1527 183.987 48.98 183.418 48.98C182.904 48.98 182.466 49.1247 182.102 49.414C181.747 49.7033 181.476 50.086 181.29 50.562C181.103 51.038 181.01 51.5747 181.01 52.172C181.01 52.8347 181.173 53.3433 181.5 53.698C181.826 54.0433 182.274 54.216 182.844 54.216ZM190.796 55.126C190.152 55.126 189.592 55.0047 189.116 54.762C188.64 54.5193 188.271 54.174 188.01 53.726C187.758 53.2687 187.632 52.732 187.632 52.116C187.632 51.3787 187.781 50.7067 188.08 50.1C188.378 49.484 188.798 48.994 189.34 48.63C189.881 48.2567 190.525 48.07 191.272 48.07C191.981 48.07 192.541 48.2333 192.952 48.56C193.372 48.8867 193.656 49.316 193.806 49.848C193.955 50.3707 193.988 50.9353 193.904 51.542L193.862 51.836H188.514L188.626 51.094H193.218L192.966 51.276C193.031 50.8373 193.017 50.4407 192.924 50.086C192.83 49.7313 192.648 49.4467 192.378 49.232C192.107 49.0173 191.734 48.91 191.258 48.91C190.754 48.91 190.334 49.0267 189.998 49.26C189.662 49.484 189.396 49.7733 189.2 50.128C189.013 50.4827 188.887 50.8513 188.822 51.234L188.766 51.57C188.682 52.102 188.71 52.5687 188.85 52.97C188.99 53.362 189.228 53.67 189.564 53.894C189.909 54.1087 190.338 54.216 190.852 54.216C191.281 54.216 191.682 54.1553 192.056 54.034C192.429 53.9033 192.765 53.7027 193.064 53.432L193.442 54.202C193.124 54.5007 192.728 54.7293 192.252 54.888C191.776 55.0467 191.29 55.126 190.796 55.126ZM197.799 55.126C197.267 55.126 196.828 55.0233 196.483 54.818C196.147 54.6127 195.909 54.328 195.769 53.964C195.638 53.6 195.61 53.166 195.685 52.662L196.259 49.078H194.915L195.069 48.196H196.399L196.721 46.11H197.855L197.533 48.196H199.689L199.535 49.078H197.379L196.833 52.55C196.749 53.1193 196.809 53.53 197.015 53.782C197.22 54.034 197.551 54.16 198.009 54.16C198.167 54.16 198.317 54.146 198.457 54.118C198.597 54.0807 198.723 54.0433 198.835 54.006L198.947 54.888C198.825 54.9533 198.653 55.0093 198.429 55.056C198.214 55.1027 198.004 55.126 197.799 55.126ZM202.516 55.126C201.984 55.126 201.545 55.0233 201.2 54.818C200.864 54.6127 200.626 54.328 200.486 53.964C200.355 53.6 200.327 53.166 200.402 52.662L200.976 49.078H199.632L199.786 48.196H201.116L201.438 46.11H202.572L202.25 48.196H204.406L204.252 49.078H202.096L201.55 52.55C201.466 53.1193 201.526 53.53 201.732 53.782C201.937 54.034 202.268 54.16 202.726 54.16C202.884 54.16 203.034 54.146 203.174 54.118C203.314 54.0807 203.44 54.0433 203.552 54.006L203.664 54.888C203.542 54.9533 203.37 55.0093 203.146 55.056C202.931 55.1027 202.721 55.126 202.516 55.126ZM207.79 55.126C207.146 55.126 206.586 55.0047 206.11 54.762C205.634 54.5193 205.265 54.174 205.004 53.726C204.752 53.2687 204.626 52.732 204.626 52.116C204.626 51.3787 204.775 50.7067 205.074 50.1C205.372 49.484 205.792 48.994 206.334 48.63C206.875 48.2567 207.519 48.07 208.266 48.07C208.975 48.07 209.535 48.2333 209.946 48.56C210.366 48.8867 210.65 49.316 210.8 49.848C210.949 50.3707 210.982 50.9353 210.898 51.542L210.856 51.836H205.508L205.62 51.094H210.212L209.96 51.276C210.025 50.8373 210.011 50.4407 209.918 50.086C209.824 49.7313 209.642 49.4467 209.372 49.232C209.101 49.0173 208.728 48.91 208.252 48.91C207.748 48.91 207.328 49.0267 206.992 49.26C206.656 49.484 206.39 49.7733 206.194 50.128C206.007 50.4827 205.881 50.8513 205.816 51.234L205.76 51.57C205.676 52.102 205.704 52.5687 205.844 52.97C205.984 53.362 206.222 53.67 206.558 53.894C206.903 54.1087 207.332 54.216 207.846 54.216C208.275 54.216 208.676 54.1553 209.05 54.034C209.423 53.9033 209.759 53.7027 210.058 53.432L210.436 54.202C210.118 54.5007 209.722 54.7293 209.246 54.888C208.77 55.0467 208.284 55.126 207.79 55.126ZM211.979 55L213.071 48.196H214.177L213.911 49.82H213.771C213.939 49.3253 214.228 48.9193 214.639 48.602C215.05 48.2847 215.572 48.1027 216.207 48.056L216.753 48.014L216.767 48.994L215.983 49.064C215.488 49.1107 215.087 49.2273 214.779 49.414C214.471 49.5913 214.233 49.834 214.065 50.142C213.906 50.45 213.79 50.8187 213.715 51.248L213.127 55H211.979ZM222.398 55L220.956 48.196H222.062L223.21 54.16H222.86L225.968 48.196H226.934L228.11 54.16H227.788L230.854 48.196H232.044L228.418 55H227.34L226.094 48.882H226.696L223.476 55H222.398ZM235.53 55.126C234.886 55.126 234.326 55.0047 233.85 54.762C233.374 54.5193 233.005 54.174 232.744 53.726C232.492 53.2687 232.366 52.732 232.366 52.116C232.366 51.3787 232.515 50.7067 232.814 50.1C233.113 49.484 233.533 48.994 234.074 48.63C234.615 48.2567 235.259 48.07 236.006 48.07C236.715 48.07 237.275 48.2333 237.686 48.56C238.106 48.8867 238.391 49.316 238.54 49.848C238.689 50.3707 238.722 50.9353 238.638 51.542L238.596 51.836H233.248L233.36 51.094H237.952L237.7 51.276C237.765 50.8373 237.751 50.4407 237.658 50.086C237.565 49.7313 237.383 49.4467 237.112 49.232C236.841 49.0173 236.468 48.91 235.992 48.91C235.488 48.91 235.068 49.0267 234.732 49.26C234.396 49.484 234.13 49.7733 233.934 50.128C233.747 50.4827 233.621 50.8513 233.556 51.234L233.5 51.57C233.416 52.102 233.444 52.5687 233.584 52.97C233.724 53.362 233.962 53.67 234.298 53.894C234.643 54.1087 235.073 54.216 235.586 54.216C236.015 54.216 236.417 54.1553 236.79 54.034C237.163 53.9033 237.499 53.7027 237.798 53.432L238.176 54.202C237.859 54.5007 237.462 54.7293 236.986 54.888C236.51 55.0467 236.025 55.126 235.53 55.126ZM246.409 55.126C245.737 55.126 245.182 55 244.743 54.748C244.304 54.496 243.973 54.1413 243.749 53.684C243.534 53.2267 243.427 52.6993 243.427 52.102C243.427 51.598 243.497 51.108 243.637 50.632C243.777 50.1467 243.996 49.7127 244.295 49.33C244.594 48.9473 244.972 48.644 245.429 48.42C245.886 48.1867 246.432 48.07 247.067 48.07C247.515 48.07 247.944 48.1447 248.355 48.294C248.766 48.4433 249.092 48.644 249.335 48.896L248.929 49.708C248.696 49.4747 248.425 49.2973 248.117 49.176C247.809 49.0547 247.473 48.994 247.109 48.994C246.652 48.994 246.264 49.0827 245.947 49.26C245.63 49.4373 245.368 49.6753 245.163 49.974C244.967 50.2727 244.822 50.6087 244.729 50.982C244.636 51.346 244.589 51.7147 244.589 52.088C244.589 52.7227 244.738 53.236 245.037 53.628C245.345 54.0107 245.849 54.202 246.549 54.202C246.838 54.202 247.137 54.146 247.445 54.034C247.762 53.9127 248.056 53.7307 248.327 53.488L248.663 54.328C248.486 54.496 248.271 54.6407 248.019 54.762C247.767 54.874 247.501 54.9627 247.221 55.028C246.95 55.0933 246.68 55.126 246.409 55.126ZM252.009 55.126C251.617 55.126 251.248 55.0373 250.903 54.86C250.567 54.6827 250.296 54.44 250.091 54.132C249.885 53.824 249.783 53.474 249.783 53.082C249.783 52.5967 249.913 52.2093 250.175 51.92C250.445 51.6213 250.865 51.402 251.435 51.262C252.004 51.122 252.737 51.052 253.633 51.052H254.753L254.641 51.794H253.787C253.068 51.794 252.499 51.8313 252.079 51.906C251.668 51.9807 251.374 52.1067 251.197 52.284C251.019 52.4613 250.931 52.704 250.931 53.012C250.931 53.4227 251.066 53.7353 251.337 53.95C251.617 54.1647 251.934 54.272 252.289 54.272C252.634 54.272 252.951 54.1973 253.241 54.048C253.539 53.8987 253.791 53.6793 253.997 53.39C254.202 53.0913 254.337 52.7413 254.403 52.34L254.669 50.632C254.762 50.0907 254.692 49.68 254.459 49.4C254.235 49.12 253.824 48.98 253.227 48.98C252.807 48.98 252.405 49.036 252.023 49.148C251.649 49.26 251.281 49.442 250.917 49.694L250.595 48.868C250.819 48.7 251.08 48.56 251.379 48.448C251.677 48.3267 251.995 48.2333 252.331 48.168C252.676 48.1027 253.017 48.07 253.353 48.07C253.987 48.07 254.491 48.1913 254.865 48.434C255.247 48.6673 255.509 48.9987 255.649 49.428C255.789 49.8573 255.812 50.3613 255.719 50.94L255.075 55H253.997L254.235 53.46H254.375C254.253 53.8333 254.067 54.146 253.815 54.398C253.572 54.6407 253.292 54.8227 252.975 54.944C252.657 55.0653 252.335 55.126 252.009 55.126ZM257.164 55L258.256 48.196H259.362L259.11 49.736H258.97C259.204 49.204 259.544 48.7933 259.992 48.504C260.45 48.2147 260.991 48.07 261.616 48.07C262.12 48.07 262.54 48.1727 262.876 48.378C263.222 48.574 263.464 48.882 263.604 49.302C263.754 49.7127 263.777 50.24 263.674 50.884L263.03 55H261.896L262.54 50.884C262.615 50.464 262.615 50.114 262.54 49.834C262.466 49.554 262.326 49.344 262.12 49.204C261.915 49.064 261.635 48.994 261.28 48.994C260.832 48.994 260.44 49.092 260.104 49.288C259.768 49.4747 259.498 49.7407 259.292 50.086C259.096 50.4313 258.961 50.8373 258.886 51.304L258.298 55H257.164ZM268.717 55L270.285 45.13H271.419L270.691 49.736H270.523C270.757 49.204 271.097 48.7933 271.545 48.504C272.003 48.2147 272.544 48.07 273.169 48.07C273.673 48.07 274.093 48.1727 274.429 48.378C274.775 48.574 275.017 48.882 275.157 49.302C275.307 49.7127 275.33 50.24 275.227 50.884L274.583 55H273.449L274.093 50.884C274.168 50.464 274.168 50.114 274.093 49.834C274.019 49.554 273.879 49.344 273.673 49.204C273.468 49.064 273.188 48.994 272.833 48.994C272.385 48.994 271.993 49.092 271.657 49.288C271.321 49.4747 271.051 49.7407 270.845 50.086C270.649 50.4313 270.514 50.8373 270.439 51.304L269.851 55H268.717ZM279.936 55.126C279.292 55.126 278.732 55.0047 278.256 54.762C277.78 54.5193 277.412 54.174 277.15 53.726C276.898 53.2687 276.772 52.732 276.772 52.116C276.772 51.3787 276.922 50.7067 277.22 50.1C277.519 49.484 277.939 48.994 278.48 48.63C279.022 48.2567 279.666 48.07 280.412 48.07C281.122 48.07 281.682 48.2333 282.092 48.56C282.512 48.8867 282.797 49.316 282.946 49.848C283.096 50.3707 283.128 50.9353 283.044 51.542L283.002 51.836H277.654L277.766 51.094H282.358L282.106 51.276C282.172 50.8373 282.158 50.4407 282.064 50.086C281.971 49.7313 281.789 49.4467 281.518 49.232C281.248 49.0173 280.874 48.91 280.398 48.91C279.894 48.91 279.474 49.0267 279.138 49.26C278.802 49.484 278.536 49.7733 278.34 50.128C278.154 50.4827 278.028 50.8513 277.962 51.234L277.906 51.57C277.822 52.102 277.85 52.5687 277.99 52.97C278.13 53.362 278.368 53.67 278.704 53.894C279.05 54.1087 279.479 54.216 279.992 54.216C280.422 54.216 280.823 54.1553 281.196 54.034C281.57 53.9033 281.906 53.7027 282.204 53.432L282.582 54.202C282.265 54.5007 281.868 54.7293 281.392 54.888C280.916 55.0467 280.431 55.126 279.936 55.126ZM286.225 55.126C285.553 55.126 285.063 54.93 284.755 54.538C284.447 54.1367 284.354 53.5487 284.475 52.774L285.693 45.13H286.827L285.609 52.774C285.563 53.1007 285.563 53.3667 285.609 53.572C285.656 53.7773 285.759 53.9267 285.917 54.02C286.085 54.1133 286.3 54.16 286.561 54.16C286.673 54.16 286.781 54.1553 286.883 54.146C286.995 54.1273 287.107 54.1087 287.219 54.09L287.051 55.014C286.93 55.0513 286.795 55.0793 286.645 55.098C286.505 55.1167 286.365 55.126 286.225 55.126ZM287.876 57.52L289.346 48.196H290.466L290.242 49.638H290.102C290.261 49.3113 290.466 49.0313 290.718 48.798C290.97 48.5647 291.259 48.3873 291.586 48.266C291.922 48.1353 292.281 48.07 292.664 48.07C293.196 48.07 293.658 48.1867 294.05 48.42C294.451 48.6533 294.759 48.9893 294.974 49.428C295.189 49.8667 295.296 50.3893 295.296 50.996C295.296 51.7427 295.161 52.4287 294.89 53.054C294.629 53.6793 294.241 54.1833 293.728 54.566C293.224 54.9393 292.608 55.126 291.88 55.126C291.339 55.126 290.853 54.9907 290.424 54.72C289.995 54.44 289.701 54.02 289.542 53.46H289.654L289.01 57.52H287.876ZM291.74 54.216C292.263 54.216 292.701 54.0713 293.056 53.782C293.411 53.4927 293.681 53.1053 293.868 52.62C294.055 52.1347 294.148 51.6027 294.148 51.024C294.148 50.352 293.985 49.8433 293.658 49.498C293.331 49.1527 292.883 48.98 292.314 48.98C291.801 48.98 291.362 49.1247 290.998 49.414C290.643 49.7033 290.373 50.086 290.186 50.562C289.999 51.038 289.906 51.5747 289.906 52.172C289.906 52.8347 290.069 53.3433 290.396 53.698C290.723 54.0433 291.171 54.216 291.74 54.216ZM300.418 57.52L302.126 54.65L302.056 55.14L300.18 48.196H301.342L302.84 54.174H302.448L305.892 48.196H307.124L301.608 57.52H300.418ZM310.174 55.126C309.567 55.126 309.04 55.0047 308.592 54.762C308.153 54.5193 307.812 54.174 307.57 53.726C307.336 53.278 307.22 52.746 307.22 52.13C307.22 51.5513 307.304 51.0193 307.472 50.534C307.649 50.0393 307.896 49.6053 308.214 49.232C308.531 48.8587 308.904 48.574 309.334 48.378C309.772 48.1727 310.267 48.07 310.818 48.07C311.424 48.07 311.947 48.1913 312.386 48.434C312.834 48.6767 313.174 49.022 313.408 49.47C313.641 49.9087 313.758 50.4407 313.758 51.066C313.758 51.6447 313.674 52.1813 313.506 52.676C313.338 53.1613 313.095 53.5907 312.778 53.964C312.46 54.328 312.082 54.6127 311.644 54.818C311.205 55.0233 310.715 55.126 310.174 55.126ZM310.216 54.216C310.729 54.216 311.163 54.0713 311.518 53.782C311.882 53.4927 312.152 53.1053 312.33 52.62C312.516 52.1347 312.61 51.6027 312.61 51.024C312.61 50.352 312.446 49.8433 312.12 49.498C311.802 49.1527 311.354 48.98 310.776 48.98C310.262 48.98 309.824 49.1247 309.46 49.414C309.105 49.7033 308.834 50.086 308.648 50.562C308.461 51.038 308.368 51.5747 308.368 52.172C308.368 52.8347 308.531 53.3433 308.858 53.698C309.184 54.0433 309.637 54.216 310.216 54.216ZM317.323 55.126C316.837 55.126 316.422 55.0233 316.077 54.818C315.741 54.6127 315.503 54.3047 315.363 53.894C315.223 53.474 315.204 52.942 315.307 52.298L315.951 48.196H317.085L316.441 52.298C316.375 52.718 316.375 53.068 316.441 53.348C316.506 53.628 316.641 53.838 316.847 53.978C317.052 54.118 317.323 54.188 317.659 54.188C318.097 54.188 318.475 54.0947 318.793 53.908C319.11 53.712 319.371 53.4413 319.577 53.096C319.782 52.7507 319.922 52.3447 319.997 51.878L320.571 48.196H321.705L320.627 55H319.521L319.759 53.46H319.899C319.684 53.9827 319.348 54.3933 318.891 54.692C318.443 54.9813 317.92 55.126 317.323 55.126ZM322.58 55L322.804 53.572H324.232L324.008 55H322.58Z" fill="#003366"/>
<path d="M602.169 55.3529V67.5875H585.04L588.377 48.7994C588.27 49.5411 590.41 50.932 593.331 52.326C594.38 52.8224 595.548 53.3188 596.799 53.7944C598.546 54.4722 600.343 54.993 602.17 55.352L602.169 55.3529Z" fill="#97C6F6"/>
<path d="M602.17 51.6744V54.9508C600.342 54.5923 598.544 54.0727 596.796 53.3971C592.03 51.5981 588.36 49.3772 588.568 48.3794C588.568 48.3645 588.575 48.3496 588.578 48.3387C588.899 47.3637 593.12 48.0408 597.953 49.8587C599.506 50.4444 600.909 51.05 602.084 51.6308C602.111 51.6447 602.139 51.6595 602.17 51.6744Z" fill="#97C6F6"/>
<path d="M599.82 23.3246C599.018 23.3244 598.25 23.6661 597.683 24.2747C597.116 24.8833 596.797 25.709 596.797 26.5701V35.4639C596.796 36.3244 596.478 37.1496 595.912 37.7582C595.346 38.3668 594.578 38.709 593.777 38.7095H581.673C582.07 38.7096 582.463 38.6258 582.829 38.4627C583.196 38.2997 583.529 38.0606 583.809 37.7592C584.09 37.4578 584.312 37.1 584.464 36.7061C584.616 36.3123 584.694 35.8901 584.694 35.4639V26.5701C584.693 26.1438 584.771 25.7218 584.923 25.3279C585.075 24.934 585.297 24.5761 585.578 24.2747C585.858 23.9733 586.191 23.7342 586.558 23.5712C586.924 23.4081 587.317 23.3244 587.714 23.3246H599.82Z" fill="#97C6F6" stroke="#7FB0ED" stroke-miterlimit="10"/>
<path d="M594.525 27.9272H586.814V35.6156H594.525V27.9272Z" fill="#72B0F2"/>
<path d="M596.796 26.569C596.789 26.142 596.861 25.7178 597.008 25.3211C597.155 24.9245 597.375 24.5632 597.653 24.2586C597.932 23.954 598.264 23.7121 598.63 23.547C598.997 23.3818 599.39 23.2967 599.788 23.2967C600.185 23.2967 600.579 23.3818 600.945 23.547C601.312 23.7121 601.644 23.954 601.923 24.2586C602.201 24.5632 602.42 24.9245 602.568 25.3211C602.715 25.7178 602.787 26.142 602.78 26.569H596.796Z" fill="#699FE9" stroke="#72B0F2" stroke-miterlimit="10"/>
<path d="M593.789 38.7898H581.692C581.101 38.7803 580.527 38.5852 580.038 38.2286C579.55 37.872 579.17 37.3696 578.945 36.7833H591.032C591.259 37.3704 591.641 37.8733 592.131 38.2298C592.621 38.5864 593.197 38.7811 593.789 38.7898Z" fill="#C4DCF7" stroke="#72B0F2" stroke-miterlimit="10"/>
<path d="M587.318 27.0445H585.923V25.8433H586.579V26.5104C586.579 26.5163 586.58 26.5221 586.583 26.5273C586.585 26.5325 586.589 26.5369 586.593 26.5401L587.318 27.0445Z" fill="#97C6F6"/>
<path d="M587.856 26.2543V26.4141C587.856 26.4439 587.856 26.4737 587.856 26.5035C587.856 26.5114 587.856 26.5223 587.856 26.5293C587.856 26.5362 587.856 26.5591 587.849 26.574C587.836 26.6662 587.802 26.7536 587.751 26.8291C587.7 26.9046 587.634 26.9659 587.556 27.0079L587.525 27.0188C587.507 27.0257 587.488 27.0307 587.469 27.0337C587.463 27.0337 587.455 27.0337 587.449 27.0337L586.659 26.4807C586.666 26.3506 586.742 26.2473 586.832 26.2473H587.864L587.856 26.2543Z" fill="#97C6F6"/>
<path d="M595.559 25.8433V27.0445H594.165L594.883 26.5481C594.883 26.5481 594.883 26.5481 594.89 26.5481C594.898 26.5481 594.89 26.5482 594.89 26.5412V25.862L595.559 25.8433Z" fill="#97C6F6"/>
<path d="M594.831 26.4925L594.041 27.0455L593.979 27.0346C593.973 27.0346 593.966 27.0347 593.959 27.0277L593.931 27.0168L593.907 27.0058C593.79 26.93 593.704 26.8095 593.666 26.6683C593.659 26.6466 593.653 26.6244 593.649 26.6017C593.649 26.5948 593.649 26.583 593.642 26.572C593.634 26.5232 593.629 26.4737 593.628 26.4241V26.2642H594.664C594.752 26.2592 594.831 26.3645 594.831 26.4925Z" fill="#97C6F6"/>
<path d="M594.834 25.2346V26.2801C594.827 26.2721 594.82 26.2612 594.814 26.2542C594.801 26.2409 594.787 26.2287 594.772 26.2175C594.739 26.1949 594.701 26.1822 594.662 26.1808H586.824C586.785 26.181 586.747 26.1938 586.714 26.2175C586.7 26.2287 586.686 26.241 586.673 26.2542C586.665 26.262 586.658 26.2707 586.652 26.2801V25.2346C586.652 25.0936 586.728 24.9824 586.825 24.9824H594.663C594.756 24.9824 594.834 25.0976 594.834 25.2346Z" fill="#97C6F6"/>
<path d="M602.167 40.41V54.948C600.339 54.5895 598.541 54.0699 596.793 53.3943C595.544 52.9227 594.373 52.4223 593.324 51.9259L593.886 48.5502L594.842 42.8206C593.976 42.526 593.198 41.9909 592.586 41.2693C591.973 40.5478 591.549 39.6653 591.356 38.7113H593.769C594.165 38.7115 594.558 38.6278 594.925 38.4647C595.292 38.3017 595.625 38.0626 595.905 37.7612C596.186 37.4598 596.408 37.1019 596.56 36.708C596.711 36.3141 596.789 35.8919 596.789 35.4657V34.3975H595.237C594.696 34.3512 594.192 34.0862 593.826 33.6559C593.46 33.2255 593.26 32.662 593.266 32.0792V31.7009H596.711C597.026 31.7008 597.336 31.7796 597.618 31.9309C597.899 32.0822 598.144 32.3019 598.333 32.5726L600.853 36.1885C601.707 37.4041 602.169 38.8866 602.167 40.41Z" fill="#F2B4AB"/>
<path d="M602.17 51.6728V54.9489C600.342 54.5904 598.544 54.0708 596.796 53.3952C595.546 52.9246 594.376 52.4232 593.327 51.9268L593.89 48.5513C595.132 48.8779 596.513 49.3186 597.949 49.8607C599.502 50.4464 600.905 51.0522 602.077 51.633C602.109 51.6437 602.14 51.6571 602.17 51.6728Z" fill="#C67F75"/>
<path d="M596.947 34.3984H595.284C594.743 34.3524 594.239 34.0875 593.873 33.6571C593.507 33.2267 593.307 32.6631 593.313 32.0802V31.702H596.947V34.3984Z" fill="#F2B4AB"/>
<path d="M595.902 38.0103C596.668 38.3917 597.32 38.9965 597.782 39.7557C598.244 40.5149 598.499 41.3983 598.518 42.3054" stroke="#C67F75" stroke-miterlimit="10"/>
<path d="M594.849 42.898H596.482" stroke="#C67F75" stroke-miterlimit="10"/>
<path d="M623.961 17.3814L625.055 16.602C625.38 16.3706 625.756 16.2344 626.144 16.2069C626.533 16.1793 626.922 16.2614 627.273 16.4449C627.623 16.6284 627.923 16.9071 628.142 17.2533C628.362 17.5995 628.493 18.0012 628.524 18.4188L628.762 21.6565C628.792 22.064 628.918 22.4566 629.128 22.7972C629.339 23.1378 629.626 23.4154 629.964 23.6035C630.302 23.7917 630.678 23.8842 631.059 23.8726C631.439 23.8609 631.81 23.7454 632.137 23.5369L632.827 23.0951" stroke="#BC322E" stroke-miterlimit="10"/>
<path d="M607.815 5.61633L621.872 14.384L628.951 31.4606L620.83 25.5821L612.004 14.4703L607.815 5.61633Z" fill="#003366"/>
<path d="M608.098 4.76349L622.452 13.7198L629.683 31.1578" stroke="#BC322E" stroke-miterlimit="10"/>
<path d="M620.684 25.9611C621.341 25.3651 619.865 22.3254 617.387 19.1718C614.909 16.0182 612.368 13.9448 611.711 14.5409C611.054 15.1369 612.53 18.1766 615.008 21.3302C617.485 24.4838 620.027 26.5571 620.684 25.9611Z" fill="white"/>
<path d="M619.795 26.6689C620.438 26.0849 618.99 23.1045 616.561 20.0121C614.131 16.9196 611.639 14.8861 610.996 15.4701C610.352 16.0541 611.8 19.0345 614.229 22.1269C616.659 25.2193 619.151 27.2529 619.795 26.6689Z" fill="white" stroke="#BC322E" stroke-miterlimit="10"/>
<path d="M621.997 24.76L620.657 25.9733C620.906 25.7469 620.85 25.1791 620.55 24.3789C618.806 20.6443 616.263 17.4071 613.13 14.9331C612.45 14.4803 611.928 14.3244 611.684 14.5508L613.022 13.3386C613.678 12.7429 616.336 14.6928 618.814 17.848C621.292 21.0032 622.656 24.1673 621.997 24.76Z" fill="#BC322E"/>
<path d="M636.548 19.8574C636.928 19.6589 637.298 19.4862 637.657 19.3422C637.874 19.5867 638.054 19.8657 638.192 20.1693C638.331 20.4714 638.425 20.7954 638.469 21.1292C638.141 21.3367 637.785 21.5443 637.409 21.7409C635.522 22.7238 633.806 23.0981 633.568 22.5789C633.331 22.0596 634.661 20.8403 636.548 19.8574Z" fill="#BC322E"/>
<path d="M633.459 23.8109C633.825 23.8109 634.121 23.4922 634.121 23.0991C634.121 22.7059 633.825 22.3872 633.459 22.3872C633.093 22.3872 632.796 22.7059 632.796 23.0991C632.796 23.4922 633.093 23.8109 633.459 23.8109Z" fill="#003366" stroke="#003366" stroke-width="6" stroke-miterlimit="10"/>
<path d="M560.886 51.8831V67.5856H544.24L546.372 50.533C546.372 51.223 549.62 52.0826 553.627 52.454C557.634 52.8253 560.886 52.5731 560.886 51.8831Z" fill="#4B8FEB"/>
<path d="M560.81 51.4802C560.81 52.1702 557.59 52.4263 553.621 52.051C549.651 51.6757 546.431 50.8159 546.431 50.1298C546.431 49.4398 549.651 49.1837 553.621 49.559C557.59 49.9343 560.81 50.7902 560.81 51.4802Z" fill="#373C73"/>
<path d="M563.608 15.8812L564.616 16.5822C565.624 17.4201 564.23 21.166 561.503 24.9417C558.776 28.7174 555.749 31.0972 554.741 30.2632L554.244 29.7589" stroke="#4B8FEB" stroke-width="3" stroke-miterlimit="10" stroke-linejoin="bevel"/>
<path d="M549.124 33.212L560.565 21.9603L564.565 8.87183L552.354 20.7957L549.124 33.212Z" fill="#4B8FEB"/>
<path d="M549.029 34.8392L561.483 22.5936L565.548 9.29773" stroke="#BC322E" stroke-miterlimit="10" stroke-linecap="round"/>
<path d="M555.126 21.9225L544.261 33.0899C544.146 33.2082 543.999 33.2838 543.842 33.3058C543.684 33.3277 543.524 33.2948 543.385 33.2118C543.246 33.1289 543.135 33.0003 543.069 32.8449C543.003 32.6894 542.985 32.5154 543.018 32.3482L543.322 30.7647C543.352 30.6066 543.338 30.4423 543.279 30.2935C543.221 30.1446 543.123 30.0181 542.997 29.9306C542.87 29.8431 542.722 29.7987 542.572 29.8031C542.422 29.8076 542.277 29.8606 542.155 29.9555L538.566 32.7632" stroke="#BC322E" stroke-miterlimit="10"/>
<path d="M534.663 37.2866C534.341 37.5755 534.021 37.8425 533.71 38.0808C533.444 37.9014 533.205 37.6787 533.002 37.4206C532.8 37.1627 532.637 36.8721 532.519 36.5598C532.788 36.2709 533.085 35.978 533.406 35.6851C535.011 34.2346 536.592 33.4155 536.94 33.8603C537.289 34.3051 536.267 35.8371 534.663 37.2866Z" fill="#CC1D24"/>
<path d="M537.74 34.5354C538.377 34.5354 538.893 33.9811 538.893 33.2974C538.893 32.6136 538.377 32.0593 537.74 32.0593C537.104 32.0593 536.588 32.6136 536.588 33.2974C536.588 33.9811 537.104 34.5354 537.74 34.5354Z" stroke="#003366" stroke-width="3" stroke-miterlimit="10"/>
<path d="M555.64 40.0655V52.1969C555.001 52.1671 554.321 52.1225 553.621 52.0559C551.548 51.9085 549.497 51.5166 547.505 50.8874L547.695 49.545L548.33 45.0386H547.509C547.231 45.0389 546.955 44.9802 546.699 44.8661C546.442 44.7519 546.208 44.5845 546.012 44.3733C545.815 44.1621 545.66 43.9114 545.553 43.6354C545.447 43.3595 545.392 43.0637 545.393 42.765V38.2973C545.392 37.4157 545.69 36.5642 546.232 35.9016L548.934 32.5826C548.973 32.5355 549.024 32.5021 549.081 32.4869C549.138 32.4716 549.198 32.4752 549.253 32.4973C549.308 32.5193 549.355 32.5587 549.389 32.6102C549.423 32.6618 549.441 32.7231 549.442 32.7861V37.2995C549.442 37.8409 549.262 38.3645 548.934 38.7759L548.693 39.0796H551.627C551.723 39.0799 551.817 39.0519 551.9 38.9987C551.982 38.9454 552.049 38.869 552.094 38.7777C552.139 38.6864 552.159 38.5837 552.154 38.4807C552.148 38.3776 552.116 38.2781 552.062 38.1931C551.588 37.4513 551.156 36.6798 550.768 35.8827C550.509 35.4034 550.434 34.8345 550.557 34.2963C550.681 33.758 550.994 33.2924 551.431 32.9976L555.01 37.9856C555.418 38.5906 555.639 39.3184 555.64 40.0655Z" fill="#FFCFC9"/>
<path d="M549.194 32.8069V37.5615C549.194 38.1029 549.014 38.6266 548.687 39.0379L548.446 39.3418" stroke="#B27B71" stroke-miterlimit="10" stroke-linecap="round"/>
<path d="M548.446 39.3378L546.507 41.6779" stroke="#B27B71" stroke-miterlimit="10" stroke-linecap="round"/>
<path d="M549.196 35.4955C549.196 36.0369 549.016 36.5607 548.688 36.9719L548.447 37.2757L546.507 39.6128" stroke="#B27B71" stroke-miterlimit="10" stroke-linecap="round"/>
<path d="M549.196 33.4334C549.196 33.9748 549.016 34.4984 548.688 34.9097L548.447 35.2135L546.507 37.5497" stroke="#B27B71" stroke-miterlimit="10" stroke-linecap="round"/>
<path d="M548.084 44.8936H549.572" stroke="#B27B71" stroke-miterlimit="10" stroke-linecap="round"/>
<path d="M555.635 49.7951V52.1919C554.996 52.1621 554.316 52.1176 553.616 52.0511C551.544 51.9036 549.493 51.5117 547.5 50.8825L547.691 49.5392C549.662 49.3242 551.649 49.3291 553.62 49.554C554.32 49.6255 554.996 49.7028 555.635 49.7951Z" fill="#FFCFC9"/>
<path d="M522.088 67.5865H502.839V47.0777C502.839 47.9534 506.005 48.6663 509.912 48.6663C513.818 48.6663 516.984 47.9573 516.984 47.0777L522.088 67.5865Z" fill="#373C73"/>
<path d="M516.931 46.6727C516.931 47.5513 513.8 48.2613 509.934 48.2613C506.069 48.2613 502.938 47.5523 502.938 46.6727C502.948 45.801 506.08 45.093 509.934 45.093C513.789 45.093 516.924 45.801 516.931 46.6727Z" fill="#373C73"/>
<path d="M516.932 46.6876C516.908 47.5553 513.784 48.2602 509.936 48.2602C509.196 48.2602 508.482 48.2345 507.81 48.1858V40.557H504.159C504.048 40.5571 503.939 40.5338 503.837 40.4884C503.734 40.443 503.642 40.3763 503.563 40.2923C503.485 40.2083 503.423 40.1085 503.381 39.9987C503.339 39.8889 503.317 39.7713 503.317 39.6525V39.0408C503.409 38.9559 503.483 38.8507 503.534 38.7322C503.584 38.6138 503.61 38.4851 503.61 38.3548C503.61 38.2245 503.584 38.0957 503.534 37.9773C503.483 37.8589 503.409 37.7537 503.317 37.6688V37.0572C503.468 36.8904 503.553 36.6668 503.553 36.4342C503.553 36.2015 503.468 35.978 503.317 35.8112V35.1997C503.317 34.9596 503.405 34.7293 503.562 34.5583C503.484 34.4744 503.422 34.3748 503.38 34.2652C503.338 34.1557 503.317 34.0383 503.317 33.9198V32.8109C503.317 32.6921 503.339 32.5743 503.381 32.4645C503.423 32.3547 503.485 32.255 503.563 32.171C503.642 32.087 503.734 32.0204 503.837 31.975C503.939 31.9296 504.048 31.9063 504.159 31.9064H508.822C508.977 31.8072 509.23 31.4685 508.802 31.268L507.801 31.0159C507.419 30.8412 507.093 30.55 506.863 30.1782C506.633 29.8064 506.509 29.3703 506.508 28.924H510.028C510.316 28.9242 510.597 29.0197 510.833 29.1972C511.069 29.3748 511.248 29.626 511.346 29.9168L516.848 46.4206L516.932 46.6876Z" fill="#FFCFC9"/>
<path d="M508.904 21.595V24.6022C508.904 25.3871 508.614 26.1399 508.098 26.695C507.581 27.25 506.881 27.5619 506.15 27.5619C505.42 27.5619 504.719 27.25 504.202 26.695C503.686 26.1399 503.396 25.3871 503.396 24.6022V21.595C503.396 22.3297 504.627 22.9223 506.15 22.9223C507.673 22.9223 508.904 22.3287 508.904 21.595Z" fill="white"/>
<path d="M506.15 22.9213C507.671 22.9213 508.904 22.327 508.904 21.5939C508.904 20.8608 507.671 20.2665 506.15 20.2665C504.629 20.2665 503.396 20.8608 503.396 21.5939C503.396 22.327 504.629 22.9213 506.15 22.9213Z" fill="#CC1D24"/>
<path d="M508.904 16.455V24.5963C508.905 25.1167 508.777 25.628 508.535 26.0786C508.292 26.5292 507.944 26.9031 507.524 27.1627C507.107 27.4191 506.636 27.5539 506.155 27.5539C505.675 27.5539 505.204 27.4191 504.787 27.1627C504.787 27.1627 504.787 27.1627 504.781 27.1627C504.361 26.903 504.012 26.5291 503.77 26.0785C503.528 25.6279 503.4 25.1167 503.4 24.5963V16.455H508.904Z" stroke="#BC322E" stroke-miterlimit="10"/>
<path d="M506.15 17.7815C507.689 17.7815 508.936 17.1872 508.936 16.4541C508.936 15.721 507.689 15.1266 506.15 15.1266C504.612 15.1266 503.364 15.721 503.364 16.4541C503.364 17.1872 504.612 17.7815 506.15 17.7815Z" fill="white" stroke="#BC322E" stroke-miterlimit="10"/>
<path d="M506.15 16.6556C506.374 16.6556 506.557 16.4596 506.557 16.2177C506.557 15.9759 506.374 15.7799 506.15 15.7799C505.925 15.7799 505.743 15.9759 505.743 16.2177C505.743 16.4596 505.925 16.6556 506.15 16.6556Z" fill="#CC1D24"/>
<path d="M505.252 25.592C505.449 25.592 505.61 25.4196 505.61 25.2068C505.61 24.9941 505.449 24.8216 505.252 24.8216C505.054 24.8216 504.893 24.9941 504.893 25.2068C504.893 25.4196 505.054 25.592 505.252 25.592Z" fill="#D7282F" stroke="#BC322E" stroke-width="5" stroke-miterlimit="10"/>
<path d="M507.405 21.9136C507.569 21.9136 507.702 21.771 507.702 21.5949C507.702 21.4189 507.569 21.2762 507.405 21.2762C507.242 21.2762 507.109 21.4189 507.109 21.5949C507.109 21.771 507.242 21.9136 507.405 21.9136Z" fill="white"/>
<path d="M504.534 24.3053C504.697 24.3053 504.83 24.1626 504.83 23.9866C504.83 23.8106 504.697 23.6679 504.534 23.6679C504.37 23.6679 504.237 23.8106 504.237 23.9866C504.237 24.1626 504.37 24.3053 504.534 24.3053Z" fill="#D7282F" stroke="#BC322E"/>
<path d="M508.796 42.634H503.502C503.482 42.6331 503.463 42.6252 503.447 42.6115C503.431 42.5978 503.421 42.579 503.416 42.558C503.411 42.537 503.413 42.5149 503.421 42.4951C503.429 42.4753 503.443 42.4589 503.46 42.4483L505.308 41.6957C505.45 41.6375 505.572 41.5344 505.659 41.4C505.745 41.2656 505.791 41.1065 505.791 40.9432V29.0898C505.793 28.7027 505.701 28.3218 505.524 27.9848C505.346 27.6479 505.09 27.3666 504.781 27.1687C505.197 27.425 505.669 27.5598 506.149 27.5598C506.629 27.5598 507.101 27.425 507.517 27.1687C507.206 27.3651 506.948 27.646 506.77 27.9831C506.592 28.3203 506.499 28.7019 506.501 29.0898V40.9432C506.501 41.1065 506.548 41.2656 506.634 41.4C506.72 41.5344 506.842 41.6375 506.984 41.6957L508.832 42.4493C508.849 42.4598 508.862 42.4757 508.87 42.4948C508.878 42.5139 508.88 42.5351 508.876 42.5556C508.872 42.5761 508.862 42.5947 508.848 42.6088C508.834 42.6229 508.815 42.6317 508.796 42.634Z" fill="white" stroke="#BC322E" stroke-miterlimit="10"/>
<path d="M504.189 12.0002C504.448 12.0002 504.658 11.7744 504.658 11.4959C504.658 11.2173 504.448 10.9915 504.189 10.9915C503.93 10.9915 503.72 11.2173 503.72 11.4959C503.72 11.7744 503.93 12.0002 504.189 12.0002Z" fill="#CC1D24"/>
<path d="M507.405 12.8134C507.63 12.8134 507.812 12.6173 507.812 12.3755C507.812 12.1337 507.63 11.9377 507.405 11.9377C507.18 11.9377 506.998 12.1337 506.998 12.3755C506.998 12.6173 507.18 12.8134 507.405 12.8134Z" fill="#CC1D24"/>
<path d="M505.411 14.518C505.574 14.518 505.707 14.3753 505.707 14.1993C505.707 14.0233 505.574 13.8806 505.411 13.8806C505.247 13.8806 505.114 14.0233 505.114 14.1993C505.114 14.3753 505.247 14.518 505.411 14.518Z" fill="#CC1D24"/>
<path d="M505.255 10.6351C505.391 10.6351 505.5 10.5173 505.5 10.372C505.5 10.2267 505.391 10.1089 505.255 10.1089C505.12 10.1089 505.011 10.2267 505.011 10.372C505.011 10.5173 505.12 10.6351 505.255 10.6351Z" fill="#CC1D24"/>
<path d="M509.694 33.0948V40.5598H504.158C504.048 40.56 503.938 40.5368 503.836 40.4914C503.734 40.446 503.641 40.3793 503.563 40.2953C503.484 40.2113 503.422 40.1115 503.38 40.0017C503.338 39.8919 503.316 39.7743 503.316 39.6555V39.0438C503.408 38.9589 503.482 38.8537 503.533 38.7353C503.583 38.6168 503.609 38.4882 503.609 38.3579C503.609 38.2276 503.583 38.0987 503.533 37.9803C503.482 37.8619 503.408 37.7567 503.316 37.6718V37.0602C503.467 36.8934 503.552 36.6698 503.552 36.4372C503.552 36.2045 503.467 35.981 503.316 35.8142V35.2025C503.316 34.9625 503.404 34.7322 503.561 34.5612C503.483 34.4773 503.421 34.3778 503.379 34.2683C503.337 34.1587 503.316 34.0413 503.316 33.9229V33.0998H509.692L509.694 33.0948Z" fill="#FFCFC9"/>
<path d="M503.416 37.6201C503.416 37.8926 503.517 38.154 503.696 38.3467C503.875 38.5394 504.119 38.6478 504.372 38.6478H508.853C509.106 38.6478 509.349 38.5394 509.529 38.3467C509.708 38.154 509.809 37.8926 509.809 37.6201" stroke="#B27B71" stroke-miterlimit="10" stroke-linecap="round"/>
<path d="M503.416 35.7695C503.416 36.0421 503.517 36.3035 503.696 36.4962C503.875 36.6889 504.119 36.797 504.372 36.797H508.853C509.106 36.797 509.349 36.6889 509.529 36.4962C509.708 36.3035 509.809 36.0421 509.809 35.7695" stroke="#B27B71" stroke-miterlimit="10" stroke-linecap="round"/>
<path d="M503.416 33.9188C503.416 34.1914 503.517 34.4528 503.696 34.6455C503.875 34.8382 504.119 34.9464 504.372 34.9464H508.853C509.106 34.9464 509.349 34.8382 509.529 34.6455C509.708 34.4528 509.809 34.1914 509.809 33.9188" stroke="#B27B71" stroke-miterlimit="10" stroke-linecap="round"/>
<path d="M504.327 40.4984H508.854C509.108 40.4984 509.351 40.3901 509.531 40.1974C509.71 40.0047 509.811 39.7433 509.811 39.4707V32.5319" stroke="#B27B71" stroke-miterlimit="10" stroke-linecap="round"/>
<path d="M505.581 32.5041H505.119C505.045 32.5041 504.975 32.5355 504.923 32.5914C504.871 32.6472 504.842 32.723 504.842 32.802C504.842 32.8411 504.849 32.8798 504.863 32.9159C504.877 32.9521 504.897 32.9848 504.923 33.0125C504.949 33.0402 504.979 33.0621 505.013 33.0771C505.047 33.0921 505.083 33.0998 505.119 33.0998H507.687C507.82 33.0998 507.949 33.0428 508.043 32.9414C508.138 32.8399 508.191 32.7024 508.191 32.5588C508.191 32.3876 508.254 32.2234 508.367 32.1023C508.48 31.9813 508.632 31.9134 508.792 31.9134H509.209C509.369 31.9134 509.521 31.9813 509.634 32.1023C509.747 32.2234 509.81 32.3876 509.81 32.5588V33.76" stroke="#B27B71" stroke-miterlimit="10" stroke-linecap="round"/>
<path d="M486.047 15.5764L474.558 28.2379L461.311 12.5513L475.769 1.61823L486.047 15.5764Z" fill="#003366"/>
<path d="M473.374 28.8456L459.476 12.4758L474.721 0.993713" stroke="#BC322E" stroke-miterlimit="10"/>
<path d="M474.333 14.9241L475.2 14.7871C475.884 14.6794 476.579 14.8678 477.134 15.3109C477.688 15.754 478.056 16.4155 478.157 17.15L478.912 22.683C478.972 23.1171 479.125 23.5301 479.36 23.8887C479.595 24.2474 479.906 24.5417 480.266 24.7478C480.626 24.9539 481.027 25.066 481.435 25.0752C481.843 25.0844 482.248 24.9904 482.616 24.8007L486.229 22.9432" stroke="#BC322E" stroke-miterlimit="10"/>
<path d="M491.817 24.0025C492.187 24.2179 492.535 24.4403 492.853 24.6627C492.796 24.9944 492.691 25.3145 492.543 25.6119C492.394 25.9095 492.203 26.1798 491.976 26.413C491.628 26.2502 491.262 26.0607 490.893 25.8452C489.045 24.774 487.758 23.4942 488.014 22.9859C488.27 22.4776 489.971 22.9302 491.817 24.0025Z" fill="#BC322E"/>
<path d="M487.008 23.8119C487.577 23.8119 488.038 23.3167 488.038 22.7059C488.038 22.095 487.577 21.5999 487.008 21.5999C486.44 21.5999 485.979 22.095 485.979 22.7059C485.979 23.3167 486.44 23.8119 487.008 23.8119Z" stroke="#003366" stroke-width="2" stroke-miterlimit="10"/>
</g>
<defs>
<clipPath id="clip0_3346_13878">
<rect width="960" height="67" fill="white" transform="translate(0 0.587646)"/>
</clipPath>
</defs>
</svg>
