<svg width="141" height="40" viewBox="0 0 141 40" fill="none" xmlns="http://www.w3.org/2000/svg">
<path d="M28.283 38.1784H26.0669V13.8537H28.283V15.9643C29.2855 14.5397 31.0795 13.4844 33.0846 13.4844C36.8308 13.4844 39.3635 16.2809 39.3635 20.9242C39.3635 25.5148 36.7781 28.3641 33.0846 28.3641C31.1323 28.3641 29.4438 27.4671 28.283 25.8841V38.1784ZM32.5042 15.4367C30.7629 15.4367 29.0217 16.4392 28.283 17.7056V24.0901C29.0217 25.3037 30.7629 26.359 32.5042 26.359C35.3534 26.359 37.0419 24.0374 37.0419 20.8715C37.0947 17.7583 35.3534 15.4367 32.5042 15.4367Z" fill="#003366"/>
<path d="M49.0721 13.4844C53.346 13.4844 55.8787 16.8086 55.8787 21.0825V21.6629H44.4288C44.5871 24.354 46.4866 26.5701 49.547 26.5701C51.1827 26.5701 52.8184 25.9369 53.9264 24.7761L54.9817 26.2007C53.5571 27.6254 51.6575 28.3641 49.3359 28.3641C45.1675 28.3641 42.1072 25.3565 42.1072 20.9242C42.1072 16.8086 45.062 13.4844 49.0721 13.4844ZM44.4288 20.0272H53.7154C53.6626 17.9166 52.2907 15.3311 49.0721 15.3311C46.0645 15.3311 44.5343 17.8639 44.4288 20.0272Z" fill="#003366"/>
<path d="M59.4666 27.9967V13.8557H61.6827V16.1245C62.8435 14.6471 64.4792 13.5391 66.3787 13.5391V15.808C66.1149 15.7552 65.851 15.7024 65.4817 15.7024C64.1098 15.7024 62.2631 16.8105 61.6299 17.9713V27.9967H59.4666Z" fill="#003366"/>
<path d="M68.7534 9.95007C68.7534 9.10584 69.4393 8.47266 70.2308 8.47266C71.075 8.47266 71.7082 9.10584 71.7082 9.95007C71.7082 10.7943 71.0223 11.4275 70.2308 11.4275C69.3866 11.4803 68.7534 10.7943 68.7534 9.95007ZM69.1228 27.9957V13.8547H71.3389V27.9957H69.1228Z" fill="#003366"/>
<path d="M81.8916 13.4844C86.1655 13.4844 88.6982 16.8086 88.6982 21.0825V21.6629H77.2484C77.4066 24.354 79.3062 26.5701 82.3665 26.5701C84.0022 26.5701 85.6379 25.9369 86.7459 24.7761L87.8012 26.2007C86.3766 27.6254 84.4771 28.3641 82.1554 28.3641C77.9871 28.3641 74.9267 25.3565 74.9267 20.9242C74.874 16.8086 77.8288 13.4844 81.8916 13.4844ZM77.1956 20.0272H86.4821C86.4294 17.9166 85.0575 15.3311 81.8389 15.3311C78.8313 15.3311 77.3011 17.8639 77.1956 20.0272Z" fill="#003366"/>
<path d="M101.784 27.9947V18.7609C101.784 16.2809 100.517 15.4894 98.6179 15.4894C96.8767 15.4894 95.241 16.5447 94.4495 17.7056V28.0475H92.2334V13.8537H94.4495V15.9116C95.452 14.7507 97.4043 13.4844 99.5149 13.4844C102.47 13.4844 104.053 14.9618 104.053 18.0749V27.9947H101.784Z" fill="#003366"/>
<path d="M114.606 13.4844C117.191 13.4844 118.721 14.5397 119.776 15.9643L118.299 17.3362C117.349 16.0699 116.136 15.4894 114.711 15.4894C111.704 15.4894 109.804 17.8111 109.804 20.9242C109.804 24.0374 111.704 26.4118 114.711 26.4118C116.189 26.4118 117.402 25.8314 118.299 24.565L119.776 25.9369C118.668 27.3616 117.191 28.4169 114.606 28.4169C110.384 28.4169 107.535 25.1982 107.535 20.977C107.535 16.703 110.384 13.4844 114.606 13.4844Z" fill="#003366"/>
<path d="M129.063 13.4844C133.337 13.4844 135.87 16.8086 135.87 21.0825V21.6629H124.367C124.525 24.354 126.425 26.5701 129.485 26.5701C131.121 26.5701 132.757 25.9369 133.865 24.7761L134.92 26.2007C133.495 27.6254 131.596 28.3641 129.274 28.3641C125.106 28.3641 122.045 25.3565 122.045 20.9242C122.045 16.8086 125 13.4844 129.063 13.4844ZM124.367 20.0272H133.654C133.601 17.9166 132.229 15.3311 129.01 15.3311C126.003 15.3311 124.525 17.8639 124.367 20.0272Z" fill="#003366"/>
<path d="M69.1221 36.648V30.7383H69.808V33.0072C70.1774 32.5323 70.6522 32.2685 71.2854 32.2685C72.3935 32.2685 73.1849 33.1655 73.1849 34.5374C73.1849 35.962 72.3935 36.8063 71.2854 36.8063C70.705 36.8063 70.1774 36.4897 69.808 36.0675V36.7007H69.1221V36.648ZM69.808 35.4871C70.0191 35.8565 70.5467 36.1731 71.0744 36.1731C71.9713 36.1731 72.4462 35.4871 72.4462 34.5374C72.4462 33.5876 71.9186 32.8489 71.0744 32.8489C70.5467 32.8489 70.0191 33.1655 69.808 33.5348V35.4871Z" fill="#656E7E"/>
<path d="M74.0818 37.757C74.1874 37.8098 74.3457 37.8098 74.4512 37.8098C74.7678 37.8098 74.9261 37.7043 75.0844 37.3349L75.3482 36.7017L73.5542 32.375H74.2929L75.7175 35.9103L77.1422 32.375H77.8809L75.7175 37.546C75.4537 38.1791 75.0316 38.3902 74.4512 38.443C74.2929 38.443 74.0818 38.3902 73.9763 38.3902L74.0818 37.757Z" fill="#656E7E"/>
<path d="M80.6772 33.6932C80.6772 31.8464 81.9964 30.6328 83.6848 30.6328C84.7401 30.6328 85.4788 31.1605 85.9537 31.7936L85.3205 32.163C85.0039 31.6881 84.3708 31.3188 83.6848 31.3188C82.4185 31.3188 81.416 32.3213 81.416 33.7459C81.416 35.1706 82.4185 36.1731 83.6848 36.1731C84.3708 36.1731 85.0039 35.8038 85.3205 35.3289L85.9537 35.6982C85.4788 36.3842 84.7401 36.8591 83.6848 36.8591C82.0491 36.8063 80.6772 35.54 80.6772 33.6932Z" fill="#656E7E"/>
<path d="M86.9038 36.6471V32.3204H87.5897V33.0063C87.9591 32.5314 88.434 32.2148 89.0144 32.2148V32.9008C88.9089 32.9008 88.8561 32.848 88.7506 32.848C88.3284 32.848 87.8008 33.1646 87.5897 33.534V36.5943H86.9038V36.6471Z" fill="#656E7E"/>
<path d="M89.5945 34.5384C89.5945 33.2721 90.4387 32.2695 91.7051 32.2695C93.0242 32.2695 93.8156 33.2721 93.8156 34.5384C93.8156 35.8048 92.9714 36.8073 91.7051 36.8073C90.4387 36.8073 89.5945 35.752 89.5945 34.5384ZM93.1825 34.5384C93.1825 33.6414 92.6548 32.9027 91.7578 32.9027C90.8608 32.9027 90.3332 33.6942 90.3332 34.5384C90.3332 35.4354 90.8608 36.2269 91.7578 36.2269C92.6548 36.2269 93.1825 35.3827 93.1825 34.5384Z" fill="#656E7E"/>
<path d="M94.924 35.6465C95.1879 35.9631 95.7683 36.2797 96.3487 36.2797C96.9818 36.2797 97.3512 35.9631 97.3512 35.541C97.3512 35.0661 96.8236 34.9078 96.2431 34.7495C95.5044 34.5912 94.6602 34.3801 94.6602 33.4831C94.6602 32.7972 95.2406 32.2695 96.2431 32.2695C96.9818 32.2695 97.5095 32.5334 97.8261 32.9027L97.5095 33.3776C97.2457 33.061 96.7708 32.8499 96.2431 32.8499C95.6627 32.8499 95.2934 33.1138 95.2934 33.4831C95.2934 33.9052 95.7683 34.0108 96.3487 34.1691C97.0874 34.3274 97.9844 34.5384 97.9844 35.4882C97.9844 36.2269 97.404 36.8073 96.2959 36.8073C95.61 36.8073 94.9768 36.5963 94.5547 36.1214L94.924 35.6465Z" fill="#656E7E"/>
<path d="M99.0923 35.6465C99.3561 35.9631 99.9365 36.2797 100.517 36.2797C101.15 36.2797 101.519 35.9631 101.519 35.541C101.519 35.0661 100.992 34.9078 100.411 34.7495C99.6727 34.5912 98.8284 34.3801 98.8284 33.4831C98.8284 32.7972 99.4088 32.2695 100.411 32.2695C101.15 32.2695 101.678 32.5334 101.994 32.9027L101.678 33.3776C101.414 33.061 100.939 32.8499 100.411 32.8499C99.831 32.8499 99.4616 33.1138 99.4616 33.4831C99.4616 33.9052 99.9365 34.0108 100.517 34.1691C101.256 34.3274 102.153 34.5384 102.153 35.4882C102.153 36.2269 101.572 36.8073 100.464 36.8073C99.7782 36.8073 99.145 36.5963 98.7229 36.1214L99.0923 35.6465Z" fill="#656E7E"/>
<path d="M105.318 33.6932C105.318 31.8464 106.637 30.6328 108.326 30.6328C109.381 30.6328 110.12 31.1605 110.595 31.7936L109.962 32.163C109.645 31.6881 109.012 31.3188 108.326 31.3188C107.06 31.3188 106.057 32.3213 106.057 33.7459C106.057 35.1706 107.06 36.1731 108.326 36.1731C109.012 36.1731 109.645 35.8038 109.962 35.3289L110.595 35.6982C110.12 36.3842 109.381 36.8591 108.326 36.8591C106.637 36.8063 105.318 35.54 105.318 33.6932Z" fill="#656E7E"/>
<path d="M111.281 34.5384C111.281 33.2721 112.125 32.2695 113.391 32.2695C114.71 32.2695 115.502 33.2721 115.502 34.5384C115.502 35.8048 114.658 36.8073 113.391 36.8073C112.125 36.8073 111.281 35.752 111.281 34.5384ZM114.869 34.5384C114.869 33.6414 114.341 32.9027 113.444 32.9027C112.547 32.9027 112.019 33.6942 112.019 34.5384C112.019 35.4354 112.547 36.2269 113.444 36.2269C114.341 36.2269 114.869 35.3827 114.869 34.5384Z" fill="#656E7E"/>
<path d="M119.565 36.649V36.0685C119.248 36.4379 118.668 36.8073 118.035 36.8073C117.138 36.8073 116.663 36.3851 116.663 35.4354V32.375H117.349V35.2243C117.349 35.963 117.718 36.2268 118.299 36.2268C118.826 36.2268 119.301 35.9103 119.565 35.5937V32.4278H120.251V36.7545H119.565V36.649Z" fill="#656E7E"/>
<path d="M124.472 36.649V33.8525C124.472 33.1138 124.102 32.8499 123.522 32.8499C122.994 32.8499 122.519 33.1665 122.256 33.5359V36.7018H121.57V32.3751H122.256V33.0082C122.572 32.6389 123.153 32.2695 123.786 32.2695C124.683 32.2695 125.158 32.7444 125.158 33.6414V36.649H124.472Z" fill="#656E7E"/>
<path d="M126.582 35.7526V32.9561H125.844V32.3757H126.582V31.2148H127.268V32.3757H128.165V32.9561H127.268V35.6471C127.268 35.9637 127.427 36.1748 127.691 36.1748C127.902 36.1748 128.06 36.0692 128.165 36.0165L128.376 36.4913C128.218 36.6496 127.954 36.7552 127.585 36.7552C126.899 36.8079 126.582 36.4386 126.582 35.7526Z" fill="#656E7E"/>
<path d="M129.062 36.6471V32.3204H129.748V33.0063C130.118 32.5314 130.592 32.2148 131.173 32.2148V32.9008C131.067 32.9008 131.015 32.848 130.909 32.848C130.487 32.848 129.959 33.1646 129.748 33.534V36.5943H129.062V36.6471Z" fill="#656E7E"/>
<path d="M131.859 37.757C131.964 37.8098 132.123 37.8098 132.228 37.8098C132.545 37.8098 132.703 37.7043 132.861 37.3349L133.125 36.7017L131.331 32.375H132.07L133.494 35.9103L134.919 32.375H135.658L133.494 37.546C133.231 38.1791 132.808 38.3902 132.228 38.443C132.07 38.443 131.859 38.3902 131.753 38.3902L131.859 37.757Z" fill="#656E7E"/>
<path d="M5.48771 27.3611L9.70887 22.9289C10.8697 21.7153 10.9752 20.1851 10.9752 18.3383V10.8984L0.949972 20.9238C0.369563 21.5042 0.0529785 22.3484 0.0529785 23.1927V25.1977C0.0529785 26.5696 0.897209 27.6777 2.16356 28.1526C3.32437 28.5747 4.59072 28.2581 5.48771 27.3611Z" fill="#D7282F"/>
<path d="M21.4227 20.8724L15.8297 15.332L11.3975 19.7643C11.503 21.0306 11.7668 22.0859 12.611 22.983L16.8322 27.4152C17.7292 28.3122 19.0483 28.6288 20.2091 28.1539C21.4755 27.679 22.3197 26.5182 22.3197 25.1991V23.194C22.3197 22.297 22.0031 21.5055 21.4227 20.8724Z" fill="#003366"/>
<path d="M16.832 2.66867L12.6108 7.10093C11.45 8.31452 11.3445 9.84471 11.3445 11.6915V19.1841L21.3697 9.15876C21.9501 8.57835 22.2667 7.73411 22.2667 6.88987V4.8848C22.2667 3.51291 21.4225 2.40485 20.1561 1.92996C19.0481 1.45508 17.729 1.7189 16.832 2.66867Z" fill="#D7282F"/>
<path d="M10.975 10.3712C10.9222 9.10482 10.6056 7.99675 9.70865 7.04699L5.4875 2.61473C4.59051 1.71772 3.27139 1.40113 2.11058 1.87602C0.844231 2.3509 0 3.51173 0 4.83086V6.83592C0 7.68016 0.316587 8.47164 0.896995 9.10482L6.54279 14.7507L10.975 10.3712Z" fill="#003366"/>
<path d="M137.399 15.9661V14.0665H136.713V13.8555H138.296V14.0665H137.61V15.9661H137.399Z" fill="#003366"/>
<path d="M140.46 15.9661V14.2248L139.721 15.9661H139.668L138.929 14.2248V15.9661H138.666V13.8555H139.035L139.668 15.4384L140.301 13.8555H140.671V15.9661H140.46Z" fill="#003366"/>
</svg>
