<svg width="960" height="71" viewBox="0 0 960 71" fill="none" xmlns="http://www.w3.org/2000/svg">
<g clip-path="url(#clip0_3346_13879)">
<path opacity="0.05" d="M256.011 70.2463H960C960 70.2463 909.102 32.1795 856.181 33.1125C803.259 34.0455 774.663 52.8844 729.782 39.9954C684.901 27.1064 671.92 10.4385 620.501 14.6955C569.082 18.9525 554.238 37.8334 501.766 57.4534C449.294 77.0734 376.768 28.7287 323.036 36.8987C269.304 45.0687 256.011 70.2463 256.011 70.2463Z" fill="#003366"/>
<path opacity="0.03" d="M0 70.2456H667.306C667.306 70.2456 639.412 19.1923 580.586 9.13426C521.76 -0.923736 506.618 34.9732 432.001 30.0112C357.384 25.0492 352.448 1.90261 298.586 5.11961C244.724 8.33661 227.246 33.3558 181.294 41.2798C135.342 49.2038 107.284 33.8338 64.9233 41.2798C22.5623 48.7258 0 70.2456 0 70.2456Z" fill="#003366"/>
<path d="M26.504 34L20.528 17.08H23.696L28.376 30.952H27.416L32.312 17.08H34.592L39.32 30.952H38.48L43.232 17.08H46.232L40.208 34H37.664L33.104 20.992H33.656L29.048 34H26.504ZM48.2788 34V17.08H51.2788V24.616H50.9428C51.2948 23.768 51.8388 23.128 52.5748 22.696C53.3268 22.248 54.1748 22.024 55.1188 22.024C56.0628 22.024 56.8388 22.2 57.4468 22.552C58.0548 22.904 58.5108 23.44 58.8148 24.16C59.1188 24.864 59.2708 25.76 59.2708 26.848V34H56.2708V26.992C56.2708 26.384 56.1908 25.888 56.0308 25.504C55.8868 25.12 55.6548 24.84 55.3348 24.664C55.0308 24.472 54.6388 24.376 54.1588 24.376C53.5828 24.376 53.0788 24.504 52.6468 24.76C52.2148 25 51.8788 25.352 51.6388 25.816C51.3988 26.264 51.2788 26.792 51.2788 27.4V34H48.2788ZM66.1818 34.24C65.3338 34.24 64.5738 34.08 63.9018 33.76C63.2458 33.424 62.7258 32.976 62.3418 32.416C61.9738 31.856 61.7898 31.224 61.7898 30.52C61.7898 29.656 62.0138 28.976 62.4618 28.48C62.9098 27.968 63.6378 27.6 64.6458 27.376C65.6538 27.152 67.0058 27.04 68.7018 27.04H69.9018V28.768H68.7258C67.9738 28.768 67.3418 28.8 66.8298 28.864C66.3178 28.912 65.9018 29 65.5818 29.128C65.2778 29.24 65.0538 29.4 64.9098 29.608C64.7818 29.816 64.7178 30.072 64.7178 30.376C64.7178 30.904 64.9018 31.336 65.2698 31.672C65.6378 32.008 66.1498 32.176 66.8058 32.176C67.3338 32.176 67.7978 32.056 68.1978 31.816C68.6138 31.56 68.9418 31.216 69.1818 30.784C69.4218 30.352 69.5418 29.856 69.5418 29.296V26.536C69.5418 25.736 69.3658 25.16 69.0138 24.808C68.6618 24.456 68.0698 24.28 67.2378 24.28C66.5818 24.28 65.9098 24.384 65.2218 24.592C64.5338 24.784 63.8378 25.088 63.1338 25.504L62.2698 23.464C62.6858 23.176 63.1738 22.928 63.7338 22.72C64.3098 22.496 64.9098 22.328 65.5338 22.216C66.1738 22.088 66.7738 22.024 67.3338 22.024C68.4858 22.024 69.4298 22.2 70.1658 22.552C70.9178 22.904 71.4778 23.44 71.8458 24.16C72.2138 24.864 72.3978 25.776 72.3978 26.896V34H69.5898V31.504H69.7818C69.6698 32.064 69.4458 32.552 69.1098 32.968C68.7898 33.368 68.3818 33.68 67.8858 33.904C67.3898 34.128 66.8218 34.24 66.1818 34.24ZM80.8188 34.24C79.2508 34.24 78.0828 33.848 77.3148 33.064C76.5468 32.28 76.1628 31.136 76.1628 29.632V24.52H73.9068V22.264H76.1628V18.76H79.1628V22.264H82.7148V24.52H79.1628V29.464C79.1628 30.232 79.3308 30.808 79.6668 31.192C80.0028 31.576 80.5468 31.768 81.2988 31.768C81.5228 31.768 81.7548 31.744 81.9948 31.696C82.2348 31.632 82.4828 31.568 82.7388 31.504L83.1948 33.712C82.9068 33.872 82.5388 34 82.0908 34.096C81.6588 34.192 81.2348 34.24 80.8188 34.24ZM94.3625 34L89.7305 22.264H92.8025L96.0665 31.264H95.5145L98.8265 22.264H100.939L104.203 31.264H103.699L106.963 22.264H109.867L105.259 34H102.643L99.0905 24.616H100.459L96.9785 34H94.3625ZM115.213 34.24C114.365 34.24 113.605 34.08 112.933 33.76C112.277 33.424 111.757 32.976 111.373 32.416C111.005 31.856 110.821 31.224 110.821 30.52C110.821 29.656 111.045 28.976 111.493 28.48C111.941 27.968 112.669 27.6 113.677 27.376C114.685 27.152 116.037 27.04 117.733 27.04H118.933V28.768H117.757C117.005 28.768 116.373 28.8 115.861 28.864C115.349 28.912 114.933 29 114.613 29.128C114.309 29.24 114.085 29.4 113.941 29.608C113.813 29.816 113.749 30.072 113.749 30.376C113.749 30.904 113.933 31.336 114.301 31.672C114.669 32.008 115.181 32.176 115.837 32.176C116.365 32.176 116.829 32.056 117.229 31.816C117.645 31.56 117.973 31.216 118.213 30.784C118.453 30.352 118.573 29.856 118.573 29.296V26.536C118.573 25.736 118.397 25.16 118.045 24.808C117.693 24.456 117.101 24.28 116.269 24.28C115.613 24.28 114.941 24.384 114.253 24.592C113.565 24.784 112.869 25.088 112.165 25.504L111.301 23.464C111.717 23.176 112.205 22.928 112.765 22.72C113.341 22.496 113.941 22.328 114.565 22.216C115.205 22.088 115.805 22.024 116.365 22.024C117.517 22.024 118.461 22.2 119.197 22.552C119.949 22.904 120.509 23.44 120.877 24.16C121.245 24.864 121.429 25.776 121.429 26.896V34H118.621V31.504H118.813C118.701 32.064 118.477 32.552 118.141 32.968C117.821 33.368 117.413 33.68 116.917 33.904C116.421 34.128 115.853 34.24 115.213 34.24ZM128.77 34.24C128.114 34.24 127.474 34.184 126.85 34.072C126.242 33.96 125.682 33.808 125.17 33.616C124.658 33.408 124.21 33.152 123.826 32.848L124.594 30.88C124.994 31.136 125.426 31.36 125.89 31.552C126.354 31.744 126.834 31.888 127.33 31.984C127.826 32.08 128.314 32.128 128.794 32.128C129.562 32.128 130.13 32 130.498 31.744C130.882 31.472 131.074 31.12 131.074 30.688C131.074 30.32 130.946 30.04 130.69 29.848C130.45 29.64 130.082 29.488 129.586 29.392L127.186 28.936C126.194 28.744 125.434 28.384 124.906 27.856C124.394 27.312 124.138 26.616 124.138 25.768C124.138 25 124.346 24.336 124.762 23.776C125.194 23.216 125.786 22.784 126.538 22.48C127.29 22.176 128.154 22.024 129.13 22.024C129.69 22.024 130.234 22.08 130.762 22.192C131.29 22.288 131.786 22.44 132.25 22.648C132.73 22.84 133.146 23.096 133.498 23.416L132.682 25.384C132.378 25.128 132.026 24.912 131.626 24.736C131.226 24.544 130.81 24.4 130.378 24.304C129.962 24.192 129.554 24.136 129.154 24.136C128.37 24.136 127.786 24.272 127.402 24.544C127.034 24.816 126.85 25.176 126.85 25.624C126.85 25.96 126.962 26.24 127.186 26.464C127.41 26.688 127.754 26.84 128.218 26.92L130.618 27.376C131.658 27.568 132.442 27.92 132.97 28.432C133.514 28.944 133.786 29.632 133.786 30.496C133.786 31.28 133.578 31.952 133.162 32.512C132.746 33.072 132.162 33.504 131.41 33.808C130.658 34.096 129.778 34.24 128.77 34.24ZM143.718 38.32L146.166 32.92V34.168L141.006 22.264H144.198L147.846 31.36H147.126L150.846 22.264H153.87L146.814 38.32H143.718ZM160.412 34.24C159.196 34.24 158.14 33.992 157.244 33.496C156.348 33 155.652 32.296 155.156 31.384C154.66 30.456 154.412 29.368 154.412 28.12C154.412 26.872 154.66 25.792 155.156 24.88C155.652 23.968 156.348 23.264 157.244 22.768C158.14 22.272 159.196 22.024 160.412 22.024C161.628 22.024 162.684 22.272 163.58 22.768C164.476 23.264 165.172 23.968 165.668 24.88C166.164 25.792 166.412 26.872 166.412 28.12C166.412 29.368 166.164 30.456 165.668 31.384C165.172 32.296 164.476 33 163.58 33.496C162.684 33.992 161.628 34.24 160.412 34.24ZM160.412 31.96C161.308 31.96 162.028 31.64 162.572 31C163.116 30.344 163.388 29.384 163.388 28.12C163.388 26.84 163.116 25.888 162.572 25.264C162.028 24.624 161.308 24.304 160.412 24.304C159.516 24.304 158.796 24.624 158.252 25.264C157.708 25.888 157.436 26.84 157.436 28.12C157.436 29.384 157.708 30.344 158.252 31C158.796 31.64 159.516 31.96 160.412 31.96ZM173.136 34.24C172.16 34.24 171.352 34.064 170.712 33.712C170.072 33.344 169.592 32.8 169.272 32.08C168.968 31.36 168.816 30.464 168.816 29.392V22.264H171.816V29.44C171.816 29.984 171.888 30.44 172.032 30.808C172.192 31.176 172.424 31.448 172.728 31.624C173.048 31.8 173.448 31.888 173.928 31.888C174.472 31.888 174.944 31.768 175.344 31.528C175.76 31.272 176.08 30.92 176.304 30.472C176.544 30.008 176.664 29.472 176.664 28.864V22.264H179.664V34H176.736V31.552H177.072C176.736 32.416 176.224 33.08 175.536 33.544C174.864 34.008 174.064 34.24 173.136 34.24ZM182.787 34V22.264H185.715V25.096H185.475C185.699 24.136 186.139 23.408 186.795 22.912C187.451 22.4 188.323 22.104 189.411 22.024L190.323 21.952L190.515 24.496L188.787 24.664C187.811 24.76 187.075 25.064 186.579 25.576C186.083 26.072 185.835 26.776 185.835 27.688V34H182.787ZM202.734 34.24C201.342 34.24 200.31 33.864 199.638 33.112C198.982 32.344 198.654 31.224 198.654 29.752V17.08H201.654V29.608C201.654 30.072 201.718 30.472 201.846 30.808C201.99 31.128 202.198 31.368 202.47 31.528C202.742 31.688 203.078 31.768 203.478 31.768C203.654 31.768 203.83 31.76 204.006 31.744C204.182 31.728 204.35 31.696 204.51 31.648L204.462 34.024C204.174 34.088 203.886 34.136 203.598 34.168C203.326 34.216 203.038 34.24 202.734 34.24ZM210.182 34.24C209.334 34.24 208.574 34.08 207.902 33.76C207.246 33.424 206.726 32.976 206.342 32.416C205.974 31.856 205.79 31.224 205.79 30.52C205.79 29.656 206.014 28.976 206.462 28.48C206.91 27.968 207.638 27.6 208.646 27.376C209.654 27.152 211.006 27.04 212.702 27.04H213.902V28.768H212.726C211.974 28.768 211.342 28.8 210.83 28.864C210.318 28.912 209.902 29 209.582 29.128C209.278 29.24 209.054 29.4 208.91 29.608C208.782 29.816 208.718 30.072 208.718 30.376C208.718 30.904 208.902 31.336 209.27 31.672C209.638 32.008 210.15 32.176 210.806 32.176C211.334 32.176 211.798 32.056 212.198 31.816C212.614 31.56 212.942 31.216 213.182 30.784C213.422 30.352 213.542 29.856 213.542 29.296V26.536C213.542 25.736 213.366 25.16 213.014 24.808C212.662 24.456 212.07 24.28 211.238 24.28C210.582 24.28 209.91 24.384 209.222 24.592C208.534 24.784 207.838 25.088 207.134 25.504L206.27 23.464C206.686 23.176 207.174 22.928 207.734 22.72C208.31 22.496 208.91 22.328 209.534 22.216C210.174 22.088 210.774 22.024 211.334 22.024C212.486 22.024 213.43 22.2 214.166 22.552C214.918 22.904 215.478 23.44 215.846 24.16C216.214 24.864 216.398 25.776 216.398 26.896V34H213.59V31.504H213.782C213.67 32.064 213.446 32.552 213.11 32.968C212.79 33.368 212.382 33.68 211.886 33.904C211.39 34.128 210.822 34.24 210.182 34.24ZM223.739 34.24C223.083 34.24 222.443 34.184 221.819 34.072C221.211 33.96 220.651 33.808 220.139 33.616C219.627 33.408 219.179 33.152 218.795 32.848L219.563 30.88C219.963 31.136 220.395 31.36 220.859 31.552C221.323 31.744 221.803 31.888 222.299 31.984C222.795 32.08 223.283 32.128 223.763 32.128C224.531 32.128 225.099 32 225.467 31.744C225.851 31.472 226.043 31.12 226.043 30.688C226.043 30.32 225.915 30.04 225.659 29.848C225.419 29.64 225.051 29.488 224.555 29.392L222.155 28.936C221.163 28.744 220.403 28.384 219.875 27.856C219.363 27.312 219.107 26.616 219.107 25.768C219.107 25 219.315 24.336 219.731 23.776C220.163 23.216 220.755 22.784 221.507 22.48C222.259 22.176 223.123 22.024 224.099 22.024C224.659 22.024 225.203 22.08 225.731 22.192C226.259 22.288 226.755 22.44 227.219 22.648C227.699 22.84 228.115 23.096 228.467 23.416L227.651 25.384C227.347 25.128 226.995 24.912 226.595 24.736C226.195 24.544 225.779 24.4 225.347 24.304C224.931 24.192 224.523 24.136 224.123 24.136C223.339 24.136 222.755 24.272 222.371 24.544C222.003 24.816 221.819 25.176 221.819 25.624C221.819 25.96 221.931 26.24 222.155 26.464C222.379 26.688 222.723 26.84 223.187 26.92L225.587 27.376C226.627 27.568 227.411 27.92 227.939 28.432C228.483 28.944 228.755 29.632 228.755 30.496C228.755 31.28 228.547 31.952 228.131 32.512C227.715 33.072 227.131 33.504 226.379 33.808C225.627 34.096 224.747 34.24 223.739 34.24ZM236.42 34.24C234.852 34.24 233.684 33.848 232.916 33.064C232.148 32.28 231.764 31.136 231.764 29.632V24.52H229.508V22.264H231.764V18.76H234.764V22.264H238.316V24.52H234.764V29.464C234.764 30.232 234.932 30.808 235.268 31.192C235.604 31.576 236.148 31.768 236.9 31.768C237.124 31.768 237.356 31.744 237.596 31.696C237.836 31.632 238.084 31.568 238.34 31.504L238.796 33.712C238.508 33.872 238.14 34 237.692 34.096C237.26 34.192 236.836 34.24 236.42 34.24ZM246.628 19.744V16.816H249.988V19.744H246.628ZM244.084 38.632L243.868 36.448L244.972 36.328C245.596 36.248 246.06 36.032 246.364 35.68C246.668 35.344 246.82 34.84 246.82 34.168V22.264H249.82V33.784C249.82 34.568 249.732 35.248 249.556 35.824C249.38 36.4 249.108 36.88 248.74 37.264C248.372 37.648 247.884 37.944 247.276 38.152C246.684 38.36 245.964 38.496 245.116 38.56L244.084 38.632ZM258.287 34.24C257.071 34.24 256.015 33.992 255.119 33.496C254.223 33 253.527 32.296 253.031 31.384C252.535 30.456 252.287 29.368 252.287 28.12C252.287 26.872 252.535 25.792 253.031 24.88C253.527 23.968 254.223 23.264 255.119 22.768C256.015 22.272 257.071 22.024 258.287 22.024C259.503 22.024 260.559 22.272 261.455 22.768C262.351 23.264 263.047 23.968 263.543 24.88C264.039 25.792 264.287 26.872 264.287 28.12C264.287 29.368 264.039 30.456 263.543 31.384C263.047 32.296 262.351 33 261.455 33.496C260.559 33.992 259.503 34.24 258.287 34.24ZM258.287 31.96C259.183 31.96 259.903 31.64 260.447 31C260.991 30.344 261.263 29.384 261.263 28.12C261.263 26.84 260.991 25.888 260.447 25.264C259.903 24.624 259.183 24.304 258.287 24.304C257.391 24.304 256.671 24.624 256.127 25.264C255.583 25.888 255.311 26.84 255.311 28.12C255.311 29.384 255.583 30.344 256.127 31C256.671 31.64 257.391 31.96 258.287 31.96ZM273.531 34.24C272.539 34.24 271.667 33.992 270.915 33.496C270.179 33 269.691 32.336 269.451 31.504H269.691V34H266.763V17.08H269.763V24.64H269.475C269.731 23.856 270.227 23.224 270.963 22.744C271.699 22.264 272.555 22.024 273.531 22.024C274.571 22.024 275.475 22.272 276.243 22.768C277.011 23.264 277.611 23.968 278.043 24.88C278.475 25.776 278.691 26.856 278.691 28.12C278.691 29.368 278.475 30.456 278.043 31.384C277.611 32.296 277.003 33 276.219 33.496C275.451 33.992 274.555 34.24 273.531 34.24ZM272.691 31.96C273.587 31.96 274.307 31.64 274.851 31C275.395 30.344 275.667 29.384 275.667 28.12C275.667 26.84 275.395 25.888 274.851 25.264C274.307 24.624 273.587 24.304 272.691 24.304C271.795 24.304 271.075 24.624 270.531 25.264C269.987 25.888 269.715 26.84 269.715 28.12C269.715 29.384 269.987 30.344 270.531 31C271.075 31.64 271.795 31.96 272.691 31.96ZM283.447 28.984V28.024C283.447 27.528 283.503 27.056 283.615 26.608C283.743 26.16 283.943 25.712 284.215 25.264C284.487 24.816 284.847 24.344 285.295 23.848C285.631 23.464 285.895 23.128 286.087 22.84C286.295 22.536 286.439 22.248 286.519 21.976C286.615 21.704 286.663 21.424 286.663 21.136C286.663 20.784 286.575 20.48 286.399 20.224C286.223 19.968 285.967 19.776 285.631 19.648C285.311 19.504 284.919 19.432 284.455 19.432C283.655 19.432 282.895 19.576 282.175 19.864C281.455 20.152 280.767 20.584 280.111 21.16L279.103 18.856C279.551 18.44 280.071 18.088 280.663 17.8C281.271 17.496 281.911 17.264 282.583 17.104C283.271 16.928 283.959 16.84 284.647 16.84C285.655 16.84 286.535 17.008 287.287 17.344C288.055 17.68 288.647 18.144 289.063 18.736C289.495 19.328 289.711 20.024 289.711 20.824C289.711 21.32 289.639 21.792 289.495 22.24C289.351 22.672 289.119 23.112 288.799 23.56C288.479 23.992 288.039 24.464 287.479 24.976C286.983 25.424 286.583 25.84 286.279 26.224C285.991 26.608 285.775 26.968 285.631 27.304C285.503 27.64 285.415 27.976 285.367 28.312L285.271 28.984H283.447ZM282.679 34V30.664H286.039V34H282.679Z" fill="#003366"/>
<path d="M23.094 57L24.508 48.124H20.924L21.078 47.13H29.408L29.254 48.124H25.656L24.256 57H23.094ZM28.9399 57L30.5079 47.13H31.6419L30.9139 51.736H30.7459C30.9792 51.204 31.3199 50.7933 31.7679 50.504C32.2252 50.2147 32.7665 50.07 33.3919 50.07C33.8959 50.07 34.3159 50.1727 34.6519 50.378C34.9972 50.574 35.2399 50.882 35.3799 51.302C35.5292 51.7127 35.5525 52.24 35.4499 52.884L34.8059 57H33.6719L34.3159 52.884C34.3905 52.464 34.3905 52.114 34.3159 51.834C34.2412 51.554 34.1012 51.344 33.8959 51.204C33.6905 51.064 33.4105 50.994 33.0559 50.994C32.6079 50.994 32.2159 51.092 31.8799 51.288C31.5439 51.4747 31.2732 51.7407 31.0679 52.086C30.8719 52.4313 30.7365 52.8373 30.6619 53.304L30.0739 57H28.9399ZM40.1589 57.126C39.5149 57.126 38.9549 57.0047 38.4789 56.762C38.0029 56.5193 37.6342 56.174 37.3729 55.726C37.1209 55.2687 36.9949 54.732 36.9949 54.116C36.9949 53.3787 37.1442 52.7067 37.4429 52.1C37.7416 51.484 38.1616 50.994 38.7029 50.63C39.2442 50.2567 39.8882 50.07 40.6349 50.07C41.3442 50.07 41.9042 50.2333 42.3149 50.56C42.7349 50.8867 43.0196 51.316 43.1689 51.848C43.3182 52.3707 43.3509 52.9353 43.2669 53.542L43.2249 53.836H37.8769L37.9889 53.094H42.5809L42.3289 53.276C42.3942 52.8373 42.3802 52.4407 42.2869 52.086C42.1936 51.7313 42.0116 51.4467 41.7409 51.232C41.4702 51.0173 41.0969 50.91 40.6209 50.91C40.1169 50.91 39.6969 51.0267 39.3609 51.26C39.0249 51.484 38.7589 51.7733 38.5629 52.128C38.3762 52.4827 38.2502 52.8513 38.1849 53.234L38.1289 53.57C38.0449 54.102 38.0729 54.5687 38.2129 54.97C38.3529 55.362 38.5909 55.67 38.9269 55.894C39.2722 56.1087 39.7016 56.216 40.2149 56.216C40.6442 56.216 41.0456 56.1553 41.4189 56.034C41.7922 55.9033 42.1282 55.7027 42.4269 55.432L42.8049 56.202C42.4876 56.5007 42.0909 56.7293 41.6149 56.888C41.1389 57.0467 40.6536 57.126 40.1589 57.126ZM47.9718 57L49.0638 50.196H50.1698L49.9038 51.764L49.7638 51.75C50.0158 51.1993 50.3518 50.784 50.7718 50.504C51.1918 50.2147 51.6678 50.07 52.1998 50.07C52.7411 50.07 53.1798 50.2147 53.5158 50.504C53.8611 50.7933 54.0711 51.2227 54.1458 51.792L53.9778 51.75C54.2018 51.218 54.5331 50.8073 54.9718 50.518C55.4104 50.2193 55.9284 50.07 56.5258 50.07C57.0018 50.07 57.4031 50.1727 57.7298 50.378C58.0564 50.574 58.2851 50.882 58.4158 51.302C58.5558 51.7127 58.5744 52.24 58.4718 52.884L57.8138 57H56.6798L57.3378 52.828C57.4031 52.4173 57.4031 52.0767 57.3378 51.806C57.2724 51.5353 57.1464 51.3347 56.9598 51.204C56.7731 51.064 56.5164 50.994 56.1898 50.994C55.8164 50.994 55.4804 51.0873 55.1818 51.274C54.8831 51.4607 54.6358 51.7267 54.4398 52.072C54.2531 52.4173 54.1224 52.828 54.0478 53.304L53.4598 57H52.3258L52.9838 52.828C53.0491 52.4173 53.0491 52.0767 52.9838 51.806C52.9278 51.5353 52.8064 51.3347 52.6198 51.204C52.4331 51.064 52.1764 50.994 51.8498 50.994C51.5604 50.994 51.2944 51.05 51.0518 51.162C50.8184 51.2647 50.6084 51.4187 50.4218 51.624C50.2444 51.82 50.0904 52.0627 49.9598 52.352C49.8384 52.632 49.7498 52.9493 49.6938 53.304L49.1058 57H47.9718ZM62.986 57.126C62.3793 57.126 61.852 57.0047 61.404 56.762C60.9653 56.5193 60.6247 56.174 60.382 55.726C60.1487 55.278 60.032 54.746 60.032 54.13C60.032 53.5513 60.116 53.0193 60.284 52.534C60.4613 52.0393 60.7087 51.6053 61.026 51.232C61.3433 50.8587 61.7167 50.574 62.146 50.378C62.5847 50.1727 63.0793 50.07 63.63 50.07C64.2367 50.07 64.7593 50.1913 65.198 50.434C65.646 50.6767 65.9867 51.022 66.22 51.47C66.4533 51.9087 66.57 52.4407 66.57 53.066C66.57 53.6447 66.486 54.1813 66.318 54.676C66.15 55.1613 65.9073 55.5907 65.59 55.964C65.2727 56.328 64.8947 56.6127 64.456 56.818C64.0173 57.0233 63.5273 57.126 62.986 57.126ZM63.028 56.216C63.5413 56.216 63.9753 56.0713 64.33 55.782C64.694 55.4927 64.9647 55.1053 65.142 54.62C65.3287 54.1347 65.422 53.6027 65.422 53.024C65.422 52.352 65.2587 51.8433 64.932 51.498C64.6147 51.1527 64.1667 50.98 63.588 50.98C63.0747 50.98 62.636 51.1247 62.272 51.414C61.9173 51.7033 61.6467 52.086 61.46 52.562C61.2733 53.038 61.18 53.5747 61.18 54.172C61.18 54.8347 61.3433 55.3433 61.67 55.698C61.9967 56.0433 62.4493 56.216 63.028 56.216ZM67.7133 57L68.8053 50.196H69.9113L69.6453 51.82H69.5053C69.6733 51.3253 69.9626 50.9193 70.3733 50.602C70.784 50.2847 71.3066 50.1027 71.9413 50.056L72.4873 50.014L72.5013 50.994L71.7173 51.064C71.2226 51.1107 70.8213 51.2273 70.5133 51.414C70.2053 51.5913 69.9673 51.834 69.7993 52.142C69.6406 52.45 69.524 52.8187 69.4493 53.248L68.8613 57H67.7133ZM75.9109 57.126C75.2669 57.126 74.7069 57.0047 74.2309 56.762C73.7549 56.5193 73.3862 56.174 73.1249 55.726C72.8729 55.2687 72.7469 54.732 72.7469 54.116C72.7469 53.3787 72.8962 52.7067 73.1949 52.1C73.4935 51.484 73.9135 50.994 74.4549 50.63C74.9962 50.2567 75.6402 50.07 76.3869 50.07C77.0962 50.07 77.6562 50.2333 78.0669 50.56C78.4869 50.8867 78.7715 51.316 78.9209 51.848C79.0702 52.3707 79.1029 52.9353 79.0189 53.542L78.9769 53.836H73.6289L73.7409 53.094H78.3329L78.0809 53.276C78.1462 52.8373 78.1322 52.4407 78.0389 52.086C77.9455 51.7313 77.7635 51.4467 77.4929 51.232C77.2222 51.0173 76.8489 50.91 76.3729 50.91C75.8689 50.91 75.4489 51.0267 75.1129 51.26C74.7769 51.484 74.5109 51.7733 74.3149 52.128C74.1282 52.4827 74.0022 52.8513 73.9369 53.234L73.8809 53.57C73.7969 54.102 73.8249 54.5687 73.9649 54.97C74.1049 55.362 74.3429 55.67 74.6789 55.894C75.0242 56.1087 75.4535 56.216 75.9669 56.216C76.3962 56.216 76.7975 56.1553 77.1709 56.034C77.5442 55.9033 77.8802 55.7027 78.1789 55.432L78.5569 56.202C78.2395 56.5007 77.8429 56.7293 77.3669 56.888C76.8909 57.0467 76.4055 57.126 75.9109 57.126ZM84.0877 59.52L85.7957 56.65L85.7257 57.14L83.8497 50.196H85.0117L86.5097 56.174H86.1177L89.5617 50.196H90.7937L85.2777 59.52H84.0877ZM93.8434 57.126C93.2368 57.126 92.7094 57.0047 92.2614 56.762C91.8228 56.5193 91.4821 56.174 91.2394 55.726C91.0061 55.278 90.8894 54.746 90.8894 54.13C90.8894 53.5513 90.9734 53.0193 91.1414 52.534C91.3188 52.0393 91.5661 51.6053 91.8834 51.232C92.2008 50.8587 92.5741 50.574 93.0034 50.378C93.4421 50.1727 93.9368 50.07 94.4874 50.07C95.0941 50.07 95.6168 50.1913 96.0554 50.434C96.5034 50.6767 96.8441 51.022 97.0774 51.47C97.3108 51.9087 97.4274 52.4407 97.4274 53.066C97.4274 53.6447 97.3434 54.1813 97.1754 54.676C97.0074 55.1613 96.7648 55.5907 96.4474 55.964C96.1301 56.328 95.7521 56.6127 95.3134 56.818C94.8748 57.0233 94.3848 57.126 93.8434 57.126ZM93.8854 56.216C94.3988 56.216 94.8328 56.0713 95.1874 55.782C95.5514 55.4927 95.8221 55.1053 95.9994 54.62C96.1861 54.1347 96.2794 53.6027 96.2794 53.024C96.2794 52.352 96.1161 51.8433 95.7894 51.498C95.4721 51.1527 95.0241 50.98 94.4454 50.98C93.9321 50.98 93.4934 51.1247 93.1294 51.414C92.7748 51.7033 92.5041 52.086 92.3174 52.562C92.1308 53.038 92.0374 53.5747 92.0374 54.172C92.0374 54.8347 92.2008 55.3433 92.5274 55.698C92.8541 56.0433 93.3068 56.216 93.8854 56.216ZM100.993 57.126C100.507 57.126 100.092 57.0233 99.7467 56.818C99.4107 56.6127 99.1727 56.3047 99.0327 55.894C98.8927 55.474 98.8741 54.942 98.9767 54.298L99.6207 50.196H100.755L100.111 54.298C100.045 54.718 100.045 55.068 100.111 55.348C100.176 55.628 100.311 55.838 100.517 55.978C100.722 56.118 100.993 56.188 101.329 56.188C101.767 56.188 102.145 56.0947 102.463 55.908C102.78 55.712 103.041 55.4413 103.247 55.096C103.452 54.7507 103.592 54.3447 103.667 53.878L104.241 50.196H105.375L104.297 57H103.191L103.429 55.46H103.569C103.354 55.9827 103.018 56.3933 102.561 56.692C102.113 56.9813 101.59 57.126 100.993 57.126ZM112.828 57.126C112.296 57.126 111.857 57.0233 111.512 56.818C111.176 56.6127 110.938 56.328 110.798 55.964C110.667 55.6 110.639 55.166 110.714 54.662L111.288 51.078H109.944L110.098 50.196H111.428L111.75 48.11H112.884L112.562 50.196H114.718L114.564 51.078H112.408L111.862 54.55C111.778 55.1193 111.839 55.53 112.044 55.782C112.249 56.034 112.581 56.16 113.038 56.16C113.197 56.16 113.346 56.146 113.486 56.118C113.626 56.0807 113.752 56.0433 113.864 56.006L113.976 56.888C113.855 56.9533 113.682 57.0093 113.458 57.056C113.243 57.1027 113.033 57.126 112.828 57.126ZM118.102 57.126C117.458 57.126 116.898 57.0047 116.422 56.762C115.946 56.5193 115.578 56.174 115.316 55.726C115.064 55.2687 114.938 54.732 114.938 54.116C114.938 53.3787 115.088 52.7067 115.386 52.1C115.685 51.484 116.105 50.994 116.646 50.63C117.188 50.2567 117.832 50.07 118.578 50.07C119.288 50.07 119.848 50.2333 120.258 50.56C120.678 50.8867 120.963 51.316 121.112 51.848C121.262 52.3707 121.294 52.9353 121.21 53.542L121.168 53.836H115.82L115.932 53.094H120.524L120.272 53.276C120.338 52.8373 120.324 52.4407 120.23 52.086C120.137 51.7313 119.955 51.4467 119.684 51.232C119.414 51.0173 119.04 50.91 118.564 50.91C118.06 50.91 117.64 51.0267 117.304 51.26C116.968 51.484 116.702 51.7733 116.506 52.128C116.32 52.4827 116.194 52.8513 116.128 53.234L116.072 53.57C115.988 54.102 116.016 54.5687 116.156 54.97C116.296 55.362 116.534 55.67 116.87 55.894C117.216 56.1087 117.645 56.216 118.158 56.216C118.588 56.216 118.989 56.1553 119.362 56.034C119.736 55.9033 120.072 55.7027 120.37 55.432L120.748 56.202C120.431 56.5007 120.034 56.7293 119.558 56.888C119.082 57.0467 118.597 57.126 118.102 57.126ZM124.391 57.126C123.719 57.126 123.229 56.93 122.921 56.538C122.613 56.1367 122.52 55.5487 122.641 54.774L123.859 47.13H124.993L123.775 54.774C123.729 55.1007 123.729 55.3667 123.775 55.572C123.822 55.7773 123.925 55.9267 124.083 56.02C124.251 56.1133 124.466 56.16 124.727 56.16C124.839 56.16 124.947 56.1553 125.049 56.146C125.161 56.1273 125.273 56.1087 125.385 56.09L125.217 57.014C125.096 57.0513 124.961 57.0793 124.811 57.098C124.671 57.1167 124.531 57.126 124.391 57.126ZM128.534 57.126C127.862 57.126 127.372 56.93 127.064 56.538C126.756 56.1367 126.663 55.5487 126.784 54.774L128.002 47.13H129.136L127.918 54.774C127.871 55.1007 127.871 55.3667 127.918 55.572C127.965 55.7773 128.067 55.9267 128.226 56.02C128.394 56.1133 128.609 56.16 128.87 56.16C128.982 56.16 129.089 56.1553 129.192 56.146C129.304 56.1273 129.416 56.1087 129.528 56.09L129.36 57.014C129.239 57.0513 129.103 57.0793 128.954 57.098C128.814 57.1167 128.674 57.126 128.534 57.126ZM136.594 57.126C136.109 57.126 135.694 57.0233 135.348 56.818C135.012 56.6127 134.774 56.3047 134.634 55.894C134.494 55.474 134.476 54.942 134.578 54.298L135.222 50.196H136.356L135.712 54.298C135.647 54.718 135.647 55.068 135.712 55.348C135.778 55.628 135.913 55.838 136.118 55.978C136.324 56.118 136.594 56.188 136.93 56.188C137.369 56.188 137.747 56.0947 138.064 55.908C138.382 55.712 138.643 55.4413 138.848 55.096C139.054 54.7507 139.194 54.3447 139.268 53.878L139.842 50.196H140.976L139.898 57H138.792L139.03 55.46H139.17C138.956 55.9827 138.62 56.3933 138.162 56.692C137.714 56.9813 137.192 57.126 136.594 57.126ZM144.624 57.126C144.073 57.126 143.56 57.0513 143.084 56.902C142.608 56.7527 142.221 56.5473 141.922 56.286L142.342 55.502C142.566 55.6793 142.799 55.824 143.042 55.936C143.294 56.0387 143.551 56.118 143.812 56.174C144.083 56.23 144.358 56.258 144.638 56.258C145.142 56.258 145.534 56.16 145.814 55.964C146.103 55.7587 146.248 55.474 146.248 55.11C146.248 54.8767 146.169 54.6853 146.01 54.536C145.861 54.3773 145.641 54.2653 145.352 54.2L144.022 53.878C143.555 53.766 143.187 53.5653 142.916 53.276C142.655 52.9773 142.524 52.6133 142.524 52.184C142.524 51.7827 142.636 51.4233 142.86 51.106C143.084 50.7793 143.406 50.5273 143.826 50.35C144.246 50.1633 144.741 50.07 145.31 50.07C145.618 50.07 145.921 50.1027 146.22 50.168C146.519 50.2333 146.794 50.3313 147.046 50.462C147.307 50.5927 147.522 50.7467 147.69 50.924L147.298 51.694C147.027 51.4327 146.719 51.2413 146.374 51.12C146.029 50.9987 145.66 50.938 145.268 50.938C144.745 50.938 144.335 51.0453 144.036 51.26C143.737 51.4747 143.588 51.764 143.588 52.128C143.588 52.352 143.658 52.548 143.798 52.716C143.938 52.8747 144.148 52.9867 144.428 53.052L145.758 53.374C146.253 53.4953 146.635 53.696 146.906 53.976C147.186 54.2467 147.326 54.6013 147.326 55.04C147.326 55.4693 147.214 55.8427 146.99 56.16C146.766 56.468 146.449 56.706 146.038 56.874C145.637 57.042 145.165 57.126 144.624 57.126ZM148.916 58.596L148.454 58.106C148.64 57.938 148.785 57.784 148.888 57.644C148.99 57.504 149.065 57.3593 149.112 57.21C149.158 57.07 149.196 56.9207 149.224 56.762L149.546 57H148.524L148.748 55.572H150.176L149.994 56.692C149.956 56.944 149.9 57.1773 149.826 57.392C149.751 57.6067 149.644 57.812 149.504 58.008C149.364 58.204 149.168 58.4 148.916 58.596ZM158.287 57.126C157.755 57.126 157.316 57.0233 156.971 56.818C156.635 56.6127 156.397 56.328 156.257 55.964C156.126 55.6 156.098 55.166 156.173 54.662L156.747 51.078H155.403L155.557 50.196H156.887L157.209 48.11H158.343L158.021 50.196H160.177L160.023 51.078H157.867L157.321 54.55C157.237 55.1193 157.298 55.53 157.503 55.782C157.708 56.034 158.04 56.16 158.497 56.16C158.656 56.16 158.805 56.146 158.945 56.118C159.085 56.0807 159.211 56.0433 159.323 56.006L159.435 56.888C159.314 56.9533 159.141 57.0093 158.917 57.056C158.702 57.1027 158.492 57.126 158.287 57.126ZM160.368 57L161.936 47.13H163.07L162.342 51.736H162.174C162.407 51.204 162.748 50.7933 163.196 50.504C163.653 50.2147 164.194 50.07 164.82 50.07C165.324 50.07 165.744 50.1727 166.08 50.378C166.425 50.574 166.668 50.882 166.808 51.302C166.957 51.7127 166.98 52.24 166.878 52.884L166.234 57H165.1L165.744 52.884C165.818 52.464 165.818 52.114 165.744 51.834C165.669 51.554 165.529 51.344 165.324 51.204C165.118 51.064 164.838 50.994 164.484 50.994C164.036 50.994 163.644 51.092 163.308 51.288C162.972 51.4747 162.701 51.7407 162.496 52.086C162.3 52.4313 162.164 52.8373 162.09 53.304L161.502 57H160.368ZM171.587 57.126C170.943 57.126 170.383 57.0047 169.907 56.762C169.431 56.5193 169.062 56.174 168.801 55.726C168.549 55.2687 168.423 54.732 168.423 54.116C168.423 53.3787 168.572 52.7067 168.871 52.1C169.169 51.484 169.589 50.994 170.131 50.63C170.672 50.2567 171.316 50.07 172.063 50.07C172.772 50.07 173.332 50.2333 173.743 50.56C174.163 50.8867 174.447 51.316 174.597 51.848C174.746 52.3707 174.779 52.9353 174.695 53.542L174.653 53.836H169.305L169.417 53.094H174.009L173.757 53.276C173.822 52.8373 173.808 52.4407 173.715 52.086C173.621 51.7313 173.439 51.4467 173.169 51.232C172.898 51.0173 172.525 50.91 172.049 50.91C171.545 50.91 171.125 51.0267 170.789 51.26C170.453 51.484 170.187 51.7733 169.991 52.128C169.804 52.4827 169.678 52.8513 169.613 53.234L169.557 53.57C169.473 54.102 169.501 54.5687 169.641 54.97C169.781 55.362 170.019 55.67 170.355 55.894C170.7 56.1087 171.129 56.216 171.643 56.216C172.072 56.216 172.473 56.1553 172.847 56.034C173.22 55.9033 173.556 55.7027 173.855 55.432L174.233 56.202C173.915 56.5007 173.519 56.7293 173.043 56.888C172.567 57.0467 172.081 57.126 171.587 57.126ZM182.984 57.126C182.442 57.126 181.957 56.9907 181.528 56.72C181.098 56.44 180.804 56.02 180.646 55.46H180.73L180.492 57H179.372L180.94 47.13H182.074L181.36 51.638H181.206C181.364 51.3113 181.57 51.0313 181.822 50.798C182.074 50.5647 182.363 50.3873 182.69 50.266C183.026 50.1353 183.385 50.07 183.768 50.07C184.3 50.07 184.762 50.1867 185.154 50.42C185.555 50.6533 185.863 50.9893 186.078 51.428C186.292 51.8667 186.4 52.3847 186.4 52.982C186.4 53.7287 186.264 54.4193 185.994 55.054C185.732 55.6793 185.345 56.1833 184.832 56.566C184.328 56.9393 183.712 57.126 182.984 57.126ZM182.844 56.216C183.366 56.216 183.805 56.0713 184.16 55.782C184.514 55.4927 184.785 55.1053 184.972 54.62C185.158 54.1347 185.252 53.6027 185.252 53.024C185.252 52.352 185.088 51.8433 184.762 51.498C184.435 51.1527 183.987 50.98 183.418 50.98C182.904 50.98 182.466 51.1247 182.102 51.414C181.747 51.7033 181.476 52.086 181.29 52.562C181.103 53.038 181.01 53.5747 181.01 54.172C181.01 54.8347 181.173 55.3433 181.5 55.698C181.826 56.0433 182.274 56.216 182.844 56.216ZM190.796 57.126C190.152 57.126 189.592 57.0047 189.116 56.762C188.64 56.5193 188.271 56.174 188.01 55.726C187.758 55.2687 187.632 54.732 187.632 54.116C187.632 53.3787 187.781 52.7067 188.08 52.1C188.378 51.484 188.798 50.994 189.34 50.63C189.881 50.2567 190.525 50.07 191.272 50.07C191.981 50.07 192.541 50.2333 192.952 50.56C193.372 50.8867 193.656 51.316 193.806 51.848C193.955 52.3707 193.988 52.9353 193.904 53.542L193.862 53.836H188.514L188.626 53.094H193.218L192.966 53.276C193.031 52.8373 193.017 52.4407 192.924 52.086C192.83 51.7313 192.648 51.4467 192.378 51.232C192.107 51.0173 191.734 50.91 191.258 50.91C190.754 50.91 190.334 51.0267 189.998 51.26C189.662 51.484 189.396 51.7733 189.2 52.128C189.013 52.4827 188.887 52.8513 188.822 53.234L188.766 53.57C188.682 54.102 188.71 54.5687 188.85 54.97C188.99 55.362 189.228 55.67 189.564 55.894C189.909 56.1087 190.338 56.216 190.852 56.216C191.281 56.216 191.682 56.1553 192.056 56.034C192.429 55.9033 192.765 55.7027 193.064 55.432L193.442 56.202C193.124 56.5007 192.728 56.7293 192.252 56.888C191.776 57.0467 191.29 57.126 190.796 57.126ZM197.799 57.126C197.267 57.126 196.828 57.0233 196.483 56.818C196.147 56.6127 195.909 56.328 195.769 55.964C195.638 55.6 195.61 55.166 195.685 54.662L196.259 51.078H194.915L195.069 50.196H196.399L196.721 48.11H197.855L197.533 50.196H199.689L199.535 51.078H197.379L196.833 54.55C196.749 55.1193 196.809 55.53 197.015 55.782C197.22 56.034 197.551 56.16 198.009 56.16C198.167 56.16 198.317 56.146 198.457 56.118C198.597 56.0807 198.723 56.0433 198.835 56.006L198.947 56.888C198.825 56.9533 198.653 57.0093 198.429 57.056C198.214 57.1027 198.004 57.126 197.799 57.126ZM202.516 57.126C201.984 57.126 201.545 57.0233 201.2 56.818C200.864 56.6127 200.626 56.328 200.486 55.964C200.355 55.6 200.327 55.166 200.402 54.662L200.976 51.078H199.632L199.786 50.196H201.116L201.438 48.11H202.572L202.25 50.196H204.406L204.252 51.078H202.096L201.55 54.55C201.466 55.1193 201.526 55.53 201.732 55.782C201.937 56.034 202.268 56.16 202.726 56.16C202.884 56.16 203.034 56.146 203.174 56.118C203.314 56.0807 203.44 56.0433 203.552 56.006L203.664 56.888C203.542 56.9533 203.37 57.0093 203.146 57.056C202.931 57.1027 202.721 57.126 202.516 57.126ZM207.79 57.126C207.146 57.126 206.586 57.0047 206.11 56.762C205.634 56.5193 205.265 56.174 205.004 55.726C204.752 55.2687 204.626 54.732 204.626 54.116C204.626 53.3787 204.775 52.7067 205.074 52.1C205.372 51.484 205.792 50.994 206.334 50.63C206.875 50.2567 207.519 50.07 208.266 50.07C208.975 50.07 209.535 50.2333 209.946 50.56C210.366 50.8867 210.65 51.316 210.8 51.848C210.949 52.3707 210.982 52.9353 210.898 53.542L210.856 53.836H205.508L205.62 53.094H210.212L209.96 53.276C210.025 52.8373 210.011 52.4407 209.918 52.086C209.824 51.7313 209.642 51.4467 209.372 51.232C209.101 51.0173 208.728 50.91 208.252 50.91C207.748 50.91 207.328 51.0267 206.992 51.26C206.656 51.484 206.39 51.7733 206.194 52.128C206.007 52.4827 205.881 52.8513 205.816 53.234L205.76 53.57C205.676 54.102 205.704 54.5687 205.844 54.97C205.984 55.362 206.222 55.67 206.558 55.894C206.903 56.1087 207.332 56.216 207.846 56.216C208.275 56.216 208.676 56.1553 209.05 56.034C209.423 55.9033 209.759 55.7027 210.058 55.432L210.436 56.202C210.118 56.5007 209.722 56.7293 209.246 56.888C208.77 57.0467 208.284 57.126 207.79 57.126ZM211.979 57L213.071 50.196H214.177L213.911 51.82H213.771C213.939 51.3253 214.228 50.9193 214.639 50.602C215.05 50.2847 215.572 50.1027 216.207 50.056L216.753 50.014L216.767 50.994L215.983 51.064C215.488 51.1107 215.087 51.2273 214.779 51.414C214.471 51.5913 214.233 51.834 214.065 52.142C213.906 52.45 213.79 52.8187 213.715 53.248L213.127 57H211.979ZM222.398 57L220.956 50.196H222.062L223.21 56.16H222.86L225.968 50.196H226.934L228.11 56.16H227.788L230.854 50.196H232.044L228.418 57H227.34L226.094 50.882H226.696L223.476 57H222.398ZM235.53 57.126C234.886 57.126 234.326 57.0047 233.85 56.762C233.374 56.5193 233.005 56.174 232.744 55.726C232.492 55.2687 232.366 54.732 232.366 54.116C232.366 53.3787 232.515 52.7067 232.814 52.1C233.113 51.484 233.533 50.994 234.074 50.63C234.615 50.2567 235.259 50.07 236.006 50.07C236.715 50.07 237.275 50.2333 237.686 50.56C238.106 50.8867 238.391 51.316 238.54 51.848C238.689 52.3707 238.722 52.9353 238.638 53.542L238.596 53.836H233.248L233.36 53.094H237.952L237.7 53.276C237.765 52.8373 237.751 52.4407 237.658 52.086C237.565 51.7313 237.383 51.4467 237.112 51.232C236.841 51.0173 236.468 50.91 235.992 50.91C235.488 50.91 235.068 51.0267 234.732 51.26C234.396 51.484 234.13 51.7733 233.934 52.128C233.747 52.4827 233.621 52.8513 233.556 53.234L233.5 53.57C233.416 54.102 233.444 54.5687 233.584 54.97C233.724 55.362 233.962 55.67 234.298 55.894C234.643 56.1087 235.073 56.216 235.586 56.216C236.015 56.216 236.417 56.1553 236.79 56.034C237.163 55.9033 237.499 55.7027 237.798 55.432L238.176 56.202C237.859 56.5007 237.462 56.7293 236.986 56.888C236.51 57.0467 236.025 57.126 235.53 57.126ZM246.409 57.126C245.737 57.126 245.182 57 244.743 56.748C244.304 56.496 243.973 56.1413 243.749 55.684C243.534 55.2267 243.427 54.6993 243.427 54.102C243.427 53.598 243.497 53.108 243.637 52.632C243.777 52.1467 243.996 51.7127 244.295 51.33C244.594 50.9473 244.972 50.644 245.429 50.42C245.886 50.1867 246.432 50.07 247.067 50.07C247.515 50.07 247.944 50.1447 248.355 50.294C248.766 50.4433 249.092 50.644 249.335 50.896L248.929 51.708C248.696 51.4747 248.425 51.2973 248.117 51.176C247.809 51.0547 247.473 50.994 247.109 50.994C246.652 50.994 246.264 51.0827 245.947 51.26C245.63 51.4373 245.368 51.6753 245.163 51.974C244.967 52.2727 244.822 52.6087 244.729 52.982C244.636 53.346 244.589 53.7147 244.589 54.088C244.589 54.7227 244.738 55.236 245.037 55.628C245.345 56.0107 245.849 56.202 246.549 56.202C246.838 56.202 247.137 56.146 247.445 56.034C247.762 55.9127 248.056 55.7307 248.327 55.488L248.663 56.328C248.486 56.496 248.271 56.6407 248.019 56.762C247.767 56.874 247.501 56.9627 247.221 57.028C246.95 57.0933 246.68 57.126 246.409 57.126ZM252.009 57.126C251.617 57.126 251.248 57.0373 250.903 56.86C250.567 56.6827 250.296 56.44 250.091 56.132C249.885 55.824 249.783 55.474 249.783 55.082C249.783 54.5967 249.913 54.2093 250.175 53.92C250.445 53.6213 250.865 53.402 251.435 53.262C252.004 53.122 252.737 53.052 253.633 53.052H254.753L254.641 53.794H253.787C253.068 53.794 252.499 53.8313 252.079 53.906C251.668 53.9807 251.374 54.1067 251.197 54.284C251.019 54.4613 250.931 54.704 250.931 55.012C250.931 55.4227 251.066 55.7353 251.337 55.95C251.617 56.1647 251.934 56.272 252.289 56.272C252.634 56.272 252.951 56.1973 253.241 56.048C253.539 55.8987 253.791 55.6793 253.997 55.39C254.202 55.0913 254.337 54.7413 254.403 54.34L254.669 52.632C254.762 52.0907 254.692 51.68 254.459 51.4C254.235 51.12 253.824 50.98 253.227 50.98C252.807 50.98 252.405 51.036 252.023 51.148C251.649 51.26 251.281 51.442 250.917 51.694L250.595 50.868C250.819 50.7 251.08 50.56 251.379 50.448C251.677 50.3267 251.995 50.2333 252.331 50.168C252.676 50.1027 253.017 50.07 253.353 50.07C253.987 50.07 254.491 50.1913 254.865 50.434C255.247 50.6673 255.509 50.9987 255.649 51.428C255.789 51.8573 255.812 52.3613 255.719 52.94L255.075 57H253.997L254.235 55.46H254.375C254.253 55.8333 254.067 56.146 253.815 56.398C253.572 56.6407 253.292 56.8227 252.975 56.944C252.657 57.0653 252.335 57.126 252.009 57.126ZM257.164 57L258.256 50.196H259.362L259.11 51.736H258.97C259.204 51.204 259.544 50.7933 259.992 50.504C260.45 50.2147 260.991 50.07 261.616 50.07C262.12 50.07 262.54 50.1727 262.876 50.378C263.222 50.574 263.464 50.882 263.604 51.302C263.754 51.7127 263.777 52.24 263.674 52.884L263.03 57H261.896L262.54 52.884C262.615 52.464 262.615 52.114 262.54 51.834C262.466 51.554 262.326 51.344 262.12 51.204C261.915 51.064 261.635 50.994 261.28 50.994C260.832 50.994 260.44 51.092 260.104 51.288C259.768 51.4747 259.498 51.7407 259.292 52.086C259.096 52.4313 258.961 52.8373 258.886 53.304L258.298 57H257.164ZM268.717 57L270.285 47.13H271.419L270.691 51.736H270.523C270.757 51.204 271.097 50.7933 271.545 50.504C272.003 50.2147 272.544 50.07 273.169 50.07C273.673 50.07 274.093 50.1727 274.429 50.378C274.775 50.574 275.017 50.882 275.157 51.302C275.307 51.7127 275.33 52.24 275.227 52.884L274.583 57H273.449L274.093 52.884C274.168 52.464 274.168 52.114 274.093 51.834C274.019 51.554 273.879 51.344 273.673 51.204C273.468 51.064 273.188 50.994 272.833 50.994C272.385 50.994 271.993 51.092 271.657 51.288C271.321 51.4747 271.051 51.7407 270.845 52.086C270.649 52.4313 270.514 52.8373 270.439 53.304L269.851 57H268.717ZM279.936 57.126C279.292 57.126 278.732 57.0047 278.256 56.762C277.78 56.5193 277.412 56.174 277.15 55.726C276.898 55.2687 276.772 54.732 276.772 54.116C276.772 53.3787 276.922 52.7067 277.22 52.1C277.519 51.484 277.939 50.994 278.48 50.63C279.022 50.2567 279.666 50.07 280.412 50.07C281.122 50.07 281.682 50.2333 282.092 50.56C282.512 50.8867 282.797 51.316 282.946 51.848C283.096 52.3707 283.128 52.9353 283.044 53.542L283.002 53.836H277.654L277.766 53.094H282.358L282.106 53.276C282.172 52.8373 282.158 52.4407 282.064 52.086C281.971 51.7313 281.789 51.4467 281.518 51.232C281.248 51.0173 280.874 50.91 280.398 50.91C279.894 50.91 279.474 51.0267 279.138 51.26C278.802 51.484 278.536 51.7733 278.34 52.128C278.154 52.4827 278.028 52.8513 277.962 53.234L277.906 53.57C277.822 54.102 277.85 54.5687 277.99 54.97C278.13 55.362 278.368 55.67 278.704 55.894C279.05 56.1087 279.479 56.216 279.992 56.216C280.422 56.216 280.823 56.1553 281.196 56.034C281.57 55.9033 281.906 55.7027 282.204 55.432L282.582 56.202C282.265 56.5007 281.868 56.7293 281.392 56.888C280.916 57.0467 280.431 57.126 279.936 57.126ZM286.225 57.126C285.553 57.126 285.063 56.93 284.755 56.538C284.447 56.1367 284.354 55.5487 284.475 54.774L285.693 47.13H286.827L285.609 54.774C285.563 55.1007 285.563 55.3667 285.609 55.572C285.656 55.7773 285.759 55.9267 285.917 56.02C286.085 56.1133 286.3 56.16 286.561 56.16C286.673 56.16 286.781 56.1553 286.883 56.146C286.995 56.1273 287.107 56.1087 287.219 56.09L287.051 57.014C286.93 57.0513 286.795 57.0793 286.645 57.098C286.505 57.1167 286.365 57.126 286.225 57.126ZM287.876 59.52L289.346 50.196H290.466L290.242 51.638H290.102C290.261 51.3113 290.466 51.0313 290.718 50.798C290.97 50.5647 291.259 50.3873 291.586 50.266C291.922 50.1353 292.281 50.07 292.664 50.07C293.196 50.07 293.658 50.1867 294.05 50.42C294.451 50.6533 294.759 50.9893 294.974 51.428C295.189 51.8667 295.296 52.3893 295.296 52.996C295.296 53.7427 295.161 54.4287 294.89 55.054C294.629 55.6793 294.241 56.1833 293.728 56.566C293.224 56.9393 292.608 57.126 291.88 57.126C291.339 57.126 290.853 56.9907 290.424 56.72C289.995 56.44 289.701 56.02 289.542 55.46H289.654L289.01 59.52H287.876ZM291.74 56.216C292.263 56.216 292.701 56.0713 293.056 55.782C293.411 55.4927 293.681 55.1053 293.868 54.62C294.055 54.1347 294.148 53.6027 294.148 53.024C294.148 52.352 293.985 51.8433 293.658 51.498C293.331 51.1527 292.883 50.98 292.314 50.98C291.801 50.98 291.362 51.1247 290.998 51.414C290.643 51.7033 290.373 52.086 290.186 52.562C289.999 53.038 289.906 53.5747 289.906 54.172C289.906 54.8347 290.069 55.3433 290.396 55.698C290.723 56.0433 291.171 56.216 291.74 56.216ZM300.418 59.52L302.126 56.65L302.056 57.14L300.18 50.196H301.342L302.84 56.174H302.448L305.892 50.196H307.124L301.608 59.52H300.418ZM310.174 57.126C309.567 57.126 309.04 57.0047 308.592 56.762C308.153 56.5193 307.812 56.174 307.57 55.726C307.336 55.278 307.22 54.746 307.22 54.13C307.22 53.5513 307.304 53.0193 307.472 52.534C307.649 52.0393 307.896 51.6053 308.214 51.232C308.531 50.8587 308.904 50.574 309.334 50.378C309.772 50.1727 310.267 50.07 310.818 50.07C311.424 50.07 311.947 50.1913 312.386 50.434C312.834 50.6767 313.174 51.022 313.408 51.47C313.641 51.9087 313.758 52.4407 313.758 53.066C313.758 53.6447 313.674 54.1813 313.506 54.676C313.338 55.1613 313.095 55.5907 312.778 55.964C312.46 56.328 312.082 56.6127 311.644 56.818C311.205 57.0233 310.715 57.126 310.174 57.126ZM310.216 56.216C310.729 56.216 311.163 56.0713 311.518 55.782C311.882 55.4927 312.152 55.1053 312.33 54.62C312.516 54.1347 312.61 53.6027 312.61 53.024C312.61 52.352 312.446 51.8433 312.12 51.498C311.802 51.1527 311.354 50.98 310.776 50.98C310.262 50.98 309.824 51.1247 309.46 51.414C309.105 51.7033 308.834 52.086 308.648 52.562C308.461 53.038 308.368 53.5747 308.368 54.172C308.368 54.8347 308.531 55.3433 308.858 55.698C309.184 56.0433 309.637 56.216 310.216 56.216ZM317.323 57.126C316.837 57.126 316.422 57.0233 316.077 56.818C315.741 56.6127 315.503 56.3047 315.363 55.894C315.223 55.474 315.204 54.942 315.307 54.298L315.951 50.196H317.085L316.441 54.298C316.375 54.718 316.375 55.068 316.441 55.348C316.506 55.628 316.641 55.838 316.847 55.978C317.052 56.118 317.323 56.188 317.659 56.188C318.097 56.188 318.475 56.0947 318.793 55.908C319.11 55.712 319.371 55.4413 319.577 55.096C319.782 54.7507 319.922 54.3447 319.997 53.878L320.571 50.196H321.705L320.627 57H319.521L319.759 55.46H319.899C319.684 55.9827 319.348 56.3933 318.891 56.692C318.443 56.9813 317.92 57.126 317.323 57.126ZM322.58 57L322.804 55.572H324.232L324.008 57H322.58Z" fill="#003366"/>
<path d="M393.057 6.62056C393.416 9.54556 393.787 16.1846 393.787 16.1846L386.172 16.2016L386.727 5.81557L389.506 4.37756L393.057 6.62056Z" fill="url(#paint0_linear_3346_13879)"/>
<path d="M384.265 28.0746C385.334 28.2566 386.965 22.1426 387.465 19.4976C387.965 16.8526 387.885 14.6776 386.58 14.4556C385.275 14.2336 384.48 16.2556 384.08 18.9226C383.68 21.5896 383.192 27.8936 384.265 28.0746Z" fill="#DC4759"/>
<path d="M375.108 23.2146C374.72 24.0946 379.886 26.6606 381.375 27.3146C382.864 27.9686 384.495 28.5286 384.93 27.5416C385.365 26.5546 383.853 25.7276 382.364 25.0716C380.875 24.4156 375.495 22.3346 375.108 23.2146Z" fill="#DC4759"/>
<path d="M375.167 22.8566C374.987 22.8446 374.81 22.8386 374.645 22.8296C373.775 22.8115 372.905 22.8449 372.039 22.9296C371.958 22.923 371.876 22.9343 371.8 22.9626C371.724 22.991 371.655 23.0357 371.598 23.0936C371.558 23.1628 371.542 23.2434 371.552 23.3228C371.562 23.4021 371.598 23.4759 371.655 23.5326C371.771 23.6438 371.916 23.7198 372.074 23.7516C372.25 23.7944 372.428 23.8278 372.608 23.8516C373.973 24.0657 375.347 24.2099 376.727 24.2836C376.78 24.291 376.835 24.2837 376.885 24.2626C377.137 24.1266 376.693 23.4546 376.551 23.3146C376.158 23.0027 375.668 22.8404 375.167 22.8566Z" fill="#DC4759"/>
<path d="M375.335 22.5286L375.243 22.4756C374.892 22.2973 374.523 22.1555 374.143 22.0526C374.09 22.0273 374.03 22.0237 373.975 22.0426C373.786 22.1426 373.937 22.3876 374.056 22.4686C374.175 22.5496 374.288 22.5876 374.393 22.6686C374.508 22.7563 374.616 22.8537 374.715 22.9596C374.871 23.1235 375.079 23.2292 375.304 23.2596C375.446 23.2906 376.256 23.5026 376.242 23.1986C376.236 23.0756 376.042 22.9646 375.953 22.9056C375.754 22.7686 375.543 22.6486 375.335 22.5286Z" fill="#DC4759"/>
<path d="M387.194 14.5346C386.956 14.4075 386.692 14.3373 386.422 14.3294C386.152 14.3214 385.885 14.376 385.64 14.4889C385.394 14.6017 385.179 14.7697 385.01 14.9797C384.84 15.1898 384.722 15.4362 384.664 15.6996C384.085 17.5072 383.697 19.3703 383.506 21.2586C383.377 23.0096 383.247 24.8856 383.247 24.8856L380.047 23.8176C379.726 24.8393 379.461 25.8778 379.254 26.9286C379.254 26.9286 382.812 28.7836 384.581 28.5456C386.35 28.3076 386.837 24.7756 387.272 22.9946C387.753 20.76 388.021 18.4848 388.072 16.1996C387.993 15.5559 387.68 14.9635 387.194 14.5346Z" fill="#DC4759"/>
<path d="M386.391 51.1606C384.891 51.2216 383.74 42.9046 383.528 39.3396C383.316 35.7746 383.815 32.9266 385.651 32.8516C387.487 32.7766 388.215 35.5756 388.291 39.1466C388.367 42.7176 387.895 51.0996 386.391 51.1606Z" fill="#FFC8AF"/>
<path d="M387.111 68.9676C385.777 69.0216 384.932 57.1876 384.825 54.5396C384.718 51.8916 384.809 49.0876 386.305 49.0266C387.801 48.9656 388.118 51.7536 388.225 54.4016C388.332 57.0496 388.445 68.9136 387.111 68.9676Z" fill="#FFC8AF"/>
<path d="M393.411 51.1536C391.911 51.2906 390.343 43.0426 389.949 39.4936C389.555 35.9446 389.909 33.0746 391.739 32.9066C393.569 32.7386 394.439 35.4966 394.696 39.0586C394.953 42.6206 394.91 51.0166 393.411 51.1536Z" fill="#FFC8AF"/>
<path d="M394.811 68.9126C393.482 69.0346 392.261 57.2486 392.019 54.6126C391.777 51.9766 391.726 49.1686 393.219 49.0316C394.712 48.8946 395.168 51.6626 395.41 54.3026C395.652 56.9426 396.14 68.7916 394.811 68.9126Z" fill="#FFC8AF"/>
<path d="M394.172 35.5886H383.593C383.593 35.5886 384.512 30.8886 384.559 29.1886C384.598 27.7946 385.153 23.3636 385.153 23.3636C384.539 22.4821 384.108 21.4865 383.885 20.4356C383.895 18.9166 386.462 14.7666 386.462 14.7666L390.179 13.6246L392.702 14.2246C394.281 14.5246 394.329 16.0246 394.329 17.6316C394.329 22.4866 392.292 25.7806 392.479 28.5616C392.891 30.938 393.456 33.2853 394.172 35.5886Z" fill="#FFCFC9"/>
<path d="M396.022 27.9135C394.966 28.1635 392.948 22.1665 392.28 19.5585C391.612 16.9505 391.552 14.7755 392.841 14.4705C394.13 14.1655 395.05 16.1365 395.623 18.7705C396.196 21.4045 397.073 27.6635 396.022 27.9135Z" fill="#FFC8AF"/>
<path d="M391.389 10.5106V14.2996C390.678 14.6175 389.9 14.7566 389.123 14.7046C388.267 14.7046 388.075 14.2996 388.075 14.2996V13.1126L391.389 10.5106Z" fill="#FFCFC9"/>
<path d="M391.456 8.51256C391.448 8.62956 391.445 8.73856 391.437 8.84456C391.437 8.88256 391.437 8.91957 391.437 8.96157C391.516 10.8776 391.312 12.3616 389.137 13.1296C388.737 13.1786 387.356 13.4776 386.837 12.9006C386.214 11.9993 385.835 10.9525 385.737 9.86156V9.83556C385.745 9.23556 385.83 9.07557 385.83 8.73557C385.83 8.46757 385.686 7.62956 385.684 7.26656C385.71 6.62199 385.877 5.99107 386.175 5.41857C386.417 4.92063 386.803 4.50639 387.283 4.22885C387.762 3.95131 388.313 3.82309 388.866 3.86057C391.931 3.86157 391.543 6.45356 391.456 8.51256Z" fill="#FFCFC9"/>
<path d="M389.561 5.58956C388.28 6.69756 385.979 6.66955 385.735 8.01055L385.822 8.61056C385.822 8.61056 385.497 7.86956 385.422 7.61056C385.354 6.67097 385.659 5.74244 386.27 5.02555C387.536 3.41255 390.208 3.06055 391.318 4.56855C391.318 4.56855 392.865 4.26355 393.059 6.62455C393.192 8.25255 391.391 13.9166 391.391 13.9166C391.12 13.656 390.928 13.3248 390.836 12.9606C390.297 10.6876 389.768 6.71456 389.484 5.16056" fill="url(#paint1_linear_3346_13879)"/>
<path d="M388.455 13.2235C389.279 13.1125 390.05 12.7532 390.666 12.1935C390.619 12.3734 390.536 12.5417 390.421 12.6881C390.306 12.8345 390.163 12.9558 390 13.0445C389.506 13.2246 388.977 13.2859 388.455 13.2235Z" fill="#F2B49C"/>
<path d="M388.036 68.4236L388.101 69.7976C388.1 69.8916 388.062 69.9815 387.996 70.0477C387.929 70.1138 387.839 70.1509 387.745 70.1506H384.045C383.708 70.1506 383.245 69.5346 383.536 69.3606C384.158 68.9836 385.261 68.4366 385.893 68.1496C385.952 68.1226 386.488 56.8826 387.047 56.8766C387.555 56.8716 388.036 68.4236 388.036 68.4236Z" fill="#FFCFC9"/>
<path d="M395.648 68.3426V69.6426C395.414 69.9551 395.112 70.2094 394.764 70.3856C393.832 70.7856 392.388 70.5396 392.317 70.2166C392.246 69.8936 393.222 68.7386 393.222 68.7356C393.375 68.5443 393.509 68.3383 393.622 68.1206C393.622 68.1206 394.122 56.8646 394.654 56.8806C395.228 56.8956 395.648 68.3426 395.648 68.3426Z" fill="#FFCFC9"/>
<path d="M383.448 70.1516H387.996C388.01 70.1517 388.024 70.149 388.037 70.1438C388.05 70.1385 388.061 70.1307 388.071 70.1208C388.081 70.111 388.089 70.0993 388.095 70.0863C388.1 70.0734 388.103 70.0595 388.103 70.0455V69.3305C387.19 69.3385 385.103 69.3665 384.976 69.3395C384.734 69.1774 384.524 68.9716 384.358 68.7325C383.961 68.9436 383.577 69.1773 383.207 69.4326C383.14 69.4831 383.091 69.5533 383.066 69.6334C383.041 69.7134 383.042 69.7992 383.069 69.8787C383.095 69.9581 383.146 70.0272 383.214 70.0761C383.282 70.1251 383.364 70.1515 383.448 70.1516Z" fill="#373C73"/>
<path d="M394.764 70.3815C395.112 70.2053 395.414 69.9511 395.648 69.6385V69.0485L394.764 69.5785C394.138 68.9145 392.975 68.7255 392.687 69.3045C392.47 69.5601 392.34 69.8782 392.317 70.2126C392.388 70.5356 393.834 70.7785 394.764 70.3815Z" fill="#373C73"/>
<path d="M394.551 36.2396C394.551 36.2396 395.323 44.1146 395.372 49.2986C395.725 51.6752 395.956 54.0683 396.065 56.4686C396.216 60.1996 395.697 67.2406 395.697 67.2406H393.415L386.323 37.2505H391.581L389.554 47.7096C389.916 50.5105 390.016 53.339 389.854 56.1586C389.599 61.0416 388.535 67.2406 388.535 67.2406H385.892C385.892 67.2406 384.333 55.4726 383.349 36.2406L394.551 36.2396Z" fill="#373C73"/>
<path d="M383.155 36.5436L384.896 23.3306C384.271 22.3961 383.882 21.3248 383.76 20.2076C384.003 19.1933 384.361 18.21 384.826 17.2766C385.133 16.3527 385.587 15.4841 386.169 14.7036C386.676 14.1976 388.069 14.2986 388.069 14.2986C387.633 14.4656 387.265 14.7719 387.021 15.1697C386.778 15.5675 386.673 16.0347 386.722 16.4986C387.719 16.6124 388.725 16.6124 389.722 16.4986C390.163 16.4036 390.966 14.2656 392.128 14.0906C392.71 14.0543 393.289 14.2069 393.778 14.5256C394.391 15.0644 394.816 15.7857 394.989 16.5836C394.989 16.5836 391.805 16.4996 392.006 18.3726C392.006 18.4186 392.016 18.4646 392.023 18.5126C392.392 20.314 392.922 22.0787 393.606 23.7856C393.267 25.1799 393.087 26.6079 393.068 28.0426C393.061 30.2796 394.99 36.5425 394.99 36.5425L383.155 36.5436Z" fill="#DC4759"/>
<path d="M393.947 39.1746C392.997 39.0225 393.859 31.9926 394.176 30.0196C394.493 28.0466 394.976 25.9875 396.038 26.1585C397.1 26.3295 396.914 28.4355 396.597 30.4085C396.28 32.3815 394.897 39.3266 393.947 39.1746Z" fill="#FFCFC9"/>
<path d="M394.192 37.3575C395.324 37.4575 394.927 39.4316 394.767 40.1006C394.506 41.1916 393.395 42.2706 392.967 42.1756C392.539 42.0806 393.28 39.6336 393.202 39.5286C393.124 39.4236 392.653 40.5795 392.263 40.4485C391.873 40.3175 392.304 38.7065 392.719 38.1345C392.855 37.8695 393.069 37.6527 393.333 37.5137C393.596 37.3747 393.896 37.3201 394.192 37.3575Z" fill="#FFCFC9"/>
<path d="M393.064 23.0006C392.189 20.9245 391.667 18.7173 391.518 16.4696C391.566 14.9816 392.974 13.1336 394.664 15.2326C396.354 17.3316 397.046 24.9666 397.173 26.1466C397.256 28.0528 397.146 29.9625 396.845 31.8466C395.788 31.7164 394.738 31.5294 393.701 31.2866L394.33 26.6936C393.983 25.4379 393.561 24.2046 393.064 23.0006Z" fill="#DC4759"/>
<path d="M351.924 0.587646H333.206V14.5286H351.924V0.587646Z" fill="#97C6F6"/>
<path d="M339.233 4.32864H349.91V3.36163H339.233" fill="#F8FAFB"/>
<path d="M339.233 6.45262H349.91V5.48163H339.233" fill="#F8FAFB"/>
<path d="M334.421 4.86662L335.7 6.26662L337.816 3.74662L337.072 3.12262L335.672 4.79462L335.14 4.21362L334.424 4.86962L334.421 4.86662Z" fill="#F8FAFB"/>
<path d="M339.233 8.57562H349.91V7.60461H339.233" fill="#F8FAFB"/>
<path d="M339.233 10.6976H345.591V9.72662H339.233" fill="#F8FAFB"/>
<g opacity="0.308">
<path d="M367.805 4.0205H358.329V5.38251H367.805V4.0205ZM365.836 9.2205H358.328V10.5835H365.836V9.2205ZM370.813 0.793503C370.685 0.665943 370.512 0.594073 370.331 0.593506H355.644C355.463 0.593506 355.29 0.665249 355.162 0.792961C355.035 0.920673 354.963 1.09389 354.963 1.27451V20.4745C354.963 20.6552 355.035 20.8285 355.162 20.9564C355.29 21.0843 355.463 21.1562 355.644 21.1565H365.279C365.338 21.1558 365.398 21.1474 365.455 21.1315L365.497 21.1165L365.63 21.0555L365.673 21.0285C365.725 20.9919 365.772 20.9481 365.813 20.8985L370.864 14.5205C370.907 14.4648 370.94 14.4027 370.964 14.3365L370.981 14.2685L371.004 14.1305L371.009 14.0985V1.2695C371.009 1.08937 370.939 0.91632 370.813 0.787506V0.793503ZM367.957 15.9995L365.957 18.5195V14.7805H368.919L367.957 15.9995ZM369.65 13.4185H365.28C365.099 13.4185 364.926 13.4904 364.798 13.6183C364.67 13.7462 364.598 13.9196 364.598 14.1005V19.8005H356.326V1.9505H369.65V13.4185ZM367.806 6.6235H358.33V7.9865H367.806V6.6235Z" fill="#A3AAC9"/>
</g>
<path d="M411.171 70.0869H407.288C407.288 65.1089 401.657 60.2209 405.903 59.6919C406.578 59.615 407.26 59.7449 407.859 60.0644C408.459 60.3839 408.947 60.8778 409.259 61.4809C411.171 64.4669 411.171 70.0869 411.171 70.0869Z" fill="#8EEA9B"/>
<path d="M419.058 70.0909H413.264C413.264 66.9849 411.218 63.9229 409.689 61.3129L409.542 61.0629C408.224 58.7859 406.512 56.6729 406.005 54.0249C405.81 53.2589 405.875 52.4499 406.19 51.7249C406.402 51.3632 406.688 51.0496 407.028 50.8041C407.368 50.5586 407.755 50.3865 408.165 50.2989C417.817 47.8219 419.835 60.7089 419.058 70.0909Z" fill="#8EEA9B"/>
<path d="M426.453 70.0869H421.687C420.91 62.9179 421.123 44.9439 431.505 46.7089C439.47 48.0629 426.653 58.4169 426.453 70.0869Z" fill="#8EEA9B"/>
<path d="M430.787 70.0869H427.761C427.761 70.0869 426.961 63.7109 430.388 63.7149C433.505 63.7169 431.421 67.6569 430.787 70.0869Z" fill="#8EEA9B"/>
<path d="M436.601 70.0869H433.775C433.775 62.5989 436.642 56.5059 440.664 56.5869C444.686 56.6679 436.921 64.8699 436.601 70.0869Z" fill="#8EEA9B"/>
<g style="mix-blend-mode:multiply">
<path d="M416.567 70.0869H416.319C416.291 68.7726 416.167 67.4621 415.948 66.1659C415.691 64.6021 415.307 63.0617 414.8 61.5599C413.794 58.5469 412.249 55.7417 410.24 53.2809C410.074 53.0709 410.221 52.9589 410.395 53.1449C412.61 55.5051 414.284 58.3193 415.301 61.3919C415.813 62.9237 416.175 64.5019 416.381 66.1039C416.556 67.4239 416.619 68.7564 416.567 70.0869Z" fill="#E6E7E8"/>
</g>
<g style="mix-blend-mode:multiply">
<path d="M429.058 50.6699C428.439 51.3824 427.901 52.1607 427.452 52.9909C426.996 53.8155 426.605 54.6749 426.283 55.5609C425.953 56.4448 425.672 57.3461 425.441 58.2609C425.208 59.1749 425.008 60.0979 424.849 61.0319C424.529 62.898 424.311 64.7801 424.195 66.6699C424.123 67.8089 424.076 68.9489 424.065 70.0879H423.74C423.698 68.9419 423.7 67.7939 423.74 66.6459C423.806 64.7314 424.002 62.8236 424.328 60.9359C424.491 59.9919 424.703 59.0539 424.956 58.1289C425.205 57.2003 425.512 56.2882 425.875 55.3979C426.049 54.9499 426.257 54.5149 426.463 54.0799C426.688 53.6529 426.904 53.2249 427.163 52.8199C427.656 51.9927 428.243 51.2259 428.914 50.5349C429.117 50.3179 429.251 50.4379 429.058 50.6699Z" fill="#E6E7E8"/>
</g>
<g style="mix-blend-mode:multiply">
<path d="M429.886 65.2899C429.466 66.7332 429.215 68.2206 429.139 69.7219L429.12 70.0869H428.857C428.857 69.9569 428.867 69.8299 428.876 69.7029C428.958 68.1822 429.268 66.6825 429.795 65.2539C429.839 65.1439 429.924 65.1779 429.886 65.2899Z" fill="#E6E7E8"/>
</g>
<g style="mix-blend-mode:multiply">
<path d="M409.687 70.0859H409.439C409.348 69.3309 409.233 68.5749 409.091 67.8279C408.881 66.7839 408.601 65.7552 408.253 64.7489C408.16 64.4989 408.053 64.2549 407.953 64.0089C407.902 63.8859 407.853 63.7609 407.8 63.6399L407.622 63.2839L407.446 62.9249C407.39 62.8043 407.326 62.6874 407.255 62.5749L406.837 61.8939C406.75 61.7539 406.82 61.6939 406.918 61.8389L407.372 62.5049C407.449 62.616 407.518 62.7322 407.578 62.8529L407.778 63.2069L407.971 63.5639C408.033 63.6829 408.082 63.8079 408.139 63.9309C408.245 64.1799 408.359 64.4229 408.459 64.6739C408.84 65.6835 409.139 66.7222 409.352 67.7799C409.497 68.5439 409.608 69.3126 409.687 70.0859Z" fill="#E6E7E8"/>
</g>
<g style="mix-blend-mode:multiply">
<path d="M439.283 58.7649C438.87 59.2671 438.499 59.8022 438.173 60.3649C438.092 60.5049 438.007 60.6429 437.927 60.7849L437.7 61.2159C437.541 61.4999 437.411 61.7989 437.271 62.0919C436.737 63.2777 436.304 64.5064 435.977 65.7649C435.626 67.184 435.387 68.6284 435.262 70.0849H435.046C435.136 68.6046 435.362 67.1358 435.721 65.6969C436.055 64.424 436.508 63.1852 437.074 61.9969C437.221 61.7039 437.361 61.4049 437.528 61.1229L437.77 60.6949C437.855 60.5529 437.944 60.4149 438.031 60.2769C438.379 59.7189 438.773 59.1907 439.209 58.6979C439.349 58.5489 439.417 58.6109 439.283 58.7649Z" fill="#E6E7E8"/>
</g>
<path d="M479.572 39.5198L478.695 39.3278C475.927 50.9528 469.706 61.4678 460.849 69.4898L461.449 70.1608C470.444 62.0106 476.762 51.3286 479.572 39.5198Z" fill="#72B0F2"/>
<path d="M460.775 59.3608C460.851 62.1418 463.629 66.8318 464.304 66.8208C465.244 66.8048 468.543 61.1798 468.192 57.9138C467.883 55.0388 464.035 51.1318 463.374 51.2938C462.553 51.4948 460.697 56.5338 460.775 59.3608Z" fill="#72B0F2"/>
<g style="mix-blend-mode:multiply">
<path d="M460.777 59.3608C460.856 56.4788 461.758 53.6798 463.377 51.2938C464.431 56.398 464.744 61.6273 464.308 66.8208C462.214 64.8816 460.949 62.2094 460.777 59.3608Z" fill="#72B0F2"/>
</g>
<path d="M468.221 50.9229C468.77 53.1389 471.898 56.3749 472.434 56.2399C473.201 56.0469 474.692 51.0528 473.951 48.4268C473.312 46.1628 469.507 43.6069 469.016 43.8269C468.374 44.1169 467.655 48.6389 468.221 50.9229Z" fill="#72B0F2"/>
<g style="mix-blend-mode:multiply">
<path d="M468.221 50.9229C467.776 48.5315 468.053 46.0619 469.015 43.8279C470.616 47.8237 471.763 51.9869 472.434 56.2389C470.389 55.0855 468.877 53.1773 468.221 50.9229Z" fill="#72B0F2"/>
</g>
<path d="M473.697 43.1038C474.25 44.5468 476.852 46.3098 477.186 46.1568C477.66 45.9408 478.086 42.2428 477.294 40.6908C476.568 39.2608 473.837 37.8178 473.525 38.0168C473.106 38.2848 473.083 41.5038 473.697 43.1038Z" fill="#72B0F2"/>
<g style="mix-blend-mode:multiply">
<path d="M473.698 43.1039C473.153 41.46 473.093 39.6938 473.526 38.0168C474.933 40.6424 476.156 43.3622 477.187 46.1568C476.429 45.9114 475.728 45.5142 475.128 44.9893C474.528 44.4644 474.042 43.8229 473.698 43.1039Z" fill="#72B0F2"/>
</g>
<path d="M477.886 35.4048C477.775 37.2217 478.1 39.0386 478.833 40.7048C479.213 40.7968 481.569 37.8228 481.791 35.9858C481.798 34.0952 481.316 32.2348 480.391 30.5858C480.009 30.5618 478.213 33.6098 477.886 35.4048Z" fill="#97C6F6"/>
<g style="mix-blend-mode:multiply">
<path d="M477.886 35.4048C478.271 33.6019 479.137 31.937 480.393 30.5869C480.123 33.9943 479.601 37.3772 478.833 40.7078C478.006 39.0707 477.677 37.2271 477.886 35.4048Z" fill="#97C6F6"/>
</g>
<path d="M472.39 69.3229C469.505 70.1019 464.315 67.5379 464.306 66.8229C464.293 65.8419 469.411 61.9499 472.594 60.9229C475.37 60.0289 480.879 61.2499 481.051 61.9299C481.325 63.0259 476.057 68.3329 472.39 69.3229Z" fill="#97C6F6"/>
<g style="mix-blend-mode:multiply">
<path d="M472.39 69.3219C476.058 68.3319 479.126 65.1949 481.05 61.9329C475.71 64.2989 470.079 65.9437 464.305 66.8239C465.324 67.9007 466.603 68.6963 468.019 69.1339C469.436 69.5715 470.941 69.6363 472.39 69.3219Z" fill="#97C6F6"/>
</g>
<path d="M479.339 56.7979C477.184 57.8789 472.577 56.8149 472.439 56.2429C472.239 55.4429 475.615 51.4829 477.996 50.1229C480.032 48.9589 484.707 49.1039 484.949 49.6299C485.325 50.4509 482.069 55.4289 479.339 56.7979Z" fill="#72B0F2"/>
<g style="mix-blend-mode:multiply">
<path d="M479.339 56.7979C482.069 55.4289 483.931 52.4688 484.946 49.6288C481.03 52.2835 476.835 54.5014 472.436 56.2429C473.449 56.904 474.611 57.3011 475.817 57.398C477.022 57.4949 478.233 57.2886 479.339 56.7979Z" fill="#72B0F2"/>
</g>
<path d="M481.873 45.6828C480.573 46.6468 477.353 46.4898 477.19 46.1578C476.956 45.6828 478.765 42.4818 480.195 41.4148C481.495 40.4418 484.626 40.1398 484.827 40.4468C485.131 40.9118 483.478 44.4978 481.873 45.6828Z" fill="#97C6F6"/>
<g style="mix-blend-mode:multiply">
<path d="M481.874 45.6828C483.431 44.329 484.474 42.4798 484.827 40.4468C482.416 42.5248 479.865 44.433 477.19 46.1578C477.954 46.4477 478.775 46.5557 479.588 46.4733C480.401 46.3909 481.184 46.1202 481.874 45.6828Z" fill="#97C6F6"/>
</g>
<path d="M460.849 49.5537V69.1117C460.849 69.4779 460.703 69.8292 460.444 70.0882C460.185 70.3472 459.834 70.4927 459.468 70.4927H429.911C429.729 70.4933 429.549 70.4581 429.381 70.389C429.213 70.3199 429.06 70.2183 428.931 70.09C428.802 69.9617 428.7 69.8093 428.63 69.6414C428.56 69.4735 428.524 69.2935 428.524 69.1117V49.5537C428.524 49.3721 428.56 49.1923 428.63 49.0247C428.699 48.857 428.801 48.7046 428.93 48.5764C429.058 48.4481 429.211 48.3465 429.379 48.2772C429.546 48.2079 429.726 48.1724 429.908 48.1727H459.465C459.647 48.1723 459.826 48.2077 459.994 48.2769C460.162 48.3461 460.315 48.4478 460.443 48.5761C460.572 48.7044 460.674 48.8567 460.744 49.0245C460.813 49.1922 460.849 49.3721 460.849 49.5537Z" fill="#003366"/>
<path d="M448.647 50.9187H440.73C440.294 50.9182 439.877 50.7449 439.569 50.4369C439.261 50.1289 439.087 49.7113 439.087 49.2757V46.2287C439.087 45.7931 439.261 45.3755 439.569 45.0675C439.877 44.7595 440.294 44.5862 440.73 44.5857H448.647C449.083 44.5862 449.5 44.7595 449.808 45.0675C450.116 45.3755 450.289 45.7931 450.29 46.2287V49.2757C450.289 49.7113 450.116 50.1289 449.808 50.4369C449.5 50.7449 449.083 50.9182 448.647 50.9187ZM440.73 45.9967C440.669 45.997 440.61 46.0214 440.567 46.0646C440.524 46.1079 440.499 46.1665 440.499 46.2277V49.2747C440.499 49.336 440.523 49.3947 440.567 49.438C440.61 49.4814 440.669 49.5057 440.73 49.5057H448.647C448.708 49.5057 448.767 49.4814 448.81 49.438C448.854 49.3947 448.878 49.336 448.878 49.2747V46.2277C448.878 46.1664 448.854 46.1077 448.81 46.0644C448.767 46.021 448.708 45.9967 448.647 45.9967H440.73Z" fill="#373C73"/>
<path d="M460.849 49.5537V55.2707C460.849 55.6245 460.723 55.9668 460.494 56.2366C460.265 56.5064 459.948 56.6861 459.599 56.7437L444.549 59.2287L429.773 56.7497C429.424 56.6919 429.107 56.5121 428.878 56.2423C428.649 55.9726 428.524 55.6304 428.524 55.2767V49.5537C428.524 49.1874 428.669 48.8361 428.928 48.5772C429.187 48.3182 429.539 48.1727 429.905 48.1727H459.465C459.647 48.1723 459.826 48.2077 459.994 48.2769C460.162 48.3461 460.315 48.4478 460.443 48.5761C460.572 48.7044 460.674 48.8567 460.744 49.0245C460.813 49.1922 460.849 49.3721 460.849 49.5537Z" fill="#373C73"/>
<path d="M443.742 58.2667H445.635C445.888 58.268 446.129 58.3693 446.308 58.5485C446.486 58.7276 446.586 58.97 446.586 59.2227C446.586 59.4763 446.485 59.7194 446.306 59.8987C446.127 60.078 445.883 60.1787 445.63 60.1787H443.742C443.488 60.1787 443.245 60.078 443.066 59.8987C442.887 59.7194 442.786 59.4763 442.786 59.2227C442.786 58.9692 442.887 58.726 443.066 58.5467C443.245 58.3674 443.488 58.2667 443.742 58.2667Z" fill="#E6E7E8"/>
<path d="M445.139 58.7667H444.236C443.984 58.7667 443.78 58.9709 443.78 59.2227V59.2237C443.78 59.4756 443.984 59.6797 444.236 59.6797H445.139C445.391 59.6797 445.595 59.4756 445.595 59.2237V59.2227C445.595 58.9709 445.391 58.7667 445.139 58.7667Z" fill="#BCBEC0"/>
</g>
<defs>
<linearGradient id="paint0_linear_3346_13879" x1="385.852" y1="4.34209" x2="394.715" y2="11.2538" gradientUnits="userSpaceOnUse">
<stop stop-color="#5B2A8D"/>
<stop offset="0.169" stop-color="#4A2785"/>
<stop offset="0.427" stop-color="#38247D"/>
<stop offset="0.697" stop-color="#2D2278"/>
<stop offset="1" stop-color="#2A2277"/>
</linearGradient>
<linearGradient id="paint1_linear_3346_13879" x1="387.456" y1="3.50408" x2="395.648" y2="12.028" gradientUnits="userSpaceOnUse">
<stop stop-color="#5B2A8D"/>
<stop offset="0.169" stop-color="#4A2785"/>
<stop offset="0.427" stop-color="#38247D"/>
<stop offset="0.697" stop-color="#2D2278"/>
<stop offset="1" stop-color="#2A2277"/>
</linearGradient>
<clipPath id="clip0_3346_13879">
<rect width="960" height="70" fill="white" transform="translate(0 0.587646)"/>
</clipPath>
</defs>
</svg>
