<svg width="960" height="85" viewBox="0 0 960 85" fill="none" xmlns="http://www.w3.org/2000/svg">
<g opacity="0.586">
<path opacity="0.6" d="M26.9008 24.5463L21.0774 50.4972H32.7243L26.9008 24.5463Z" fill="#97C6F6"/>
<g opacity="0.6">
<path d="M26.8565 52.2079V28.4675" stroke="#5A90E4" stroke-linecap="round" stroke-linejoin="round"/>
<path d="M26.8565 36.8247L28.122 35.3313" stroke="#5A90E4" stroke-linecap="round" stroke-linejoin="round"/>
<path d="M26.8556 42.2603L28.7581 40.0167" stroke="#5A90E4" stroke-linecap="round" stroke-linejoin="round"/>
<path d="M26.8556 48.0053L29.813 44.5158" stroke="#5A90E4" stroke-linecap="round" stroke-linejoin="round"/>
<path d="M26.8561 36.8247L25.5905 35.3313" stroke="#5A90E4" stroke-linecap="round" stroke-linejoin="round"/>
<path d="M26.8563 42.2603L24.9547 40.0167" stroke="#5A90E4" stroke-linecap="round" stroke-linejoin="round"/>
<path d="M26.8556 48.0053L23.8982 44.5158" stroke="#5A90E4" stroke-linecap="round" stroke-linejoin="round"/>
</g>
<g style="mix-blend-mode:darken" opacity="0.294">
<path d="M27.0152 52.4874C28.8173 52.4874 30.2781 52.2892 30.2781 52.0447C30.2781 51.8002 28.8173 51.602 27.0152 51.602C25.2132 51.602 23.7524 51.8002 23.7524 52.0447C23.7524 52.2892 25.2132 52.4874 27.0152 52.4874Z" fill="#A3AAC9"/>
</g>
</g>
<g opacity="0.586">
<path opacity="0.6" d="M172.699 17.0555L163.754 56.9184H181.646L172.699 17.0555Z" fill="#97C6F6"/>
<g opacity="0.6">
<path d="M172.631 59.5485V23.079" stroke="#5A90E4" stroke-linecap="round" stroke-linejoin="round"/>
<path d="M172.631 35.9163L174.576 33.6226" stroke="#5A90E4" stroke-linecap="round" stroke-linejoin="round"/>
<path d="M172.631 44.2674L175.553 40.821" stroke="#5A90E4" stroke-linecap="round" stroke-linejoin="round"/>
<path d="M172.631 53.0933L177.175 47.7319" stroke="#5A90E4" stroke-linecap="round" stroke-linejoin="round"/>
<path d="M172.632 35.9163L170.687 33.6226" stroke="#5A90E4" stroke-linecap="round" stroke-linejoin="round"/>
<path d="M172.631 44.2674L169.711 40.821" stroke="#5A90E4" stroke-linecap="round" stroke-linejoin="round"/>
<path d="M172.631 53.0933L168.088 47.7319" stroke="#5A90E4" stroke-linecap="round" stroke-linejoin="round"/>
</g>
<g style="mix-blend-mode:darken" opacity="0.294">
<path d="M172.675 59.9782C175.378 59.9782 177.569 59.78 177.569 59.5355C177.569 59.291 175.378 59.0928 172.675 59.0928C169.972 59.0928 167.78 59.291 167.78 59.5355C167.78 59.78 169.972 59.9782 172.675 59.9782Z" fill="#A3AAC9"/>
</g>
</g>
<g opacity="0.586">
<path opacity="0.6" d="M321.622 17.0555L312.676 56.9184H330.569L321.622 17.0555Z" fill="#97C6F6"/>
<g opacity="0.6">
<path d="M321.553 59.5485V23.079" stroke="#5A90E4" stroke-linecap="round" stroke-linejoin="round"/>
<path d="M321.553 35.9163L323.498 33.6226" stroke="#5A90E4" stroke-linecap="round" stroke-linejoin="round"/>
<path d="M321.553 44.2674L324.475 40.821" stroke="#5A90E4" stroke-linecap="round" stroke-linejoin="round"/>
<path d="M321.553 53.0933L326.097 47.7319" stroke="#5A90E4" stroke-linecap="round" stroke-linejoin="round"/>
<path d="M321.554 35.9163L319.609 33.6226" stroke="#5A90E4" stroke-linecap="round" stroke-linejoin="round"/>
<path d="M321.553 44.2674L318.633 40.821" stroke="#5A90E4" stroke-linecap="round" stroke-linejoin="round"/>
<path d="M321.553 53.0933L317.01 47.7319" stroke="#5A90E4" stroke-linecap="round" stroke-linejoin="round"/>
</g>
<g style="mix-blend-mode:darken" opacity="0.294">
<path d="M321.597 59.9782C324.3 59.9782 326.491 59.78 326.491 59.5355C326.491 59.291 324.3 59.0928 321.597 59.0928C318.894 59.0928 316.702 59.291 316.702 59.5355C316.702 59.78 318.894 59.9782 321.597 59.9782Z" fill="#A3AAC9"/>
</g>
</g>
<path opacity="0.6" d="M477.297 0.852472L461.599 70.8128H492.998L477.297 0.852472Z" fill="#97C6F6"/>
<g opacity="0.6">
<path d="M477.177 75.426V11.4241" stroke="#5A90E4" stroke-linecap="round" stroke-linejoin="round"/>
<path d="M477.177 33.9527L480.589 29.9273" stroke="#5A90E4" stroke-linecap="round" stroke-linejoin="round"/>
<path d="M477.176 48.6088L482.303 42.5602" stroke="#5A90E4" stroke-linecap="round" stroke-linejoin="round"/>
<path d="M477.177 64.0982L485.151 54.6894" stroke="#5A90E4" stroke-linecap="round" stroke-linejoin="round"/>
<path d="M477.176 33.9527L473.765 29.9273" stroke="#5A90E4" stroke-linecap="round" stroke-linejoin="round"/>
<path d="M477.177 48.6088L472.051 42.5602" stroke="#5A90E4" stroke-linecap="round" stroke-linejoin="round"/>
<path d="M477.176 64.0982L469.203 54.6894" stroke="#5A90E4" stroke-linecap="round" stroke-linejoin="round"/>
</g>
<g style="mix-blend-mode:darken" opacity="0.294">
<path d="M477.092 76.1812C481.822 76.1812 485.656 75.7848 485.656 75.2958C485.656 74.8068 481.822 74.4104 477.092 74.4104C472.363 74.4104 468.528 74.8068 468.528 75.2958C468.528 75.7848 472.363 76.1812 477.092 76.1812Z" fill="#A3AAC9"/>
</g>
<g opacity="0.586">
<path opacity="0.6" d="M632.973 17.0555L624.028 56.9184H641.92L632.973 17.0555Z" fill="#97C6F6"/>
<g opacity="0.6">
<path d="M632.905 59.5485V23.079" stroke="#5A90E4" stroke-linecap="round" stroke-linejoin="round"/>
<path d="M632.905 35.9163L634.85 33.6226" stroke="#5A90E4" stroke-linecap="round" stroke-linejoin="round"/>
<path d="M632.905 44.2674L635.826 40.821" stroke="#5A90E4" stroke-linecap="round" stroke-linejoin="round"/>
<path d="M632.905 53.0933L637.448 47.7319" stroke="#5A90E4" stroke-linecap="round" stroke-linejoin="round"/>
<path d="M632.905 35.9163L630.961 33.6226" stroke="#5A90E4" stroke-linecap="round" stroke-linejoin="round"/>
<path d="M632.905 44.2674L629.984 40.821" stroke="#5A90E4" stroke-linecap="round" stroke-linejoin="round"/>
<path d="M632.905 53.0933L628.361 47.7319" stroke="#5A90E4" stroke-linecap="round" stroke-linejoin="round"/>
</g>
<g style="mix-blend-mode:darken" opacity="0.294">
<path d="M632.948 59.9782C635.651 59.9782 637.842 59.78 637.842 59.5355C637.842 59.291 635.651 59.0928 632.948 59.0928C630.245 59.0928 628.054 59.291 628.054 59.5355C628.054 59.78 630.245 59.9782 632.948 59.9782Z" fill="#A3AAC9"/>
</g>
</g>
<g opacity="0.586">
<path opacity="0.6" d="M778.773 24.5463L772.95 50.4972H784.597L778.773 24.5463Z" fill="#97C6F6"/>
<g opacity="0.6">
<path d="M778.729 52.2079V28.4675" stroke="#5A90E4" stroke-linecap="round" stroke-linejoin="round"/>
<path d="M778.729 36.8247L779.995 35.3313" stroke="#5A90E4" stroke-linecap="round" stroke-linejoin="round"/>
<path d="M778.728 42.2603L780.631 40.0167" stroke="#5A90E4" stroke-linecap="round" stroke-linejoin="round"/>
<path d="M778.728 48.0053L781.686 44.5158" stroke="#5A90E4" stroke-linecap="round" stroke-linejoin="round"/>
<path d="M778.729 36.8247L777.463 35.3313" stroke="#5A90E4" stroke-linecap="round" stroke-linejoin="round"/>
<path d="M778.729 42.2603L776.827 40.0167" stroke="#5A90E4" stroke-linecap="round" stroke-linejoin="round"/>
<path d="M778.728 48.0053L775.771 44.5158" stroke="#5A90E4" stroke-linecap="round" stroke-linejoin="round"/>
</g>
<g style="mix-blend-mode:darken" opacity="0.294">
<path d="M778.888 52.4874C780.69 52.4874 782.151 52.2892 782.151 52.0447C782.151 51.8002 780.69 51.602 778.888 51.602C777.086 51.602 775.625 51.8002 775.625 52.0447C775.625 52.2892 777.086 52.4874 778.888 52.4874Z" fill="#A3AAC9"/>
</g>
</g>
<g opacity="0.241">
<path opacity="0.6" d="M920.26 27.4013L915.627 48.0489H924.894L920.26 27.4013Z" fill="#97C6F6"/>
<g opacity="0.6">
<path d="M920.225 49.41V30.5212" stroke="#5A90E4" stroke-linecap="round" stroke-linejoin="round"/>
<path d="M920.225 37.1697L921.232 35.9819" stroke="#5A90E4" stroke-linecap="round" stroke-linejoin="round"/>
<path d="M920.224 41.4956L921.738 39.7107" stroke="#5A90E4" stroke-linecap="round" stroke-linejoin="round"/>
<path d="M920.224 46.0668L922.578 43.2904" stroke="#5A90E4" stroke-linecap="round" stroke-linejoin="round"/>
<path d="M920.225 37.1697L919.218 35.9819" stroke="#5A90E4" stroke-linecap="round" stroke-linejoin="round"/>
<path d="M920.225 41.4956L918.712 39.7107" stroke="#5A90E4" stroke-linecap="round" stroke-linejoin="round"/>
<path d="M920.225 46.0668L917.871 43.2904" stroke="#5A90E4" stroke-linecap="round" stroke-linejoin="round"/>
</g>
<g style="mix-blend-mode:darken" opacity="0.294">
<path d="M920.408 49.6324C921.985 49.6324 923.263 49.4342 923.263 49.1897C923.263 48.9452 921.985 48.747 920.408 48.747C918.831 48.747 917.553 48.9452 917.553 49.1897C917.553 49.4342 918.831 49.6324 920.408 49.6324Z" fill="#A3AAC9"/>
</g>
</g>
<path opacity="0.05" d="M704.326 84.8523H1.26599C1.26599 84.8523 26.2835 50.3322 113.603 58.5482C200.923 66.7641 185.468 71.4585 230.289 58.5482C275.111 45.6378 288.394 13.0759 359.566 17.2164C430.737 21.3569 434.617 35.7653 487.019 55.4163C539.422 75.0673 583.731 43.2642 637.392 51.4471C691.053 59.63 704.326 84.8523 704.326 84.8523Z" fill="#003366"/>
<path opacity="0.03" d="M960 84.8525H233.165C233.165 84.8525 301.389 54.2549 375.128 44.5546C448.867 34.8543 454.051 49.5244 528.57 44.5546C603.088 39.5847 608.424 -1.13386 662.213 2.08821C716.002 5.31029 733.054 47.9044 778.945 55.8409C824.836 63.7774 852.857 48.3832 895.162 55.8409C937.467 63.2987 960 84.8525 960 84.8525Z" fill="#003366"/>
<path d="M678.906 57.1492C678.906 57.1492 711.688 11.3661 729.962 11.8438C748.236 12.3216 766.882 41.2001 800.156 38.9165C833.431 36.6329 843.027 7.38276 862.543 10.7881C882.059 14.1935 910.282 42.1977 918.987 42.1977C924.658 42.1977 929.548 38.4598 939.801 42.1977C950.054 45.9355 959.999 57.1492 959.999 57.1492H678.906Z" fill="url(#paint0_linear_3346_13876)"/>
<path d="M25.88 50V41.288L26.528 43.136L19.376 33.08H22.952L27.8 39.968H27.128L32 33.08H35.432L28.328 43.136L28.952 41.288V50H25.88ZM39.7558 50.24C38.5398 50.24 37.4838 49.992 36.5878 49.496C35.6918 49 34.9958 48.296 34.4998 47.384C34.0038 46.456 33.7558 45.368 33.7558 44.12C33.7558 42.872 34.0038 41.792 34.4998 40.88C34.9958 39.968 35.6918 39.264 36.5878 38.768C37.4838 38.272 38.5398 38.024 39.7558 38.024C40.9718 38.024 42.0278 38.272 42.9238 38.768C43.8198 39.264 44.5158 39.968 45.0118 40.88C45.5078 41.792 45.7558 42.872 45.7558 44.12C45.7558 45.368 45.5078 46.456 45.0118 47.384C44.5158 48.296 43.8198 49 42.9238 49.496C42.0278 49.992 40.9718 50.24 39.7558 50.24ZM39.7558 47.96C40.6518 47.96 41.3718 47.64 41.9158 47C42.4598 46.344 42.7318 45.384 42.7318 44.12C42.7318 42.84 42.4598 41.888 41.9158 41.264C41.3718 40.624 40.6518 40.304 39.7558 40.304C38.8598 40.304 38.1398 40.624 37.5958 41.264C37.0518 41.888 36.7798 42.84 36.7798 44.12C36.7798 45.384 37.0518 46.344 37.5958 47C38.1398 47.64 38.8598 47.96 39.7558 47.96ZM52.4799 50.24C51.5039 50.24 50.6959 50.064 50.0559 49.712C49.4159 49.344 48.9359 48.8 48.6159 48.08C48.3119 47.36 48.1599 46.464 48.1599 45.392V38.264H51.1599V45.44C51.1599 45.984 51.2319 46.44 51.3759 46.808C51.5359 47.176 51.7679 47.448 52.0719 47.624C52.3919 47.8 52.7919 47.888 53.2719 47.888C53.8159 47.888 54.2879 47.768 54.6879 47.528C55.1039 47.272 55.4239 46.92 55.6479 46.472C55.8879 46.008 56.0079 45.472 56.0079 44.864V38.264H59.0079V50H56.0799V47.552H56.4159C56.0799 48.416 55.5679 49.08 54.8799 49.544C54.2079 50.008 53.4079 50.24 52.4799 50.24ZM62.1303 50V38.264H65.0583V41.096H64.8183C65.0423 40.136 65.4823 39.408 66.1383 38.912C66.7943 38.4 67.6663 38.104 68.7543 38.024L69.6663 37.952L69.8583 40.496L68.1303 40.664C67.1543 40.76 66.4183 41.064 65.9223 41.576C65.4263 42.072 65.1783 42.776 65.1783 43.688V50H62.1303ZM78.2855 50V33.08H85.6295C86.8775 33.08 87.9335 33.288 88.7975 33.704C89.6615 34.12 90.3175 34.72 90.7655 35.504C91.2135 36.288 91.4375 37.24 91.4375 38.36C91.4375 39.464 91.2135 40.416 90.7655 41.216C90.3175 42 89.6615 42.608 88.7975 43.04C87.9335 43.456 86.8775 43.664 85.6295 43.664H81.3575V50H78.2855ZM81.3575 41.24H85.1495C86.2375 41.24 87.0615 41 87.6215 40.52C88.1815 40.024 88.4615 39.304 88.4615 38.36C88.4615 37.416 88.1815 36.704 87.6215 36.224C87.0615 35.744 86.2375 35.504 85.1495 35.504H81.3575V41.24ZM93.4194 50V38.264H96.3474V41.096H96.1074C96.3314 40.136 96.7714 39.408 97.4274 38.912C98.0834 38.4 98.9554 38.104 100.043 38.024L100.955 37.952L101.147 40.496L99.4194 40.664C98.4434 40.76 97.7074 41.064 97.2114 41.576C96.7154 42.072 96.4674 42.776 96.4674 43.688V50H93.4194ZM108.414 50.24C107.086 50.24 105.942 49.992 104.982 49.496C104.022 49 103.278 48.296 102.75 47.384C102.238 46.472 101.982 45.392 101.982 44.144C101.982 42.928 102.23 41.864 102.726 40.952C103.238 40.04 103.934 39.328 104.814 38.816C105.71 38.288 106.726 38.024 107.862 38.024C108.982 38.024 109.942 38.264 110.742 38.744C111.542 39.224 112.158 39.904 112.59 40.784C113.038 41.664 113.262 42.712 113.262 43.928V44.816H104.406V43.088H111.15L110.766 43.448C110.766 42.36 110.526 41.528 110.046 40.952C109.566 40.36 108.878 40.064 107.982 40.064C107.31 40.064 106.734 40.224 106.254 40.544C105.79 40.848 105.43 41.288 105.174 41.864C104.934 42.424 104.814 43.096 104.814 43.88V44.048C104.814 44.928 104.95 45.656 105.222 46.232C105.494 46.808 105.902 47.24 106.446 47.528C106.99 47.816 107.662 47.96 108.462 47.96C109.118 47.96 109.774 47.864 110.43 47.672C111.086 47.464 111.686 47.144 112.23 46.712L113.07 48.728C112.51 49.192 111.806 49.56 110.958 49.832C110.11 50.104 109.262 50.24 108.414 50.24ZM116.383 50V40.52H114.127V38.264H117.247L116.383 39.056V38.24C116.383 36.576 116.815 35.32 117.679 34.472C118.559 33.624 119.919 33.144 121.759 33.032L122.935 32.96L123.127 35.168L122.023 35.24C121.383 35.272 120.871 35.392 120.487 35.6C120.103 35.792 119.823 36.064 119.647 36.416C119.471 36.768 119.383 37.216 119.383 37.76V38.648L118.999 38.264H122.575V40.52H119.383V50H116.383ZM129.813 50.24C128.485 50.24 127.341 49.992 126.381 49.496C125.421 49 124.677 48.296 124.149 47.384C123.637 46.472 123.381 45.392 123.381 44.144C123.381 42.928 123.629 41.864 124.125 40.952C124.637 40.04 125.333 39.328 126.213 38.816C127.109 38.288 128.125 38.024 129.261 38.024C130.381 38.024 131.341 38.264 132.141 38.744C132.941 39.224 133.557 39.904 133.989 40.784C134.437 41.664 134.661 42.712 134.661 43.928V44.816H125.805V43.088H132.549L132.165 43.448C132.165 42.36 131.925 41.528 131.445 40.952C130.965 40.36 130.277 40.064 129.381 40.064C128.709 40.064 128.133 40.224 127.653 40.544C127.189 40.848 126.829 41.288 126.573 41.864C126.333 42.424 126.213 43.096 126.213 43.88V44.048C126.213 44.928 126.349 45.656 126.621 46.232C126.893 46.808 127.301 47.24 127.845 47.528C128.389 47.816 129.061 47.96 129.861 47.96C130.517 47.96 131.173 47.864 131.829 47.672C132.485 47.464 133.085 47.144 133.629 46.712L134.469 48.728C133.909 49.192 133.205 49.56 132.357 49.832C131.509 50.104 130.661 50.24 129.813 50.24ZM137.037 50V38.264H139.965V41.096H139.725C139.949 40.136 140.389 39.408 141.045 38.912C141.701 38.4 142.573 38.104 143.661 38.024L144.573 37.952L144.765 40.496L143.037 40.664C142.061 40.76 141.325 41.064 140.829 41.576C140.333 42.072 140.085 42.776 140.085 43.688V50H137.037ZM152.032 50.24C150.704 50.24 149.56 49.992 148.6 49.496C147.64 49 146.896 48.296 146.368 47.384C145.856 46.472 145.6 45.392 145.6 44.144C145.6 42.928 145.848 41.864 146.344 40.952C146.856 40.04 147.552 39.328 148.432 38.816C149.328 38.288 150.344 38.024 151.48 38.024C152.6 38.024 153.56 38.264 154.36 38.744C155.16 39.224 155.776 39.904 156.208 40.784C156.656 41.664 156.88 42.712 156.88 43.928V44.816H148.024V43.088H154.768L154.384 43.448C154.384 42.36 154.144 41.528 153.664 40.952C153.184 40.36 152.496 40.064 151.6 40.064C150.928 40.064 150.352 40.224 149.872 40.544C149.408 40.848 149.048 41.288 148.792 41.864C148.552 42.424 148.432 43.096 148.432 43.88V44.048C148.432 44.928 148.568 45.656 148.84 46.232C149.112 46.808 149.52 47.24 150.064 47.528C150.608 47.816 151.28 47.96 152.08 47.96C152.736 47.96 153.392 47.864 154.048 47.672C154.704 47.464 155.304 47.144 155.848 46.712L156.688 48.728C156.128 49.192 155.424 49.56 154.576 49.832C153.728 50.104 152.88 50.24 152.032 50.24ZM159.255 50V38.264H162.183V40.616H161.919C162.271 39.768 162.815 39.128 163.551 38.696C164.303 38.248 165.151 38.024 166.095 38.024C167.039 38.024 167.815 38.2 168.423 38.552C169.031 38.904 169.487 39.44 169.791 40.16C170.095 40.864 170.247 41.76 170.247 42.848V50H167.247V42.992C167.247 42.384 167.167 41.888 167.007 41.504C166.863 41.12 166.631 40.84 166.311 40.664C166.007 40.472 165.615 40.376 165.135 40.376C164.559 40.376 164.055 40.504 163.623 40.76C163.191 41 162.855 41.352 162.615 41.816C162.375 42.264 162.255 42.792 162.255 43.4V50H159.255ZM178.718 50.24C177.486 50.24 176.414 49.992 175.502 49.496C174.59 48.984 173.886 48.264 173.39 47.336C172.894 46.408 172.646 45.32 172.646 44.072C172.646 42.824 172.894 41.752 173.39 40.856C173.886 39.944 174.59 39.248 175.502 38.768C176.414 38.272 177.486 38.024 178.718 38.024C179.47 38.024 180.214 38.144 180.95 38.384C181.686 38.624 182.294 38.96 182.774 39.392L181.886 41.48C181.47 41.112 180.998 40.832 180.47 40.64C179.958 40.448 179.462 40.352 178.982 40.352C177.942 40.352 177.134 40.68 176.558 41.336C175.998 41.976 175.718 42.896 175.718 44.096C175.718 45.28 175.998 46.216 176.558 46.904C177.134 47.576 177.942 47.912 178.982 47.912C179.446 47.912 179.942 47.816 180.47 47.624C180.998 47.432 181.47 47.144 181.886 46.76L182.774 48.872C182.294 49.288 181.678 49.624 180.926 49.88C180.19 50.12 179.454 50.24 178.718 50.24ZM190.164 50.24C188.836 50.24 187.692 49.992 186.732 49.496C185.772 49 185.028 48.296 184.5 47.384C183.988 46.472 183.732 45.392 183.732 44.144C183.732 42.928 183.98 41.864 184.476 40.952C184.988 40.04 185.684 39.328 186.564 38.816C187.46 38.288 188.476 38.024 189.612 38.024C190.732 38.024 191.692 38.264 192.492 38.744C193.292 39.224 193.908 39.904 194.34 40.784C194.788 41.664 195.012 42.712 195.012 43.928V44.816H186.156V43.088H192.9L192.516 43.448C192.516 42.36 192.276 41.528 191.796 40.952C191.316 40.36 190.628 40.064 189.732 40.064C189.06 40.064 188.484 40.224 188.004 40.544C187.54 40.848 187.18 41.288 186.924 41.864C186.684 42.424 186.564 43.096 186.564 43.88V44.048C186.564 44.928 186.7 45.656 186.972 46.232C187.244 46.808 187.652 47.24 188.196 47.528C188.74 47.816 189.412 47.96 190.212 47.96C190.868 47.96 191.524 47.864 192.18 47.672C192.836 47.464 193.436 47.144 193.98 46.712L194.82 48.728C194.26 49.192 193.556 49.56 192.708 49.832C191.86 50.104 191.012 50.24 190.164 50.24ZM201.684 50.24C201.028 50.24 200.388 50.184 199.764 50.072C199.156 49.96 198.596 49.808 198.084 49.616C197.572 49.408 197.124 49.152 196.74 48.848L197.508 46.88C197.908 47.136 198.34 47.36 198.804 47.552C199.268 47.744 199.748 47.888 200.244 47.984C200.74 48.08 201.228 48.128 201.708 48.128C202.476 48.128 203.044 48 203.412 47.744C203.796 47.472 203.988 47.12 203.988 46.688C203.988 46.32 203.86 46.04 203.604 45.848C203.364 45.64 202.996 45.488 202.5 45.392L200.1 44.936C199.108 44.744 198.348 44.384 197.82 43.856C197.308 43.312 197.052 42.616 197.052 41.768C197.052 41 197.26 40.336 197.676 39.776C198.108 39.216 198.7 38.784 199.452 38.48C200.204 38.176 201.068 38.024 202.044 38.024C202.604 38.024 203.148 38.08 203.676 38.192C204.204 38.288 204.7 38.44 205.164 38.648C205.644 38.84 206.06 39.096 206.412 39.416L205.596 41.384C205.292 41.128 204.94 40.912 204.54 40.736C204.14 40.544 203.724 40.4 203.292 40.304C202.876 40.192 202.468 40.136 202.068 40.136C201.284 40.136 200.7 40.272 200.316 40.544C199.948 40.816 199.764 41.176 199.764 41.624C199.764 41.96 199.876 42.24 200.1 42.464C200.324 42.688 200.668 42.84 201.132 42.92L203.532 43.376C204.572 43.568 205.356 43.92 205.884 44.432C206.428 44.944 206.7 45.632 206.7 46.496C206.7 47.28 206.492 47.952 206.076 48.512C205.66 49.072 205.076 49.504 204.324 49.808C203.572 50.096 202.692 50.24 201.684 50.24Z" fill="#003366"/>
<path opacity="0.604" d="M286.456 13.3001C285.971 11.161 286.209 8.90415 287.127 6.93952C288.045 4.97489 289.582 3.43285 291.458 2.59356C293.335 1.75427 295.426 1.67339 297.353 2.36566C299.279 3.05793 300.913 4.4774 301.958 6.36617C302.982 5.86393 304.106 5.6483 305.227 5.73899C306.348 5.82968 307.43 6.22381 308.374 6.88533C309.319 7.54685 310.096 8.4547 310.633 9.52594C311.171 10.5972 311.453 11.7976 311.454 13.0176V13.3001H286.456Z" fill="#BFDCFA"/>
<g opacity="0.354">
<path d="M395.714 16.0725H395.714C388.339 16.0725 382.361 22.5616 382.361 30.5663V43.7922C382.361 51.7969 388.339 58.286 395.714 58.286H395.714C403.089 58.286 409.068 51.7969 409.068 43.7922V30.5663C409.068 22.5616 403.089 16.0725 395.714 16.0725Z" fill="#72B0F2"/>
<path d="M395.716 69.3024V29.2442" stroke="#5A90E4" stroke-width="1.69" stroke-linecap="round" stroke-linejoin="round"/>
<path d="M395.718 46.2791C388.419 46.2791 388.419 41.5085 388.419 34.2892" stroke="#5A90E4" stroke-width="1.69" stroke-linecap="round" stroke-linejoin="round"/>
<path d="M395.717 38.9826C400.777 38.9826 400.777 35.6703 400.777 30.6695" stroke="#5A90E4" stroke-width="1.69" stroke-linecap="round" stroke-linejoin="round"/>
<g style="mix-blend-mode:darken" opacity="0.294">
<path d="M395.509 70.6926C400.3 70.6926 404.183 69.9594 404.183 69.055C404.183 68.1506 400.3 67.4174 395.509 67.4174C390.718 67.4174 386.834 68.1506 386.834 69.055C386.834 69.9594 390.718 70.6926 395.509 70.6926Z" fill="#A3AAC9"/>
</g>
</g>
<path d="M314.841 52.0712C314.841 47.2726 311.257 43.3825 306.836 43.3825C302.415 43.3825 298.832 47.2726 298.832 52.0712V59.9997C298.832 64.7984 302.415 68.6884 306.836 68.6884C311.257 68.6884 314.841 64.7984 314.841 59.9997V52.0712Z" fill="#72B0F2"/>
<path d="M306.838 75.2908V51.278" stroke="#5A90E4" stroke-width="1.69" stroke-linecap="round" stroke-linejoin="round"/>
<path d="M306.839 61.4891C302.464 61.4891 302.464 58.6295 302.464 54.3017" stroke="#5A90E4" stroke-width="1.69" stroke-linecap="round" stroke-linejoin="round"/>
<path d="M306.838 57.1152C309.871 57.1152 309.871 55.13 309.871 52.1303" stroke="#5A90E4" stroke-width="1.69" stroke-linecap="round" stroke-linejoin="round"/>
<g style="mix-blend-mode:darken" opacity="0.294">
<path d="M306.473 76.1832C309.08 76.1832 311.194 75.8007 311.194 75.3289C311.194 74.857 309.08 74.4745 306.473 74.4745C303.866 74.4745 301.752 74.857 301.752 75.3289C301.752 75.8007 303.866 76.1832 306.473 76.1832Z" fill="#A3AAC9"/>
</g>
<path d="M351.321 12.1944C351.38 10.8656 350.983 9.76526 350.435 9.73668C349.887 9.70811 349.396 10.7622 349.337 12.091C349.278 13.4198 349.674 14.5202 350.222 14.5487C350.77 14.5773 351.262 13.5233 351.321 12.1944Z" fill="#D37C59"/>
<path d="M347.983 24.4046C348.269 20.6106 348.77 16.8393 349.481 13.1118C349.887 12.9498 350.32 12.8839 350.751 12.9185L350.686 21.0694L349.74 24.9024L347.983 24.4046Z" fill="#E3987A"/>
<path d="M353.754 12.8864L347.807 13.4203L347.623 12.1433L353.344 10.1782L353.754 12.8864Z" fill="black"/>
<path d="M341.906 77.6986H339.301V80.0904H341.906V77.6986Z" fill="#DE8E68"/>
<path d="M349.963 78.0732H347.358V80.465H349.963V78.0732Z" fill="#DE8E68"/>
<path d="M339.032 37.8178V77.8318H342.084L345.59 56.4251C345.59 56.4251 346.073 44.8438 339.032 37.8178Z" fill="url(#paint1_linear_3346_13876)"/>
<path d="M349.082 37.0285C349.167 38.1823 350.228 59.1784 350.228 59.1784V78.2966L347.097 78.6601L345.084 58.3281L339.031 37.8117C339.946 37.2749 346.653 36.2423 349.082 37.0285Z" fill="url(#paint2_linear_3346_13876)"/>
<path d="M343.502 19.4337C349.515 19.4337 349.8 36.0299 349.086 37.0285C348.372 38.0271 339.817 38.7062 339.028 37.8148C338.239 36.9234 336.009 19.4337 343.502 19.4337Z" fill="#799EFD"/>
<path d="M352.316 12.1924C352.374 10.8636 351.978 9.76325 351.43 9.73468C350.882 9.7061 350.39 10.7602 350.331 12.089C350.273 13.4178 350.669 14.5182 351.217 14.5467C351.765 14.5753 352.257 13.5213 352.316 12.1924Z" fill="#FCB291"/>
<path d="M347.115 80.0904V82.4822H353.309V81.6118L350.087 80.0904H347.115Z" fill="#2B2B5B"/>
<path d="M339.219 79.7138V82.1056H345.413V81.2352L342.191 79.7138H339.219Z" fill="#2B2B5B"/>
<path d="M347.769 12.377L347.048 12.4998L347.161 13.2826L347.882 13.1597L347.769 12.377Z" fill="black"/>
<path d="M343.945 20.878C343.945 21.4259 341.596 21.494 341.596 20.878V15.4365H343.945V20.878Z" fill="#F09F7E"/>
<path d="M343.873 17.9434C345.234 17.9434 346.337 16.1152 346.337 13.86C346.337 11.6048 345.234 9.77655 343.873 9.77655C342.512 9.77655 341.408 11.6048 341.408 13.86C341.408 16.1152 342.512 17.9434 343.873 17.9434Z" fill="#FCB291"/>
<path d="M339.581 12.1763C339.546 11.74 339.611 11.3011 339.77 10.8989C339.93 10.4967 340.18 10.1441 340.496 9.87269C341.289 9.37991 341.62 9.59925 342.418 9.21565C343.283 8.805 344.024 7.60612 345.036 7.60612C345.982 7.60612 345.897 8.18906 346.539 8.36133C346.917 8.46149 349.066 7.92561 349.066 9.43499C349.066 11.7597 346.688 11.948 346.138 12.2454C346.055 11.9778 345.959 11.7153 345.85 11.4592C345.15 11.9001 344.388 12.2144 343.595 12.3897C343.312 12.6004 343.083 12.8867 342.932 13.221C342.78 13.5554 342.71 13.9265 342.729 14.2987C342.731 14.3926 342.715 14.4861 342.681 14.5725C342.646 14.6588 342.595 14.7359 342.53 14.7982C342.465 14.8606 342.389 14.9066 342.306 14.9332C342.222 14.9597 342.135 14.966 342.049 14.9517C341.714 14.9672 341.379 14.9054 341.067 14.7701C340.755 14.6348 340.473 14.4292 340.24 14.1669C340.007 13.9046 339.827 13.5914 339.714 13.2483C339.6 12.9052 339.555 12.5398 339.581 12.1763Z" fill="#2B2B5B"/>
<path d="M341.642 15.4365C342.095 15.4365 342.461 15.0383 342.461 14.5471C342.461 14.0559 342.095 13.6577 341.642 13.6577C341.189 13.6577 340.822 14.0559 340.822 14.5471C340.822 15.0383 341.189 15.4365 341.642 15.4365Z" fill="#FCAE8C"/>
<path d="M338.102 22.6058C338.102 21.1803 337.037 20.0247 335.724 20.0247C334.411 20.0247 333.346 21.1803 333.346 22.6058V34.816C333.346 36.2415 334.411 37.3971 335.724 37.3971C337.037 37.3971 338.102 36.2415 338.102 34.816V22.6058Z" fill="#2B2B5B"/>
<path d="M339.412 33.53C342.586 33.53 345.159 30.5067 345.159 26.7773C345.159 23.048 342.586 20.0247 339.412 20.0247C336.238 20.0247 333.665 23.048 333.665 26.7773C333.665 30.5067 336.238 33.53 339.412 33.53Z" stroke="#2A2C58" stroke-width="1.69" stroke-miterlimit="10"/>
<path d="M345.456 23.8207C346.761 23.8247 348.061 23.99 349.332 24.3134C349.407 23.7936 349.835 16.3529 350.564 13.8599C350.84 13.5274 351.973 13.5665 351.973 13.8599C351.973 14.1534 353.583 26.3597 351.973 27.808C350.362 29.2562 344.903 27.3152 344.683 27.1239C344.462 26.9326 345.456 23.8207 345.456 23.8207Z" fill="#FCB291"/>
<path d="M340.315 23.385C340.848 21.0273 345.679 22.9844 346.116 23.5262C346.64 24.1712 345.703 27.805 344.981 27.9732C343.803 28.2477 339.623 26.4388 340.315 23.385Z" fill="#799EFD"/>
<defs>
<linearGradient id="paint0_linear_3346_13876" x1="819.453" y1="10.5127" x2="819.453" y2="57.1492" gradientUnits="userSpaceOnUse">
<stop stop-color="#F1F2F7"/>
<stop offset="1" stop-color="white" stop-opacity="0"/>
</linearGradient>
<linearGradient id="paint1_linear_3346_13876" x1="342.314" y1="37.8178" x2="342.314" y2="77.8318" gradientUnits="userSpaceOnUse">
<stop stop-color="#343886"/>
<stop offset="1" stop-color="#2A2C58"/>
</linearGradient>
<linearGradient id="paint2_linear_3346_13876" x1="344.629" y1="36.7434" x2="344.629" y2="78.6601" gradientUnits="userSpaceOnUse">
<stop stop-color="#2F326F"/>
<stop offset="1" stop-color="#2A2C58"/>
</linearGradient>
</defs>
</svg>
